<?xml version="1.0" standalone="no"?>
<!DOCTYPE svg PUBLIC "-//W3C//DTD SVG 20010904//EN"
 "http://www.w3.org/TR/2001/REC-SVG-20010904/DTD/svg10.dtd">
<svg version="1.0" xmlns="http://www.w3.org/2000/svg"
 width="6750.000000pt" height="5000.000000pt" viewBox="0 0 6750.000000 5000.000000"
 preserveAspectRatio="xMidYMid meet">

<g transform="translate(0.000000,5000.000000) scale(0.100000,-0.100000)"
fill="#000000" stroke="none">
<path d="M37225 44090 c3 -5 8 -10 11 -10 2 0 4 5 4 10 0 6 -5 10 -11 10 -5 0
-7 -4 -4 -10z"/>
<path d="M37237 44009 c7 -7 15 -10 18 -7 3 3 -2 9 -12 12 -14 6 -15 5 -6 -5z"/>
<path d="M37177 43997 c-3 -8 1 -14 8 -14 7 0 11 6 8 14 -3 7 -6 13 -8 13 -2
0 -5 -6 -8 -13z"/>
<path d="M37075 43781 c-3 -5 -2 -12 3 -15 5 -3 9 1 9 9 0 17 -3 19 -12 6z"/>
<path d="M37543 43485 c0 -8 4 -12 9 -9 5 3 6 10 3 15 -9 13 -12 11 -12 -6z"/>
<path d="M36746 43383 c-6 -14 -5 -15 5 -6 7 7 10 15 7 18 -3 3 -9 -2 -12 -12z"/>
<path d="M36705 43240 c-4 -6 -11 -7 -17 -4 -7 4 -8 2 -4 -5 6 -9 11 -9 22 0
14 11 18 19 10 19 -3 0 -8 -5 -11 -10z"/>
<path d="M36859 43185 c-1 -3 -2 -11 -3 -17 -1 -7 -8 -11 -16 -10 -8 2 -11 0
-7 -4 17 -17 33 -11 33 12 0 22 -4 32 -7 19z"/>
<path d="M37533 43073 c0 -9 4 -10 14 -2 7 6 13 12 13 14 0 1 -6 2 -13 2 -8 0
-14 -6 -14 -14z"/>
<path d="M37455 42999 c-4 -6 -5 -12 -2 -15 2 -3 7 2 10 11 7 17 1 20 -8 4z"/>
<path d="M37306 42718 c3 -5 10 -6 15 -3 13 9 11 12 -6 12 -8 0 -12 -4 -9 -9z"/>
<path d="M37293 42675 c0 -8 4 -12 9 -9 5 3 6 10 3 15 -9 13 -12 11 -12 -6z"/>
<path d="M37156 42662 c-2 -4 -1 -14 4 -22 7 -11 9 -9 7 8 -1 24 -3 26 -11 14z"/>
<path d="M36379 37484 c-45 -19 -63 -53 -48 -91 13 -35 79 -104 139 -146 l45
-32 -80 -7 c-107 -9 -184 -38 -229 -88 -59 -65 -44 -94 57 -113 l69 -13 -39
-18 c-62 -29 -142 -96 -199 -166 -221 -273 -278 -672 -173 -1205 l22 -110 61
0 c70 -1 143 -32 181 -77 48 -57 85 -208 85 -344 0 -54 1 -55 36 -70 47 -20
141 -20 187 0 87 36 162 150 211 318 47 164 60 294 60 630 1 170 1 308 2 308
0 0 68 -31 150 -69 312 -143 528 -211 679 -214 74 -2 96 2 124 18 57 34 76 68
75 136 l-1 59 23 -15 c64 -41 294 -165 409 -220 159 -76 270 -119 394 -154
l94 -26 13 -45 c27 -91 44 -227 44 -352 0 -118 1 -128 19 -128 18 0 35 85 97
497 4 25 18 55 35 74 34 38 46 101 32 174 l-9 53 58 6 c160 16 204 113 127
276 -35 73 -134 215 -178 255 l-22 19 62 13 c73 15 99 35 99 78 0 104 -219
287 -518 433 -378 185 -779 282 -1164 282 -241 0 -424 -33 -594 -106 -47 -20
-86 -35 -88 -33 -1 2 -13 22 -26 44 -40 66 -112 136 -165 161 -57 27 -104 29
-156 8z"/>
<path d="M37065 35646 c-54 -17 -96 -40 -135 -73 -33 -27 -90 -99 -90 -113 0
-4 39 12 86 36 156 78 310 93 476 46 51 -14 65 -16 61 -5 -9 23 -101 84 -158
104 -63 22 -178 25 -240 5z"/>
<path d="M38142 35549 c-52 -9 -145 -49 -157 -69 -4 -7 35 -10 114 -10 183 0
283 -38 435 -164 44 -36 48 -38 41 -16 -55 178 -243 290 -433 259z"/>
<path d="M37153 35371 c-40 -25 -53 -49 -53 -101 0 -57 50 -110 104 -110 52 0
90 23 111 66 47 100 -68 204 -162 145z"/>
<path d="M14886 35353 c-6 -14 -5 -15 5 -6 7 7 10 15 7 18 -3 3 -9 -2 -12 -12z"/>
<path d="M38145 35270 c-31 -12 -62 -52 -69 -86 -15 -71 41 -134 120 -134 28
0 44 8 70 34 28 28 34 41 34 78 0 50 -18 82 -60 103 -32 16 -64 18 -95 5z"/>
<path d="M14925 35241 c-3 -5 -2 -12 3 -15 5 -3 9 1 9 9 0 17 -3 19 -12 6z"/>
<path d="M15054 34993 c2 -9 11 -17 20 -19 17 -2 17 -2 0 17 -21 23 -23 23
-20 2z"/>
<path d="M14616 34972 c-3 -5 1 -9 9 -9 8 0 12 4 9 9 -3 4 -7 8 -9 8 -2 0 -6
-4 -9 -8z"/>
<path d="M14546 34928 c3 -5 10 -6 15 -3 13 9 11 12 -6 12 -8 0 -12 -4 -9 -9z"/>
<path d="M15159 34917 c6 -8 7 -18 3 -22 -4 -5 -1 -5 6 -1 10 6 10 11 1 22 -6
8 -14 14 -16 14 -3 0 0 -6 6 -13z"/>
<path d="M14470 34861 c0 -10 19 -25 25 -20 1 2 -3 10 -11 17 -8 7 -14 8 -14
3z"/>
<path d="M15216 34853 c-6 -14 -5 -15 5 -6 7 7 10 15 7 18 -3 3 -9 -2 -12 -12z"/>
<path d="M15066 34772 c-3 -6 1 -15 8 -21 8 -7 17 -8 20 -3 3 6 -1 15 -8 21
-8 7 -17 8 -20 3z"/>
<path d="M14910 34540 c0 -5 5 -10 11 -10 5 0 7 5 4 10 -3 6 -8 10 -11 10 -2
0 -4 -4 -4 -10z"/>
<path d="M14865 34389 c-4 -6 -5 -12 -2 -15 2 -3 7 2 10 11 7 17 1 20 -8 4z"/>
<path d="M36509 33323 c-13 -16 -12 -17 4 -4 16 13 21 21 13 21 -2 0 -10 -8
-17 -17z"/>
<path d="M38125 33261 c-3 -5 -2 -12 3 -15 5 -3 9 1 9 9 0 17 -3 19 -12 6z"/>
<path d="M38116 33212 c-3 -5 1 -9 9 -9 8 0 12 4 9 9 -3 4 -7 8 -9 8 -2 0 -6
-4 -9 -8z"/>
<path d="M35330 33156 c0 -2 7 -7 16 -10 8 -3 12 -2 9 4 -6 10 -25 14 -25 6z"/>
<path d="M36845 33139 c-4 -6 -5 -12 -2 -15 2 -3 7 2 10 11 7 17 1 20 -8 4z"/>
<path d="M39046 33053 c-6 -14 -5 -15 5 -6 7 7 10 15 7 18 -3 3 -9 -2 -12 -12z"/>
<path d="M37290 33016 c0 -2 7 -7 16 -10 8 -3 12 -2 9 4 -6 10 -25 14 -25 6z"/>
<path d="M37635 33000 c-16 -17 -16 -20 -3 -15 9 4 19 13 22 21 7 19 2 18 -19
-6z"/>
<path d="M34623 32755 c0 -8 4 -12 9 -9 5 3 6 10 3 15 -9 13 -12 11 -12 -6z"/>
<path d="M39686 32358 c3 -5 10 -6 15 -3 13 9 11 12 -6 12 -8 0 -12 -4 -9 -9z"/>
<path d="M39726 32362 c-3 -5 1 -9 9 -9 8 0 12 4 9 9 -3 4 -7 8 -9 8 -2 0 -6
-4 -9 -8z"/>
<path d="M42380 31651 c-189 -326 -353 -599 -365 -607 -53 -35 -147 -49 -330
-48 -189 0 -291 15 -345 52 -14 10 -455 119 -1020 253 -547 129 -994 239 -993
245 0 5 -18 10 -42 11 -38 2 -132 23 -175 40 -8 4 -18 5 -23 5 -13 -3 -148 34
-142 39 3 3 -9 3 -26 1 -24 -4 -30 -2 -24 8 5 9 4 11 -3 6 -9 -5 -12 -373 -12
-1460 l0 -1454 163 -6 c343 -15 718 -81 751 -134 3 -5 -1 -16 -10 -23 -13 -10
-46 -9 -187 10 -205 26 -376 36 -396 23 -19 -13 -6 -42 18 -42 62 0 419 -76
499 -107 95 -36 28 -42 -203 -18 -77 8 -191 15 -253 15 -108 0 -113 -1 -121
-22 -5 -13 -5 -28 0 -34 20 -25 122 -58 347 -114 128 -33 245 -66 259 -75 42
-28 11 -45 -98 -55 -90 -8 -98 -7 -209 25 -261 76 -352 97 -361 83 -12 -18
-11 -22 10 -50 32 -41 125 -107 218 -157 93 -48 108 -71 68 -97 -17 -11 -34
-7 -130 32 -121 49 -269 98 -327 109 l-38 7 0 -131 0 -131 40 -6 c22 -4 37
-10 35 -14 -3 -5 3 -6 12 -4 10 2 43 -2 73 -10 l55 -14 -92 -1 c-68 -1 -93 2
-93 12 0 9 -2 9 -9 -1 -6 -10 -42 -12 -153 -10 -81 2 -144 0 -142 -4 3 -4
-251 -9 -563 -10 l-568 -3 -65 -32 c-142 -69 -206 -97 -227 -97 -12 0 -20 -3
-17 -7 4 -7 -60 -33 -81 -34 -5 0 -13 -4 -16 -8 -10 -13 -263 -98 -277 -92 -7
3 -11 1 -8 -4 6 -9 -52 -25 -91 -25 -12 0 -20 -4 -17 -8 3 -4 -2 -9 -10 -9
-29 -3 -34 -4 -42 -11 -12 -12 -26 -9 -18 4 4 6 3 8 -4 4 -6 -3 -15 2 -21 11
-6 10 -11 13 -11 8 0 -6 5 -16 12 -23 13 -13 10 -14 -62 -32 -25 -6 -53 -14
-64 -17 -13 -3 -16 -1 -11 7 4 7 -3 5 -16 -4 -24 -15 -247 -58 -369 -71 -36
-3 -78 -8 -95 -10 -16 -2 -45 -4 -62 -4 -33 -1 -33 -2 -33 -50 0 -85 20 -252
46 -381 79 -396 274 -743 533 -949 214 -170 389 -257 701 -349 24 -7 -262 -10
-950 -10 -692 0 -1018 -3 -1095 -11 -534 -58 -990 -269 -1348 -626 -275 -273
-454 -629 -509 -1010 -9 -66 -13 -266 -13 -760 0 -368 2 -717 5 -774 l5 -104
-85 -17 c-96 -20 -222 -67 -293 -111 -72 -44 -66 -50 -94 101 -16 86 -18 168
-18 845 0 809 1 822 55 1030 77 298 232 565 465 801 340 345 775 554 1295 623
l145 19 -2255 1 c-2261 1 -2472 -2 -2680 -35 -784 -123 -1413 -610 -1651
-1279 -32 -92 -55 -177 -76 -290 -20 -104 -31 -1399 -14 -1588 71 -771 652
-1418 1476 -1642 252 -69 236 -68 958 -72 591 -4 657 -6 657 -20 0 -39 -75
-306 -108 -383 -94 -224 -266 -449 -457 -602 -211 -169 -277 -249 -358 -438
-66 -156 -82 -229 -82 -380 0 -121 3 -143 26 -207 55 -149 157 -267 324 -374
129 -83 133 -86 155 -129 27 -52 36 -98 60 -290 39 -308 88 -439 205 -548 118
-111 304 -182 475 -182 102 0 167 11 315 52 l110 30 125 122 c353 345 822 586
1296 663 l167 28 -6 75 c-3 41 -11 108 -18 148 l-12 72 -66 0 c-148 0 -376 57
-523 131 -247 123 -466 348 -587 602 -46 99 -94 229 -125 345 l-22 83 -60 3
c-184 7 -340 225 -303 423 22 118 99 197 207 210 l49 5 6 127 c15 340 147 651
379 896 84 89 215 194 298 239 l48 26 119 -121 c134 -137 230 -221 388 -339
356 -265 865 -515 1363 -669 l162 -50 53 24 c98 46 225 28 301 -43 194 -182
108 -573 -153 -696 -90 -42 -183 -43 -254 -4 l-47 27 0 -34 c0 -55 -29 -192
-62 -289 -36 -109 -98 -235 -162 -330 l-46 -69 105 -324 106 -324 54 6 c30 4
215 8 412 8 386 1 513 -10 798 -68 123 -25 354 -88 388 -107 13 -7 23 -6 30 1
12 12 15 211 7 486 -6 195 -3 204 105 301 309 277 366 586 172 935 -117 211
-208 317 -416 483 -109 87 -218 187 -318 291 -84 87 -153 162 -153 166 0 5
372 10 843 10 767 1 864 4 717 24 -52 7 -138 24 -160 32 -8 3 -27 7 -42 9 -38
5 -221 64 -233 75 -5 5 -16 9 -24 9 -27 0 -252 113 -247 125 2 6 -2 12 -10 12
-7 0 -10 -5 -7 -11 4 -5 -11 1 -33 14 -21 13 -40 28 -42 32 -2 4 -8 8 -13 8
-15 0 -111 69 -126 89 -7 10 -9 22 -5 26 4 5 1 5 -6 1 -7 -4 -9 -12 -5 -18 3
-7 -10 2 -30 18 -20 16 -37 34 -37 41 0 6 -5 15 -12 19 -7 5 -8 3 -3 -5 4 -8
-2 -7 -17 3 -36 24 -238 237 -238 251 0 7 -7 16 -16 19 -13 5 -14 9 -4 21 11
13 10 14 -2 10 -17 -7 -37 17 -100 119 -30 49 -35 63 -25 75 10 12 9 13 -1 7
-16 -10 -44 23 -37 42 3 7 1 11 -4 8 -8 -5 -37 50 -30 56 2 2 -4 14 -14 28
-20 29 -22 44 -4 35 6 -4 4 0 -6 8 -10 9 -32 57 -48 107 -28 87 -30 118 -7
104 7 -4 8 -2 4 5 -4 6 -11 9 -16 6 -13 -8 -21 11 -25 54 -1 21 -5 44 -9 50
-4 6 -10 36 -13 68 -10 91 -12 1629 -2 1713 12 103 42 240 52 240 4 0 6 4 3 9
-9 14 34 142 44 136 6 -3 7 1 4 9 -8 20 76 198 91 192 7 -2 12 5 12 17 -1 31
32 90 47 84 7 -3 13 1 13 9 0 7 -5 10 -10 7 -15 -9 48 82 111 159 30 38 58 65
63 62 5 -3 8 -1 7 4 -4 11 173 192 187 192 6 0 16 9 23 20 7 11 16 20 21 20 6
0 25 14 43 30 38 35 60 40 32 8 l-19 -23 23 19 c12 11 22 24 22 31 0 6 12 18
28 25 15 8 36 22 47 31 11 9 32 23 46 30 143 76 187 96 202 94 10 -2 14 1 10
8 -4 7 0 8 11 4 9 -4 14 -3 11 2 -7 12 31 24 46 15 8 -5 9 -3 4 6 -6 10 -4 12
9 7 9 -4 15 -3 11 2 -4 8 94 47 143 56 9 2 19 4 22 6 3 1 10 3 15 4 6 1 17 5
25 8 64 24 246 61 260 52 6 -4 7 -12 4 -18 -4 -7 -3 -8 2 -4 5 5 9 14 9 20 0
8 22 12 63 13 34 1 62 -2 62 -7 0 -4 12 -6 26 -3 15 3 37 -2 51 -12 14 -9 22
-11 18 -4 -5 8 -2 10 11 7 11 -3 76 -14 146 -23 70 -10 125 -21 123 -24 -2 -3
16 -5 38 -6 23 0 60 -4 82 -7 22 -3 67 -9 100 -12 33 -3 67 -8 75 -11 8 -3 42
-8 75 -9 33 -2 179 -16 325 -30 146 -15 289 -27 318 -28 40 0 52 -3 48 -13 -3
-7 -1 -16 5 -19 5 -4 8 -1 7 6 -4 16 71 22 90 7 8 -7 17 -7 27 2 8 6 18 9 24
6 10 -6 89 -10 416 -21 110 -4 207 -9 215 -12 8 -3 71 -5 140 -5 69 1 130 -3
136 -9 8 -7 14 -6 19 1 3 5 33 10 66 10 33 0 58 -3 56 -7 -3 -5 66 -7 153 -5
151 3 159 2 156 -15 -3 -13 2 -19 16 -20 19 -2 19 -1 3 11 -10 7 -14 15 -9 18
5 4 185 9 401 12 l391 7 6 -63 c4 -35 13 -157 21 -273 8 -115 17 -235 20 -265
3 -30 16 -210 30 -400 13 -190 27 -374 30 -410 5 -65 42 -567 115 -1585 22
-302 42 -577 45 -610 2 -33 7 -98 10 -145 11 -163 17 -215 25 -220 4 -3 -14
-54 -41 -113 -50 -110 -57 -143 -39 -177 6 -10 57 -42 115 -70 58 -28 114 -59
125 -70 11 -11 20 -15 20 -9 0 6 14 3 33 -8 17 -10 53 -27 80 -37 26 -10 47
-22 47 -27 0 -6 5 -7 10 -4 6 3 10 1 10 -5 0 -6 4 -8 10 -5 8 5 88 -29 100
-44 3 -3 13 -7 23 -9 9 -2 50 -18 90 -37 39 -19 113 -49 162 -68 50 -19 166
-69 258 -111 93 -42 182 -76 199 -76 19 0 39 10 59 29 51 52 40 88 -83 282
-32 51 -46 83 -42 95 4 14 3 15 -4 6 -7 -10 -13 -7 -28 15 -10 15 -17 31 -16
36 1 4 -4 7 -10 7 -7 0 -63 79 -125 175 -99 155 -110 176 -94 184 9 5 22 25
28 43 6 18 47 133 92 256 133 367 268 813 372 1226 27 110 51 201 52 203 2 1
29 -361 60 -805 32 -444 62 -824 67 -845 7 -34 3 -51 -41 -149 -52 -117 -60
-165 -31 -190 14 -12 205 -108 349 -176 23 -10 40 -22 37 -25 -3 -3 1 -4 8 -4
24 3 268 -105 261 -116 -3 -6 -1 -7 5 -3 9 5 97 -29 112 -44 3 -3 14 -7 25 -8
11 -2 110 -44 220 -94 236 -106 247 -110 285 -97 66 23 77 92 28 177 -46 80
-178 286 -188 292 -9 6 -230 347 -230 355 0 3 7 5 15 5 20 0 27 16 105 228
215 591 404 1265 525 1867 77 384 119 674 157 1080 14 148 17 807 5 963 -7 84
-6 103 5 97 7 -3 6 0 -4 7 -11 10 -21 49 -33 133 -49 357 -136 657 -270 930
-255 521 -663 875 -1220 1059 l-108 36 -298 0 c-165 0 -299 2 -299 4 0 1 95
166 210 364 l210 362 -2 1887 -3 1888 -345 -594z"/>
<path d="M39849 32138 c-5 -18 -6 -38 -1 -34 7 8 12 36 6 36 -2 0 -4 -1 -5 -2z"/>
<path d="M39860 32066 c0 -2 8 -10 18 -17 15 -13 16 -12 3 4 -13 16 -21 21
-21 13z"/>
<path d="M34185 32029 c-4 -6 -5 -12 -2 -15 2 -3 7 2 10 11 7 17 1 20 -8 4z"/>
<path d="M39956 31901 c-4 -5 -2 -12 3 -15 5 -4 12 -2 15 3 4 5 2 12 -3 15 -5
4 -12 2 -15 -3z"/>
<path d="M39423 31865 c0 -8 4 -12 9 -9 5 3 6 10 3 15 -9 13 -12 11 -12 -6z"/>
<path d="M39225 31690 c10 -11 20 -20 23 -20 3 0 -3 9 -13 20 -10 11 -20 20
-23 20 -3 0 3 -9 13 -20z"/>
<path d="M38993 31645 c0 -8 4 -12 9 -9 5 3 6 10 3 15 -9 13 -12 11 -12 -6z"/>
<path d="M35805 31510 c-8 -13 9 -20 24 -11 10 6 9 10 -3 14 -8 3 -18 2 -21
-3z"/>
<path d="M35872 30990 c6 -9 17 -17 26 -17 12 0 12 2 -2 12 -8 7 -14 14 -11
17 3 2 -1 5 -9 5 -11 0 -12 -4 -4 -17z"/>
<path d="M49730 30299 c0 -5 5 -7 10 -4 6 3 10 8 10 11 0 2 -4 4 -10 4 -5 0
-10 -5 -10 -11z"/>
<path d="M49821 30291 c-10 -7 -7 -9 12 -8 14 1 23 5 20 10 -6 9 -15 9 -32 -2z"/>
<path d="M49540 30286 c0 -2 7 -7 16 -10 8 -3 12 -2 9 4 -6 10 -25 14 -25 6z"/>
<path d="M49930 30286 c0 -2 7 -7 16 -10 8 -3 12 -2 9 4 -6 10 -25 14 -25 6z"/>
<path d="M50035 30270 c3 -5 8 -10 11 -10 2 0 4 5 4 10 0 6 -5 10 -11 10 -5 0
-7 -4 -4 -10z"/>
<path d="M49933 30245 c-3 -9 -3 -18 -1 -21 3 -3 8 4 11 16 6 23 -1 27 -10 5z"/>
<path d="M50138 30233 c6 -2 9 -10 6 -15 -4 -7 -2 -8 5 -4 13 9 5 26 -12 25
-9 0 -8 -2 1 -6z"/>
<path d="M50426 30231 c-4 -5 3 -7 14 -4 23 6 26 13 6 13 -8 0 -17 -4 -20 -9z"/>
<path d="M50185 30220 c-3 -5 0 -12 6 -16 8 -5 9 -3 4 6 -6 10 -4 12 8 7 9 -3
18 -3 21 1 3 4 -4 8 -14 9 -11 1 -22 -2 -25 -7z"/>
<path d="M50645 30210 c3 -5 8 -10 11 -10 2 0 4 5 4 10 0 6 -5 10 -11 10 -5 0
-7 -4 -4 -10z"/>
<path d="M50746 30202 c-3 -5 1 -9 9 -9 8 0 12 4 9 9 -3 4 -7 8 -9 8 -2 0 -6
-4 -9 -8z"/>
<path d="M50776 30181 c-4 -5 -2 -12 3 -15 5 -4 12 -2 15 3 4 5 2 12 -3 15 -5
4 -12 2 -15 -3z"/>
<path d="M51050 30169 c0 -5 5 -7 10 -4 6 3 10 8 10 11 0 2 -4 4 -10 4 -5 0
-10 -5 -10 -11z"/>
<path d="M50685 30161 c-3 -5 -2 -12 3 -15 5 -3 9 1 9 9 0 17 -3 19 -12 6z"/>
<path d="M51150 30159 c0 -5 5 -7 10 -4 6 3 10 8 10 11 0 2 -4 4 -10 4 -5 0
-10 -5 -10 -11z"/>
<path d="M51166 30142 c-3 -5 1 -15 8 -21 11 -10 14 -9 12 3 -3 21 -13 29 -20
18z"/>
<path d="M51558 30123 c7 -3 16 -2 19 1 4 3 -2 6 -13 5 -11 0 -14 -3 -6 -6z"/>
<path d="M51614 30099 c-5 -9 2 -13 19 -10 7 1 11 -15 8 -32 -1 -5 2 -6 7 -3
15 9 6 49 -11 52 -9 1 -19 -2 -23 -7z"/>
<path d="M51762 30101 c4 -13 18 -16 19 -4 0 4 -5 9 -11 12 -7 2 -11 -2 -8 -8z"/>
<path d="M51805 30093 c3 -3 0 -12 -7 -20 -6 -7 -8 -16 -4 -20 3 -3 6 -1 6 6
0 7 4 10 9 7 11 -7 9 21 -2 29 -4 3 -5 2 -2 -2z"/>
<path d="M51860 30096 c0 -2 7 -7 16 -10 8 -3 12 -2 9 4 -6 10 -25 14 -25 6z"/>
<path d="M51920 30070 c-9 -6 -10 -10 -3 -10 6 0 15 5 18 10 8 12 4 12 -15 0z"/>
<path d="M35890 30066 c0 -2 8 -10 18 -17 15 -13 16 -12 3 4 -13 16 -21 21
-21 13z"/>
<path d="M52170 30066 c0 -2 7 -9 15 -16 13 -11 14 -10 9 4 -5 14 -24 23 -24
12z"/>
<path d="M35765 30041 c-3 -5 -2 -12 3 -15 5 -3 9 1 9 9 0 17 -3 19 -12 6z"/>
<path d="M52224 30038 c-4 -7 -3 -10 1 -5 5 4 18 -1 29 -10 21 -18 21 -18 2 5
-22 26 -23 26 -32 10z"/>
<path d="M52357 30043 c-3 -5 5 -8 18 -8 13 0 21 3 18 8 -2 4 -10 7 -18 7 -8
0 -16 -3 -18 -7z"/>
<path d="M24503 29611 c-871 -230 -1585 -420 -1587 -422 -4 -3 30 -93 40 -107
1 -2 715 184 1587 414 l1584 417 -16 58 c-8 33 -18 59 -21 58 -3 0 -717 -189
-1587 -418z"/>
<path d="M35873 30023 c4 -3 1 -13 -6 -22 -11 -14 -10 -14 5 -2 16 12 16 31 1
31 -4 0 -3 -3 0 -7z"/>
<path d="M52185 30021 c-3 -5 -2 -12 3 -15 5 -3 9 1 9 9 0 17 -3 19 -12 6z"/>
<path d="M52336 30012 c-3 -5 1 -9 9 -9 8 0 12 4 9 9 -3 4 -7 8 -9 8 -2 0 -6
-4 -9 -8z"/>
<path d="M53070 29968 c14 -5 36 -12 50 -14 14 -3 27 -9 28 -15 2 -5 8 -7 12
-4 5 3 18 -3 29 -14 11 -11 22 -17 25 -13 3 3 6 0 6 -7 0 -7 4 -10 9 -7 12 8
153 -132 146 -144 -3 -6 -2 -10 3 -10 11 0 36 -57 35 -77 0 -7 4 -13 9 -13 6
0 8 -6 5 -14 -3 -8 -2 -16 3 -18 9 -3 15 -75 12 -162 -2 -49 -4 -57 -18 -52
-14 5 -15 4 -4 -8 15 -19 5 -127 -13 -138 -9 -6 -8 -8 2 -8 10 0 12 -9 7 -37
-4 -21 -9 -55 -11 -76 -1 -20 -11 -49 -20 -63 -10 -16 -12 -23 -4 -18 7 4 -2
-19 -20 -52 -37 -65 -148 -177 -169 -169 -7 2 -10 0 -7 -5 6 -9 -8 -14 -27
-11 -5 0 -8 -3 -8 -7 0 -5 -12 -14 -26 -21 -20 -9 -29 -9 -41 0 -11 10 -14 9
-11 -2 2 -8 -4 -14 -12 -14 -8 0 -21 -4 -29 -9 -10 -7 -12 -5 -6 5 6 11 5 12
-6 2 -7 -7 -22 -13 -33 -13 -18 0 -19 2 -6 11 13 9 13 10 0 6 -8 -2 -16 -10
-18 -18 -2 -12 41 -19 235 -37 131 -12 263 -22 293 -22 181 0 373 117 449 272
39 79 63 251 65 458 l1 136 -37 74 c-65 132 -197 237 -344 275 -46 11 -543 67
-573 64 -3 0 5 -5 19 -11z"/>
<path d="M35875 29951 c-3 -5 -2 -12 3 -15 5 -3 9 1 9 9 0 17 -3 19 -12 6z"/>
<path d="M52836 29942 c-3 -5 1 -9 9 -9 8 0 12 4 9 9 -3 4 -7 8 -9 8 -2 0 -6
-4 -9 -8z"/>
<path d="M53812 29886 c171 -70 287 -203 318 -364 11 -52 10 -93 -4 -240 -9
-97 -22 -199 -28 -227 -23 -109 -94 -211 -191 -277 -62 -42 -179 -88 -223 -88
-15 0 -24 -3 -20 -7 4 -5 128 -20 274 -35 147 -14 384 -38 527 -53 380 -39
479 -28 625 71 99 66 164 157 189 264 14 57 41 324 41 400 0 195 -142 374
-352 444 -61 21 -162 33 -636 80 -310 31 -566 56 -570 56 -4 0 19 -11 50 -24z"/>
<path d="M53229 29866 c-1 -3 -2 -9 -3 -13 -1 -5 -5 -13 -9 -20 -4 -6 -2 -15
5 -19 7 -4 10 -3 5 1 -4 5 0 16 9 26 10 11 12 19 5 24 -6 3 -12 4 -12 1z"/>
<path d="M55091 29770 c61 -18 158 -79 215 -135 70 -69 119 -160 135 -250 14
-82 -21 -438 -52 -520 -37 -99 -128 -199 -228 -250 -57 -29 -145 -55 -185 -55
-22 -1 -27 -3 -16 -9 31 -17 305 -32 375 -21 176 28 318 129 387 275 26 56 32
89 49 242 24 229 24 289 -2 365 -42 125 -126 221 -249 283 -87 44 -128 54
-284 71 -149 15 -185 17 -145 4z"/>
<path d="M53240 29756 c0 -2 7 -7 16 -10 8 -3 12 -2 9 4 -6 10 -25 14 -25 6z"/>
<path d="M53345 29651 c-3 -5 0 -13 6 -17 7 -4 9 -3 5 4 -3 5 0 13 6 15 9 4
10 6 1 6 -6 1 -14 -3 -18 -8z"/>
<path d="M35680 29581 c0 -6 4 -13 10 -16 6 -3 7 1 4 9 -7 18 -14 21 -14 7z"/>
<path d="M35823 29545 c0 -8 4 -12 9 -9 5 3 6 10 3 15 -9 13 -12 11 -12 -6z"/>
<path d="M24040 29160 c-536 -142 -983 -260 -992 -263 -16 -4 -15 -9 5 -61 15
-39 27 -54 37 -51 8 2 456 119 995 261 539 141 981 258 983 259 9 8 -26 110
-39 112 -8 0 -453 -115 -989 -257z"/>
<path d="M35641 29345 c0 -5 3 -16 8 -23 7 -11 9 -10 14 3 4 9 3 14 -2 10 -5
-3 -12 1 -14 7 -3 7 -6 9 -6 3z"/>
<path d="M53376 29317 c3 -10 9 -15 12 -12 3 3 0 11 -7 18 -10 9 -11 8 -5 -6z"/>
<path d="M53338 29243 c6 -2 9 -10 6 -15 -4 -7 -2 -8 5 -4 13 9 5 26 -12 25
-9 0 -8 -2 1 -6z"/>
<path d="M36220 29181 c0 -6 4 -13 10 -16 6 -3 7 1 4 9 -7 18 -14 21 -14 7z"/>
<path d="M49555 29131 c13 -14 17 -14 30 0 14 14 13 15 -15 15 -28 0 -29 -1
-15 -15z"/>
<path d="M53296 29132 c-3 -5 1 -9 9 -9 8 0 12 4 9 9 -3 4 -7 8 -9 8 -2 0 -6
-4 -9 -8z"/>
<path d="M36010 29126 c0 -2 8 -10 18 -17 15 -13 16 -12 3 4 -13 16 -21 21
-21 13z"/>
<path d="M49583 29095 c0 -8 4 -12 9 -9 5 3 6 10 3 15 -9 13 -12 11 -12 -6z"/>
<path d="M49950 29106 c0 -2 8 -10 18 -17 15 -13 16 -12 3 4 -13 16 -21 21
-21 13z"/>
<path d="M36165 29081 c-3 -5 -2 -12 3 -15 5 -3 9 1 9 9 0 17 -3 19 -12 6z"/>
<path d="M36750 29080 c-9 -6 -10 -10 -3 -10 6 0 15 5 18 10 8 12 4 12 -15 0z"/>
<path d="M50335 29061 c-3 -5 -2 -12 3 -15 5 -3 9 1 9 9 0 17 -3 19 -12 6z"/>
<path d="M50195 29049 c-4 -6 -5 -12 -2 -15 2 -3 7 2 10 11 7 17 1 20 -8 4z"/>
<path d="M37326 29031 c-4 -5 -2 -12 3 -15 5 -4 12 -2 15 3 4 5 2 12 -3 15 -5
4 -12 2 -15 -3z"/>
<path d="M50330 29026 c0 -2 8 -10 18 -17 15 -13 16 -12 3 4 -13 16 -21 21
-21 13z"/>
<path d="M53286 29017 c3 -10 9 -15 12 -12 3 3 0 11 -7 18 -10 9 -11 8 -5 -6z"/>
<path d="M37365 29011 c-3 -5 -2 -12 3 -15 5 -3 9 1 9 9 0 17 -3 19 -12 6z"/>
<path d="M50889 29003 c-13 -16 -12 -17 4 -4 16 13 21 21 13 21 -2 0 -10 -8
-17 -17z"/>
<path d="M50510 28990 c0 -5 5 -10 11 -10 5 0 7 5 4 10 -3 6 -8 10 -11 10 -2
0 -4 -4 -4 -10z"/>
<path d="M50663 28985 c0 -8 4 -12 9 -9 5 3 6 10 3 15 -9 13 -12 11 -12 -6z"/>
<path d="M51175 28980 c-3 -6 1 -7 9 -4 18 7 21 14 7 14 -6 0 -13 -4 -16 -10z"/>
<path d="M36756 28972 c-3 -5 1 -9 9 -9 8 0 12 4 9 9 -3 4 -7 8 -9 8 -2 0 -6
-4 -9 -8z"/>
<path d="M50618 28973 c7 -3 16 -2 19 1 4 3 -2 6 -13 5 -11 0 -14 -3 -6 -6z"/>
<path d="M50725 28970 c-3 -5 -1 -10 4 -10 6 0 11 5 11 10 0 6 -2 10 -4 10 -3
0 -8 -4 -11 -10z"/>
<path d="M53216 28968 c3 -5 10 -6 15 -3 13 9 11 12 -6 12 -8 0 -12 -4 -9 -9z"/>
<path d="M50800 28960 c8 -5 22 -9 30 -9 10 0 8 3 -5 9 -27 12 -43 12 -25 0z"/>
<path d="M50916 28948 c3 -5 10 -6 15 -3 13 9 11 12 -6 12 -8 0 -12 -4 -9 -9z"/>
<path d="M51135 28930 c-17 -8 -17 -9 7 -7 15 1 24 5 22 9 -3 4 -6 8 -7 7 -1
0 -11 -4 -22 -9z"/>
<path d="M51543 28925 c0 -8 4 -12 9 -9 5 3 6 10 3 15 -9 13 -12 11 -12 -6z"/>
<path d="M37065 28920 c-4 -6 -11 -8 -16 -5 -5 4 -9 1 -9 -4 0 -16 16 -13 30
4 7 8 10 15 7 15 -3 0 -9 -5 -12 -10z"/>
<path d="M51336 28915 c-16 -12 -17 -15 -4 -15 9 0 18 7 22 15 7 18 6 18 -18
0z"/>
<path d="M51611 28916 c-8 -10 -9 -16 -1 -21 6 -4 10 -3 9 2 -4 21 2 24 19 12
15 -13 16 -12 3 4 -16 21 -16 21 -30 3z"/>
<path d="M37726 28858 c3 -5 10 -6 15 -3 13 9 11 12 -6 12 -8 0 -12 -4 -9 -9z"/>
<path d="M52090 28866 c0 -2 8 -10 18 -17 15 -13 16 -12 3 4 -13 16 -21 21
-21 13z"/>
<path d="M52295 28861 c-3 -5 -2 -12 3 -15 5 -3 9 1 9 9 0 17 -3 19 -12 6z"/>
<path d="M53055 28861 c-3 -5 -2 -12 3 -15 5 -3 9 1 9 9 0 17 -3 19 -12 6z"/>
<path d="M52423 28835 c0 -8 4 -12 9 -9 5 3 6 10 3 15 -9 13 -12 11 -12 -6z"/>
<path d="M53095 28840 c3 -5 8 -10 11 -10 2 0 4 5 4 10 0 6 -5 10 -11 10 -5 0
-7 -4 -4 -10z"/>
<path d="M37680 28836 c0 -2 7 -7 16 -10 8 -3 12 -2 9 4 -6 10 -25 14 -25 6z"/>
<path d="M37833 28834 c8 -9 47 -13 51 -6 2 4 -9 8 -25 8 -17 1 -28 0 -26 -2z"/>
<path d="M52365 28819 c-4 -6 -5 -12 -2 -15 2 -3 7 2 10 11 7 17 1 20 -8 4z"/>
<path d="M52867 28800 c9 -9 9 -19 2 -34 -9 -19 -9 -19 4 -4 8 10 16 16 19 13
2 -3 5 2 5 10 0 8 -3 13 -5 10 -3 -3 -12 1 -21 7 -13 10 -14 10 -4 -2z"/>
<path d="M38485 28791 c-3 -5 -2 -12 3 -15 5 -3 9 1 9 9 0 17 -3 19 -12 6z"/>
<path d="M38523 28785 c0 -8 4 -12 9 -9 5 3 6 10 3 15 -9 13 -12 11 -12 -6z"/>
<path d="M50218 28622 c-481 -601 -832 -1143 -1147 -1772 -194 -387 -350 -766
-462 -1120 -23 -74 -48 -139 -56 -143 -7 -5 -11 -12 -9 -16 6 -10 -58 -243
-65 -236 -3 3 -4 -7 -2 -23 3 -15 -12 -97 -31 -182 -71 -312 -123 -673 -147
-1014 -15 -224 -6 -800 15 -996 72 -637 220 -1199 437 -1658 l58 -123 43 29
c101 70 228 233 311 397 19 39 54 122 77 185 53 144 67 160 36 44 -65 -240
-170 -437 -309 -576 -37 -37 -62 -68 -55 -68 62 1 212 65 320 137 99 66 106
70 83 44 -29 -34 -142 -115 -209 -150 -87 -46 -158 -64 -232 -59 l-62 4 -49
-173 c-27 -98 -53 -173 -59 -173 -7 0 -10 -8 -7 -20 3 -13 -1 -22 -12 -26 -11
-4 -13 -9 -6 -14 8 -4 7 -19 -4 -49 -8 -24 -15 -52 -15 -62 0 -11 -3 -19 -7
-19 -5 0 -9 -14 -10 -31 -1 -18 -10 -41 -20 -52 -10 -11 -12 -17 -5 -13 7 4
12 2 12 -7 0 -8 -54 -212 -121 -453 -484 -1764 -953 -3652 -1068 -4305 -11
-61 -22 -113 -24 -115 -2 -2 -2143 -3 -4757 -2 l-4754 3 57 34 c31 19 55 37
53 39 -2 1 -93 -42 -202 -97 -626 -314 -1132 -508 -1529 -585 -106 -21 -287
-38 -295 -29 -4 5 -21 82 -39 173 -37 193 -141 617 -206 845 -61 214 -128 426
-132 422 -2 -2 35 -177 81 -388 96 -437 165 -780 200 -984 l23 -140 144 1
c105 1 173 7 249 23 318 65 616 172 1009 362 l163 79 -4 -70 -4 -70 4938 0
4938 0 0 -30 c0 -38 7 -42 446 -261 l341 -170 7 -312 c22 -1005 98 -2780 185
-4297 10 -173 16 -318 14 -323 -2 -4 -2719 -7 -6036 -7 l-6032 0 -60 -36
c-166 -100 -440 -218 -680 -293 l-130 -40 6483 -1 c3565 0 6482 -3 6482 -7 0
-5 7 -114 15 -243 7 -129 17 -289 20 -355 28 -558 227 -3646 255 -3960 5 -60
12 -154 16 -208 6 -91 8 -99 30 -109 13 -6 24 -14 24 -17 -1 -3 -125 -84 -277
-180 -235 -149 -278 -180 -290 -209 -18 -42 -4 -92 34 -122 25 -20 39 -20 779
-20 531 0 760 3 777 11 14 6 30 21 35 33 7 12 13 122 15 261 4 235 10 287 281
2675 152 1339 278 2441 281 2448 3 9 90 12 385 12 l380 0 0 183 0 182 -360 -3
c-357 -4 -360 -3 -360 17 0 42 387 3481 392 3487 2 1 75 -25 162 -59 l159 -62
1316 -4375 1315 -4375 5 -198 c6 -194 7 -199 30 -218 22 -18 49 -19 716 -19
l692 0 27 25 c21 19 26 33 26 69 0 56 2 54 -268 226 -196 124 -210 136 -187
144 21 9 24 14 19 45 -6 44 -992 8545 -1069 9226 -31 270 -58 504 -61 521 -6
30 -6 30 73 53 234 67 487 157 707 252 88 39 162 72 164 74 2 2 -50 225 -117
497 -494 2027 -868 3725 -995 4518 -28 173 -51 360 -61 493 l-7 87 -44 0 c-55
0 -151 31 -223 72 -64 37 -214 148 -208 155 3 2 42 -20 88 -50 130 -84 219
-124 318 -141 l33 -6 -53 48 c-73 65 -162 188 -219 303 -51 100 -114 276 -124
344 -8 51 1 33 50 -100 47 -128 102 -239 169 -340 55 -83 160 -198 207 -229
l27 -18 59 51 c33 28 120 115 194 194 1056 1116 1687 2328 1777 3412 63 751
-26 1969 -220 3030 -69 380 -225 1064 -248 1088 -4 4 -153 -40 -332 -98 -178
-59 -358 -117 -400 -131 l-76 -24 4 -52 c27 -421 42 -1908 24 -2358 -19 -467
-51 -776 -103 -1000 -54 -233 -409 -817 -727 -1195 -118 -141 -344 -367 -481
-482 -295 -248 -647 -441 -946 -518 -12 -3 -13 -22 -44 -565 -178 -3195 -216
-5828 -100 -6970 10 -96 17 -176 16 -177 -2 -2 -63 -10 -137 -19 -182 -22
-728 -30 -941 -15 -604 44 -1220 183 -1768 400 l-125 49 3 68 c7 172 74 836
133 1314 78 646 193 1373 310 1970 233 1190 737 3033 1074 3928 66 174 71 138
-44 277 -250 301 -407 654 -466 1045 -22 144 -31 548 -17 752 9 127 8 152 -6
190 -11 28 -16 76 -17 138 0 87 3 101 31 160 25 52 33 88 43 181 7 64 19 138
27 165 9 27 17 63 20 81 2 18 11 63 20 100 9 37 18 86 20 108 4 43 57 242 68
252 3 4 21 0 39 -9 17 -8 46 -18 64 -22 l31 -7 -25 -57 c-36 -79 -39 -202 -5
-249 26 -37 29 -89 5 -116 -10 -11 -12 -17 -5 -13 14 9 16 -65 2 -189 -4 -44
-5 -84 0 -88 4 -5 15 27 25 70 15 65 70 241 80 251 2 2 28 -4 58 -13 176 -51
511 -34 910 45 81 17 149 30 152 30 2 0 -2 -15 -9 -32 -19 -45 -5 -75 41 -95
106 -44 534 31 993 176 52 17 96 28 98 27 2 -2 -6 -82 -17 -177 -35 -303 -44
-458 -38 -701 5 -252 18 -337 64 -441 28 -61 77 -113 119 -123 35 -9 94 2 122
23 15 11 35 49 52 94 62 172 143 289 225 329 61 29 169 30 226 2 l40 -20 46
96 c188 402 273 765 243 1037 -22 210 -79 345 -195 461 l-70 71 67 -5 c119 -8
145 13 110 90 -33 74 -135 145 -265 183 l-56 16 98 50 c179 89 209 169 88 231
-100 51 -229 13 -354 -106 -61 -58 -72 -64 -83 -51 -25 30 -193 136 -284 180
-183 87 -393 146 -646 182 -171 23 -580 23 -770 0 -306 -39 -607 -119 -793
-212 -50 -25 -91 -44 -92 -43 -5 6 224 569 327 808 59 135 152 344 208 465 56
121 113 243 126 272 l23 51 -245 162 c-135 89 -296 194 -359 235 l-113 74
-134 -167z m150 -2193 c7 -2 -19 -28 -58 -57 -38 -29 -70 -51 -70 -49 0 7 39
117 45 127 3 5 19 3 38 -4 17 -8 38 -15 45 -17z"/>
<path d="M38420 28776 c0 -2 7 -7 16 -10 8 -3 12 -2 9 4 -6 10 -25 14 -25 6z"/>
<path d="M25428 28161 c-1038 -273 -1890 -499 -1893 -503 -6 -6 22 -86 35
-101 5 -6 3775 977 3788 988 7 6 -25 109 -33 111 -6 2 -859 -221 -1897 -495z"/>
<path d="M37927 28503 c-9 -8 12 -33 27 -33 6 0 3 5 -7 11 -9 6 -15 14 -12 20
7 10 2 12 -8 2z"/>
<path d="M38415 28139 c-4 -6 -5 -12 -2 -15 2 -3 7 2 10 11 7 17 1 20 -8 4z"/>
<path d="M25614 27587 l-1862 -491 20 -50 c10 -28 21 -53 23 -56 4 -7 3701
963 3711 973 7 7 -17 117 -25 116 -3 -1 -844 -222 -1867 -492z"/>
<path d="M37947 28045 c3 -8 9 -12 14 -9 12 7 11 11 -5 17 -10 4 -13 1 -9 -8z"/>
<path d="M34215 27991 c-3 -5 -2 -12 3 -15 5 -3 9 1 9 9 0 17 -3 19 -12 6z"/>
<path d="M37615 27990 c-3 -6 1 -7 9 -4 18 7 21 14 7 14 -6 0 -13 -4 -16 -10z"/>
<path d="M37743 27948 c-11 -19 -13 -39 -1 -32 5 3 7 9 4 12 -3 3 -1 11 5 19
6 7 9 13 6 13 -3 0 -9 -6 -14 -12z"/>
<path d="M34385 27830 c3 -5 8 -10 11 -10 2 0 4 5 4 10 0 6 -5 10 -11 10 -5 0
-7 -4 -4 -10z"/>
<path d="M37974 27829 c-4 -7 -3 -9 4 -5 5 3 13 0 15 -6 4 -9 6 -10 6 -1 1 17
-16 25 -25 12z"/>
<path d="M37930 27816 c7 -7 13 -7 20 0 6 6 3 10 -10 10 -13 0 -16 -4 -10 -10z"/>
<path d="M38565 27819 c-4 -6 -5 -12 -2 -15 2 -3 7 2 10 11 7 17 1 20 -8 4z"/>
<path d="M37206 27751 c-4 -5 -2 -12 3 -15 5 -4 12 -2 15 3 4 5 2 12 -3 15 -5
4 -12 2 -15 -3z"/>
<path d="M25995 26438 c-979 -258 -1782 -471 -1784 -473 -2 -3 6 -29 18 -59
l23 -54 66 19 c37 10 839 221 1782 469 943 248 1716 452 1718 454 6 7 -24 110
-33 112 -6 1 -811 -210 -1790 -468z"/>
<path d="M26196 25865 c-962 -253 -1751 -465 -1753 -471 -3 -10 32 -104 39
-104 2 0 687 180 1523 400 836 220 1615 425 1730 455 116 31 217 59 225 63 14
6 14 12 0 62 l-15 56 -1749 -461z"/>
<path d="M26370 25288 c-938 -248 -1706 -451 -1707 -452 -2 -2 7 -27 20 -58
l22 -54 1340 353 c737 194 1342 352 1345 352 3 0 -49 -26 -115 -58 -231 -113
-376 -214 -554 -386 -278 -269 -437 -553 -522 -931 -22 -96 -23 -120 -28 -833
l-6 -735 -245 -64 c-135 -35 -248 -67 -253 -71 -4 -4 2 -31 14 -59 16 -38 26
-51 38 -48 69 20 441 116 450 116 6 0 11 -9 11 -21 0 -48 44 -232 81 -343 22
-65 39 -119 37 -121 -2 -1 -94 -26 -205 -55 l-202 -53 20 -49 c10 -27 19 -51
19 -53 0 -11 43 -2 221 45 104 28 193 50 198 50 6 0 28 -30 50 -68 54 -93 142
-214 213 -295 33 -37 59 -70 57 -71 -2 -2 -121 -34 -264 -71 -143 -38 -263
-71 -268 -75 -8 -7 31 -110 42 -110 3 1 139 36 301 79 233 62 298 76 311 67 9
-6 43 -33 75 -59 97 -79 231 -165 366 -232 70 -35 124 -66 120 -68 -4 -2 -143
-39 -310 -83 l-303 -79 227 -3 226 -2 173 45 c191 50 208 52 280 30 28 -9 104
-28 170 -42 l120 -27 715 -2 715 -3 -110 20 c-317 56 -605 171 -865 344 -425
284 -702 682 -807 1159 l-27 121 -4 725 c-4 774 0 872 43 1048 83 343 255 637
519 889 110 105 174 156 313 247 253 166 604 292 933 335 40 6 -217 8 -658 8
l-722 -2 72 19 c40 11 74 20 76 22 8 6 -31 114 -41 113 -7 -1 -779 -204 -1717
-451z m1597 286 c-3 -3 -12 -4 -19 -1 -8 3 -5 6 6 6 11 1 17 -2 13 -5z"/>
<path d="M37745 25471 c-3 -5 -2 -12 3 -15 5 -3 9 1 9 9 0 17 -3 19 -12 6z"/>
<path d="M37603 25345 c0 -8 4 -12 9 -9 5 3 6 10 3 15 -9 13 -12 11 -12 -6z"/>
<path d="M37629 25333 c-13 -16 -12 -17 4 -4 16 13 21 21 13 21 -2 0 -10 -8
-17 -17z"/>
<path d="M39645 25330 c-4 -6 -3 -16 3 -22 6 -6 12 -6 17 2 4 6 3 16 -3 22 -6
6 -12 6 -17 -2z"/>
<path d="M40899 25323 c-13 -16 -12 -17 4 -4 16 13 21 21 13 21 -2 0 -10 -8
-17 -17z"/>
<path d="M39790 25321 c0 -6 4 -13 10 -16 6 -3 7 1 4 9 -7 18 -14 21 -14 7z"/>
<path d="M36519 25303 c-13 -16 -12 -17 3 -5 9 8 23 10 29 6 8 -4 9 -3 5 4
-10 17 -21 15 -37 -5z"/>
<path d="M50675 25257 c-22 -8 -58 -23 -80 -34 -44 -23 -139 -103 -131 -110 3
-3 40 7 83 21 200 66 347 56 542 -35 l83 -39 -17 28 c-28 47 -107 112 -175
145 -58 28 -76 31 -165 34 -63 2 -115 -2 -140 -10z"/>
<path d="M37216 25238 c3 -5 10 -6 15 -3 13 9 11 12 -6 12 -8 0 -12 -4 -9 -9z"/>
<path d="M36366 25221 c-4 -5 -2 -12 3 -15 5 -4 12 -2 15 3 4 5 2 12 -3 15 -5
4 -12 2 -15 -3z"/>
<path d="M51817 25061 c-57 -19 -143 -68 -134 -77 2 -2 47 0 100 6 109 12 207
3 298 -29 76 -26 101 -40 193 -105 43 -31 80 -55 82 -53 2 2 -8 26 -22 53 -39
74 -109 140 -193 182 -67 33 -82 37 -170 39 -73 2 -110 -1 -154 -16z"/>
<path d="M50739 24937 c-44 -29 -63 -84 -49 -137 11 -40 59 -89 88 -91 9 0 25
-2 34 -4 32 -6 95 34 113 72 40 85 -18 183 -108 183 -29 0 -56 -8 -78 -23z"/>
<path d="M51844 24791 c-11 -5 -33 -23 -47 -41 -56 -67 -22 -177 61 -199 87
-24 162 32 162 120 0 42 -5 55 -33 85 -26 29 -42 37 -77 40 -25 2 -54 0 -66
-5z"/>
<path d="M36429 24773 c-13 -16 -12 -17 4 -4 9 7 17 15 17 17 0 8 -8 3 -21
-13z"/>
<path d="M36345 24770 c-3 -6 1 -7 9 -4 18 7 21 14 7 14 -6 0 -13 -4 -16 -10z"/>
<path d="M36135 24420 c-3 -6 1 -7 9 -4 18 7 21 14 7 14 -6 0 -13 -4 -16 -10z"/>
<path d="M35564 24182 c0 -10 6 -19 13 -19 8 0 9 6 2 19 -5 10 -11 18 -12 18
-2 0 -3 -8 -3 -18z"/>
<path d="M21651 22289 c-396 -37 -736 -147 -1006 -327 -134 -89 -338 -292
-424 -422 -188 -283 -293 -607 -317 -982 l-7 -107 34 9 c54 16 125 12 190 -11
55 -18 69 -19 138 -9 468 71 851 316 1114 715 106 161 208 385 263 577 14 51
29 97 32 102 3 5 20 -33 38 -85 67 -186 189 -399 320 -560 258 -316 648 -584
1056 -724 106 -37 107 -37 155 -22 26 9 73 19 103 22 l55 7 -7 96 c-66 893
-497 1487 -1212 1672 -183 47 -366 64 -525 49z"/>
<path d="M35945 22261 c-3 -5 -2 -12 3 -15 5 -3 9 1 9 9 0 17 -3 19 -12 6z"/>
<path d="M35665 21821 c-3 -5 -2 -12 3 -15 5 -3 9 1 9 9 0 17 -3 19 -12 6z"/>
<path d="M35803 21585 c0 -7 6 -11 14 -8 7 3 13 6 13 8 0 2 -6 5 -13 8 -8 3
-14 -1 -14 -8z"/>
<path d="M35886 21472 c-3 -4 4 -9 15 -9 23 -2 25 3 4 10 -8 4 -16 3 -19 -1z"/>
<path d="M36590 21336 c0 -2 8 -10 18 -17 15 -13 16 -12 3 4 -13 16 -21 21
-21 13z"/>
<path d="M36724 21256 c1 -8 5 -18 8 -22 4 -3 5 1 4 10 -1 8 -5 18 -8 22 -4 3
-5 -1 -4 -10z"/>
<path d="M36880 21156 c0 -2 8 -10 18 -17 15 -13 16 -12 3 4 -13 16 -21 21
-21 13z"/>
<path d="M36450 21026 c0 -2 8 -10 18 -17 15 -13 16 -12 3 4 -13 16 -21 21
-21 13z"/>
<path d="M37366 21012 c-3 -5 1 -9 9 -9 8 0 12 4 9 9 -3 4 -7 8 -9 8 -2 0 -6
-4 -9 -8z"/>
<path d="M43360 20801 c0 -6 4 -13 10 -16 6 -3 7 1 4 9 -7 18 -14 21 -14 7z"/>
<path d="M42606 20757 c3 -10 9 -15 12 -12 3 3 0 11 -7 18 -10 9 -11 8 -5 -6z"/>
<path d="M44121 20765 c0 -5 3 -16 8 -23 7 -11 9 -10 14 3 4 9 3 14 -2 10 -5
-3 -12 1 -14 7 -3 7 -6 9 -6 3z"/>
<path d="M46853 20705 c0 -8 4 -12 9 -9 5 3 6 10 3 15 -9 13 -12 11 -12 -6z"/>
<path d="M21022 20529 c-100 -19 -219 -99 -264 -177 l-17 -29 95 48 c186 93
333 102 569 32 34 -9 -29 51 -84 80 -92 50 -197 66 -299 46z"/>
<path d="M22150 20522 c-64 -22 -125 -58 -160 -97 -21 -24 -22 -27 -6 -21 82
29 191 49 271 49 112 0 190 -20 306 -77 49 -25 89 -41 89 -37 0 4 -23 33 -51
64 -36 41 -71 67 -126 94 -69 34 -84 38 -172 40 -72 2 -110 -2 -151 -15z"/>
<path d="M33483 20476 c-54 -17 -122 -57 -148 -86 -20 -23 -20 -23 0 -17 206
62 385 39 573 -72 29 -17 55 -31 57 -31 13 0 -43 75 -86 115 -77 72 -144 99
-259 102 -61 2 -110 -2 -137 -11z"/>
<path d="M32417 20409 c-56 -13 -134 -56 -181 -99 -41 -38 -103 -136 -93 -146
3 -3 33 15 67 40 140 103 263 141 437 133 64 -2 110 -1 107 4 -9 15 -86 51
-139 65 -56 15 -141 17 -198 3z"/>
<path d="M57933 20387 c0 -8 6 -14 14 -14 9 0 10 4 2 14 -6 7 -12 13 -14 13
-1 0 -2 -6 -2 -13z"/>
<path d="M57961 20291 c-8 -5 -9 -11 -3 -15 5 -3 12 1 16 9 6 17 6 18 -13 6z"/>
<path d="M21113 20234 c-79 -39 -91 -137 -26 -206 52 -55 152 -42 193 24 68
112 -50 240 -167 182z"/>
<path d="M22235 20233 c-34 -9 -63 -33 -79 -68 -21 -44 -20 -83 4 -122 53 -87
187 -79 226 12 19 46 18 73 -4 114 -29 54 -87 79 -147 64z"/>
<path d="M33509 20193 c-58 -36 -75 -111 -39 -171 23 -37 54 -52 110 -52 84 0
137 99 96 178 -30 58 -112 80 -167 45z"/>
<path d="M32461 20105 c-88 -74 -47 -202 68 -213 47 -4 53 -2 85 30 59 59 60
116 1 175 -43 43 -107 47 -154 8z"/>
<path d="M19657 19926 c-197 -371 -437 -675 -646 -816 -158 -106 -291 -292
-342 -476 -27 -98 -23 -239 9 -327 31 -86 105 -189 193 -270 111 -101 110 -96
107 -412 -3 -290 1 -320 64 -425 36 -59 139 -152 208 -187 l43 -22 55 87 c164
260 398 555 532 671 277 239 594 350 999 351 126 1 156 -2 171 -15 14 -13 31
-15 86 -10 38 4 79 8 92 11 l22 4 0 239 0 238 -47 18 c-230 86 -477 278 -623
483 -112 157 -208 375 -240 547 -8 39 -15 72 -16 74 -2 1 -27 -9 -56 -23 -73
-36 -130 -42 -208 -22 -153 39 -269 155 -326 324 l-22 63 -55 -105z"/>
<path d="M58287 19959 c7 -7 15 -10 18 -7 3 3 -2 9 -12 12 -14 6 -15 5 -6 -5z"/>
<path d="M58340 19926 c7 -7 13 -7 20 0 6 6 3 10 -10 10 -13 0 -16 -4 -10 -10z"/>
<path d="M57407 19816 c-10 -8 -14 -16 -10 -19 5 -3 14 3 21 14 14 22 13 23
-11 5z"/>
<path d="M23479 19734 c-13 -14 -57 -42 -97 -62 -64 -31 -84 -36 -146 -37 -71
0 -118 13 -167 46 l-26 18 -17 -82 c-68 -319 -248 -618 -490 -814 -85 -69
-213 -148 -295 -184 l-51 -21 0 -249 0 -249 28 -1 c15 0 137 -2 272 -3 209 -3
308 -11 325 -28 2 -2 -16 -69 -41 -148 -96 -311 -164 -617 -205 -925 -31 -228
-34 -709 -6 -905 75 -526 232 -922 521 -1310 48 -63 84 -121 81 -128 -3 -7 -1
-11 4 -8 12 8 84 -61 76 -73 -3 -6 0 -8 8 -6 7 3 32 -14 56 -40 23 -25 47 -45
52 -45 6 0 7 -4 4 -10 -3 -5 1 -10 10 -10 8 0 18 -7 21 -15 4 -8 10 -13 14
-10 4 3 13 -2 20 -10 16 -19 40 -19 40 0 0 8 4 15 10 15 5 0 7 -8 4 -17 -5
-15 -4 -15 4 -3 8 10 8 18 0 27 -11 13 6 107 23 129 5 6 6 13 3 16 -3 4 5 54
18 112 17 81 26 105 37 101 10 -4 11 -2 4 7 -6 7 -9 23 -7 36 4 24 -51 163
-119 297 -201 400 -267 738 -254 1303 9 417 61 779 188 1310 7 31 18 52 26 52
8 0 67 -53 132 -117 115 -115 222 -243 327 -392 l52 -73 7 74 c10 104 31 212
48 245 19 36 49 61 121 104 32 19 94 67 136 106 178 167 221 370 135 632 -65
195 -139 299 -298 425 -245 191 -412 440 -482 717 -26 101 -67 229 -75 229 -3
0 -17 -12 -31 -26z"/>
<path d="M58000 19669 c0 -5 5 -7 10 -4 6 3 10 8 10 11 0 2 -4 4 -10 4 -5 0
-10 -5 -10 -11z"/>
<path d="M58054 19608 l-19 -23 23 19 c12 11 22 21 22 23 0 8 -8 2 -26 -19z"/>
<path d="M57629 19503 c-13 -16 -12 -17 4 -4 16 13 21 21 13 21 -2 0 -10 -8
-17 -17z"/>
<path d="M57955 19490 c-3 -6 1 -7 9 -4 18 7 21 14 7 14 -6 0 -13 -4 -16 -10z"/>
<path d="M32524 16837 c-124 -224 -220 -486 -275 -752 -15 -73 -22 -154 -26
-300 l-5 -200 36 -135 c42 -162 109 -363 122 -367 5 -1 14 1 21 5 9 6 6 29
-13 92 -14 47 -40 148 -59 224 -31 123 -35 156 -35 267 0 288 77 646 232 1082
33 93 58 170 56 172 -2 2 -26 -37 -54 -88z"/>
<path d="M24830 15803 c-70 -5 -260 -33 -309 -45 -50 -13 -50 7 -8 -218 120
-642 220 -1641 267 -2665 12 -269 35 -460 62 -529 32 -82 138 -593 138 -665 0
-22 -4 -42 -8 -45 -12 -7 -51 37 -110 126 -50 73 -69 95 -77 86 -3 -2 2 -67
10 -144 17 -158 19 -234 6 -234 -10 0 -45 76 -101 222 -47 122 -65 146 -56 72
16 -124 25 -272 20 -302 -5 -23 -11 -32 -23 -30 -17 3 -41 66 -101 266 -45
150 -55 135 -45 -70 10 -205 10 -237 -4 -251 -7 -7 -17 3 -30 34 -18 42 -89
316 -128 498 -10 47 -24 86 -30 88 -7 3 -55 -36 -107 -86 -104 -98 -151 -130
-169 -112 -15 15 11 89 129 364 l93 218 -15 137 c-16 140 -69 470 -77 478 -2
3 -24 -2 -48 -10 -111 -37 -179 -49 -196 -34 -11 8 -12 7 -7 -6 6 -16 5 -16
-73 -20 -10 -1 -21 -4 -24 -9 -3 -4 -30 -8 -61 -10 -31 -1 -54 -5 -51 -10 2
-4 -8 -7 -24 -7 -15 0 -71 -6 -123 -15 -52 -9 -103 -14 -112 -11 -10 2 -18 0
-18 -5 0 -5 -5 -9 -11 -9 -5 0 -7 6 -3 13 5 8 2 7 -9 -2 -10 -8 -20 -11 -24
-7 -12 12 -63 168 -57 177 3 5 1 9 -4 9 -8 0 -20 28 -26 60 -1 3 -4 10 -8 16
-4 6 -6 21 -3 32 2 12 -1 21 -6 19 -10 -2 -150 364 -142 372 2 3 10 -4 18 -15
8 -10 15 -14 15 -7 0 6 -11 20 -25 31 -14 11 -34 44 -44 74 -10 29 -28 79 -40
112 -11 32 -18 63 -14 69 3 5 1 7 -5 3 -17 -10 -26 52 -10 72 12 15 11 16 -4
4 -14 -11 -19 -6 -37 45 -41 111 -43 114 -60 107 -101 -42 -311 -112 -433
-144 -151 -39 -386 -86 -392 -79 -2 2 -18 114 -35 249 l-32 245 -36 32 c-48
44 -130 73 -202 73 l-58 0 5 -32 c4 -29 3 -31 -11 -20 -10 9 -17 10 -22 2 -4
-6 -3 -10 2 -9 4 1 10 0 13 -1 3 -1 13 -3 22 -5 27 -5 198 -77 203 -85 3 -4
61 -459 130 -1011 68 -552 127 -1018 130 -1035 l5 -31 -457 -131 c-252 -72
-899 -258 -1438 -412 -821 -235 -984 -279 -1003 -270 -23 10 -24 10 -17 -32
11 -75 17 -108 19 -108 1 0 78 22 171 49 94 27 171 48 173 46 4 -3 -165 -3771
-174 -3872 -3 -40 -6 -76 -6 -80 0 -5 -4 -13 -9 -20 -6 -7 -6 -13 0 -17 5 -3
7 -21 5 -38 -2 -18 -4 -73 -4 -123 0 -101 -7 -148 -21 -139 -5 3 -7 10 -3 15
3 5 0 8 -8 7 -7 -2 -12 4 -10 12 2 8 0 12 -3 8 -11 -11 -47 11 -39 24 5 7 2 8
-5 4 -15 -10 -53 23 -44 37 3 5 1 7 -4 4 -17 -11 -125 73 -118 90 4 13 3 13
-8 4 -12 -9 -23 -3 -57 31 -24 24 -40 37 -35 29 4 -7 -15 4 -42 25 -28 22 -49
42 -47 45 2 3 -2 6 -9 6 -13 0 -117 71 -117 80 0 3 6 0 14 -6 8 -7 17 -8 20
-3 9 14 -3 21 -30 16 -16 -3 -27 1 -30 11 -4 8 -12 15 -19 15 -7 0 -27 13 -44
29 -17 16 -31 26 -31 23 0 -4 -7 2 -15 12 -8 11 -15 16 -15 10 0 -5 -3 -5 -8
1 -4 6 -33 27 -64 49 -32 21 -55 42 -52 47 3 5 1 8 -4 7 -17 -5 -93 46 -88 59
3 7 -1 10 -9 7 -17 -7 -68 30 -57 41 4 3 2 5 -3 3 -18 -5 -126 65 -121 79 3 7
0 15 -6 19 -7 4 -8 3 -4 -4 10 -16 -5 -15 -26 2 -10 7 -15 16 -11 20 4 4 0 4
-8 1 -9 -3 -26 4 -40 17 -14 13 -29 25 -34 27 -19 7 -42 26 -43 34 0 5 -4 12
-8 15 -4 4 -4 1 0 -5 4 -7 3 -13 -2 -13 -6 0 -13 7 -16 16 -3 8 -10 13 -15 9
-5 -3 -13 0 -17 6 -4 7 -3 9 4 5 6 -3 13 -2 17 3 3 6 -5 8 -17 6 -16 -3 -40 8
-76 35 -29 22 -57 40 -63 40 -6 0 -9 6 -6 14 4 10 0 12 -14 9 -10 -3 -19 0
-19 6 0 6 -6 11 -14 11 -8 0 -17 7 -20 16 -3 8 -10 13 -15 9 -5 -3 -13 0 -17
6 -4 7 -3 9 4 5 6 -3 13 -2 17 3 3 6 -4 8 -16 6 -21 -4 -99 40 -99 56 0 5 -4
8 -8 7 -15 -5 -141 85 -135 96 3 5 1 6 -5 3 -11 -7 -72 23 -72 36 0 4 -4 7 -9
7 -21 0 -82 43 -71 50 8 5 7 9 -5 13 -9 4 -13 3 -10 -3 10 -16 -5 -12 -31 9
-13 10 -20 21 -16 25 3 4 0 4 -9 1 -8 -3 -33 8 -57 25 -23 16 -47 30 -53 30
-6 0 -9 6 -6 14 4 10 0 12 -14 9 -10 -3 -19 0 -19 6 0 6 -6 11 -13 11 -20 0
-48 24 -51 43 -1 10 -5 17 -9 17 -4 0 -10 0 -13 0 -4 0 0 -7 7 -16 8 -9 -10
-2 -39 16 -28 17 -52 34 -52 36 0 3 6 2 13 -2 8 -5 8 -2 -2 9 -15 18 -26 23
-16 7 3 -6 3 -10 -1 -10 -13 0 -160 94 -177 114 -10 12 -16 15 -12 9 3 -7 -21
3 -54 23 -34 20 -58 40 -55 45 3 5 -1 6 -9 4 -7 -3 -31 7 -53 23 -22 16 -50
33 -62 36 -12 4 -22 12 -22 17 0 5 -6 9 -14 9 -8 0 -17 7 -20 16 -4 9 -9 14
-13 11 -10 -10 -64 23 -57 35 4 6 3 8 -4 5 -14 -9 -43 3 -36 14 3 5 2 9 -3 8
-19 -3 -33 2 -49 18 -9 10 -24 18 -33 20 -8 1 -20 8 -26 15 -5 7 -17 14 -25
16 -8 2 -18 9 -22 15 -3 6 -13 11 -20 13 -17 2 -192 106 -196 116 -2 5 -9 5
-15 1 -6 -4 -8 0 -4 9 4 11 0 15 -11 12 -9 -2 -42 12 -72 30 -30 19 -74 44
-98 56 -24 12 -39 26 -35 32 3 7 1 8 -5 4 -13 -8 -58 18 -85 48 -10 12 -16 15
-12 8 11 -20 -56 15 -78 42 -10 11 -16 15 -12 8 5 -10 -1 -9 -24 2 -31 17 -44
43 -15 32 8 -3 12 -2 9 3 -3 6 -14 9 -25 8 -10 -1 -16 -5 -14 -9 3 -4 -2 -5
-10 -2 -9 3 -13 10 -10 16 3 5 -1 8 -9 6 -20 -4 -137 63 -130 75 3 6 1 7 -5 3
-13 -8 -72 20 -72 34 0 6 -3 9 -7 8 -5 -1 -18 2 -31 6 -19 6 -21 10 -11 22 10
12 9 13 -5 8 -18 -7 -95 26 -115 50 -8 9 -20 16 -28 16 -22 0 -114 56 -105 65
4 4 1 5 -5 1 -13 -7 -73 22 -73 35 0 4 -12 9 -27 13 -33 7 -69 33 -60 42 4 4
15 1 24 -7 16 -13 17 -12 5 3 -14 17 -55 21 -45 4 4 -5 -14 2 -38 17 -24 14
-70 38 -101 53 -32 15 -58 31 -58 35 0 5 -5 9 -11 9 -24 0 -278 143 -272 153
3 5 1 7 -5 4 -15 -10 -43 3 -35 16 3 6 1 7 -5 3 -7 -4 -35 5 -62 20 -43 23
-48 29 -37 43 10 14 10 14 -5 3 -14 -11 -22 -10 -50 4 -18 9 -41 23 -50 32
-10 8 -18 12 -18 8 0 -4 -13 1 -29 10 -17 10 -27 22 -24 27 4 6 1 7 -7 2 -7
-4 -16 -2 -21 6 -4 8 -14 14 -21 15 -34 3 -39 5 -32 16 4 6 3 8 -4 4 -14 -9
-63 14 -55 27 3 6 1 7 -5 4 -14 -9 -43 3 -36 14 3 5 1 8 -4 7 -17 -5 -172 77
-173 92 0 10 -2 11 -6 2 -3 -9 -21 -4 -64 19 -32 17 -56 36 -52 42 3 6 1 7 -5
3 -14 -9 -163 65 -155 77 3 6 1 7 -5 3 -12 -7 -62 13 -62 26 0 4 -3 7 -7 6
-15 -4 -53 14 -48 22 3 4 -1 7 -8 6 -24 -2 -157 69 -153 81 3 7 0 15 -6 19 -7
4 -8 3 -4 -4 11 -19 -9 -14 -68 15 -30 15 -52 31 -49 36 3 6 1 7 -5 3 -14 -8
-72 20 -72 35 0 6 -4 8 -9 4 -14 -8 -81 27 -74 38 3 6 1 7 -5 3 -14 -8 -72 20
-72 35 0 6 -4 8 -9 4 -14 -8 -81 27 -74 38 3 6 1 7 -5 3 -12 -7 -282 118 -293
135 -3 6 -10 10 -15 10 -21 -2 -44 11 -38 21 4 6 2 8 -4 5 -15 -10 -43 3 -35
17 3 6 3 8 -1 4 -11 -9 -67 12 -60 23 3 5 -3 6 -12 2 -13 -5 -15 -3 -9 7 5 8
4 11 -2 7 -12 -8 -157 56 -168 72 -3 6 -11 9 -16 6 -5 -4 -9 -1 -9 4 0 6 -3
10 -7 9 -17 -4 -53 14 -47 24 4 6 2 8 -4 4 -14 -9 -63 14 -55 27 3 6 1 7 -6 3
-6 -4 -23 -1 -36 8 -13 9 -31 16 -39 16 -8 0 -22 8 -32 18 -10 9 -20 16 -23
14 -9 -4 -199 87 -206 99 -4 5 -11 7 -16 4 -5 -4 -9 -1 -9 4 0 6 -3 10 -7 10
-25 -4 -35 2 -28 19 5 13 3 14 -5 5 -9 -8 -28 -4 -78 19 -37 16 -69 32 -72 36
-3 4 -9 8 -15 9 -28 5 -154 70 -148 77 4 4 0 4 -10 0 -9 -3 -17 -2 -17 3 0 5
-6 10 -13 10 -25 0 -136 56 -130 66 3 6 1 7 -5 3 -6 -3 -46 10 -88 29 -43 20
-99 45 -126 57 -26 11 -48 23 -48 27 0 4 -10 7 -21 8 -12 1 -30 10 -40 19 -11
9 -19 14 -19 11 0 -6 -56 18 -100 43 -14 8 -30 15 -37 16 -7 1 -41 16 -78 33
-36 17 -68 31 -73 31 -4 0 -23 10 -42 22 -19 12 -44 23 -54 25 -10 2 -35 12
-55 22 -20 11 -50 24 -68 31 -17 6 -34 18 -37 25 -3 8 -13 11 -25 8 -12 -3
-21 -1 -21 6 0 6 -3 10 -8 8 -12 -4 -142 55 -142 65 0 5 -4 7 -9 3 -12 -7 -81
25 -81 37 0 5 -4 7 -9 4 -13 -8 -162 59 -153 69 4 4 2 5 -4 2 -15 -9 -96 27
-86 38 4 5 2 5 -4 2 -12 -7 -78 16 -70 24 3 3 -3 5 -12 6 -9 1 -27 4 -40 8
-22 7 -21 6 9 -61 17 -38 154 -316 305 -619 260 -523 433 -857 672 -1297 l107
-198 65 0 c104 0 1722 -30 1754 -33 28 -2 23 -9 -129 -182 -266 -304 -520
-580 -746 -810 l-217 -220 112 -175 c165 -260 388 -587 532 -782 70 -95 127
-178 127 -185 0 -8 8 -6 23 4 13 8 41 16 62 18 22 1 44 5 50 9 10 6 208 53
262 62 14 2 49 9 79 15 29 5 60 8 68 5 8 -3 12 -2 9 3 -3 5 31 14 77 21 137
21 139 21 132 7 -4 -6 0 -4 8 5 9 12 33 19 73 22 32 2 67 7 78 11 24 10 66 -5
80 -30 6 -10 18 -26 27 -35 33 -31 103 -124 89 -116 -8 5 2 -6 23 -23 20 -18
37 -36 37 -41 0 -5 11 -21 26 -35 14 -14 22 -30 18 -37 -4 -6 -3 -8 3 -5 13 8
114 -113 106 -126 -3 -6 -1 -7 5 -3 6 3 16 -2 21 -13 6 -11 19 -27 28 -37 48
-47 73 -88 68 -108 -5 -17 -4 -18 5 -6 9 13 13 12 30 -9 11 -12 17 -28 13 -34
-3 -5 -2 -7 4 -4 6 4 21 -5 33 -18 13 -14 20 -25 16 -25 -5 0 5 -12 21 -27 15
-16 45 -48 66 -72 20 -25 39 -43 41 -40 5 5 15 178 21 374 6 216 14 287 28
279 8 -5 8 -2 0 7 -14 14 -16 86 -6 192 l6 68 51 -2 c28 -1 59 2 68 6 30 12
938 -7 960 -21 4 -3 56 -7 115 -10 59 -3 112 -8 117 -12 6 -3 21 -5 34 -3 13
1 30 -3 39 -11 9 -7 14 -8 10 -2 -5 8 7 10 41 7 63 -6 75 -10 66 -25 -6 -10
-5 -11 8 -1 14 12 58 11 138 -3 14 -3 50 -7 80 -9 30 -3 62 -8 70 -11 8 -4 26
-8 40 -9 95 -10 124 -16 138 -27 13 -11 14 -11 8 1 -6 10 -4 12 10 8 11 -4 51
-11 89 -17 39 -6 77 -14 85 -17 8 -3 24 -7 35 -8 90 -12 121 -19 131 -26 6 -5
13 -7 15 -5 2 3 33 -2 69 -10 36 -8 76 -17 90 -19 14 -3 36 -8 50 -12 26 -6
30 -7 90 -18 19 -4 39 -10 45 -13 11 -7 25 -10 75 -18 19 -2 49 -9 66 -15 17
-5 42 -12 55 -14 56 -11 86 -18 109 -28 14 -5 32 -11 40 -12 28 -5 105 -25
200 -53 65 -19 94 -32 92 -42 -3 -11 0 -11 12 -1 10 8 21 9 33 3 10 -5 55 -19
101 -32 45 -12 82 -26 82 -30 0 -4 6 -7 13 -7 6 1 29 -3 50 -7 33 -7 36 -10
25 -25 -12 -14 -11 -14 4 -3 17 13 63 8 54 -6 -2 -4 11 -7 30 -8 18 0 43 -9
55 -20 13 -10 20 -14 16 -8 -4 7 10 6 38 -4 25 -8 45 -19 45 -24 0 -5 4 -6 10
-3 5 3 69 -16 142 -43 73 -28 150 -56 171 -63 20 -7 37 -17 37 -22 0 -4 4 -6
9 -3 12 8 183 -63 199 -82 7 -10 11 -11 7 -4 -10 20 13 14 36 -10 12 -13 18
-17 14 -9 -6 11 -4 13 11 7 10 -5 31 -13 47 -18 15 -5 27 -15 27 -21 0 -6 3
-8 6 -4 3 3 19 1 35 -5 21 -7 28 -15 24 -26 -4 -12 -3 -12 8 -3 11 8 21 8 43
-4 16 -8 32 -15 36 -15 3 0 39 -15 80 -34 40 -19 112 -51 161 -71 48 -21 87
-42 87 -47 0 -5 4 -7 8 -4 11 7 172 -71 201 -97 13 -12 21 -16 17 -9 -10 17
-4 16 58 -15 30 -15 52 -31 49 -36 -3 -6 -1 -7 5 -3 12 7 112 -39 124 -58 4
-6 8 -8 8 -3 0 4 18 -2 40 -13 38 -19 40 -23 36 -58 -3 -20 -7 -120 -10 -222
-4 -102 -9 -212 -13 -245 -4 -33 -7 -66 -7 -73 -1 -7 -8 -17 -16 -23 -13 -9
-12 -10 3 -5 15 5 17 -2 17 -52 0 -83 -4 -86 -81 -67 -35 9 -80 19 -99 22 -19
2 -62 11 -95 19 -33 8 -69 16 -80 18 -63 10 -96 19 -101 27 -3 5 -10 7 -15 3
-9 -5 -345 60 -379 73 -8 3 -18 6 -22 5 -4 -1 -85 14 -180 33 -95 18 -236 46
-313 60 -77 15 -145 31 -151 36 -6 5 -13 6 -17 3 -8 -9 -207 28 -207 38 0 5
-4 7 -9 3 -5 -3 -12 -1 -16 5 -3 5 -12 10 -18 10 -7 0 -6 -4 3 -11 12 -9 11
-10 -5 -4 -11 4 -39 9 -62 11 -23 2 -75 11 -115 20 -40 8 -93 17 -117 20 -24
2 -49 8 -55 11 -6 4 -20 7 -31 8 -48 2 -145 18 -145 25 0 3 -14 4 -31 2 -24
-4 -30 -2 -24 8 5 9 4 11 -4 6 -11 -7 -210 19 -241 31 -8 3 -21 5 -29 4 -7 -1
-20 1 -30 5 -9 4 -38 9 -66 11 -27 1 -57 6 -65 9 -8 4 -26 8 -40 9 -81 9 -349
49 -400 60 -25 5 -44 8 -155 21 -33 3 -64 9 -70 12 -5 3 -24 5 -42 3 -20 -1
-33 2 -33 9 0 6 -4 8 -10 5 -5 -3 -45 -1 -87 5 -43 7 -96 14 -118 16 -22 3
-56 7 -75 11 -19 4 -43 7 -52 8 -10 2 -19 3 -20 4 -4 3 -110 13 -131 12 -9 0
-15 4 -13 8 3 4 -16 8 -42 8 -54 -1 -173 11 -217 20 -16 4 -32 7 -35 8 -3 0
-11 4 -19 9 -10 7 -12 6 -6 -4 6 -10 2 -11 -21 -5 -16 4 -45 9 -64 10 -139 12
-165 18 -155 35 3 5 1 12 -5 15 -6 4 -10 3 -9 -2 5 -27 -2 -35 -26 -29 -13 3
-50 8 -82 11 -32 3 -119 12 -193 20 -149 16 -253 27 -287 28 -13 1 -23 3 -23
7 0 3 -51 6 -113 8 -61 2 -113 7 -115 11 -1 4 -14 6 -27 3 -14 -2 -33 2 -42 9
-12 10 -14 10 -9 2 5 -9 0 -13 -14 -13 -12 0 -19 3 -16 8 2 4 -13 6 -35 5 -28
-1 -38 1 -32 10 5 8 2 8 -9 -1 -9 -7 -29 -11 -44 -8 -16 3 -78 8 -139 12 -98
6 -140 10 -140 14 0 0 -36 2 -80 4 -220 8 -383 17 -405 22 -26 5 -184 11 -333
13 -68 1 -86 4 -81 14 5 7 1 7 -10 -2 -10 -9 -20 -11 -24 -5 -4 5 -86 9 -182
10 -799 4 -1008 4 -1169 -2 -151 -6 -185 -4 -192 7 -5 9 -9 10 -9 2 0 -7 -13
-10 -35 -8 -19 2 -35 -1 -35 -5 0 -4 -46 -9 -102 -10 -57 -1 -119 -3 -138 -5
-19 -1 -89 -5 -155 -9 -66 -4 -138 -10 -160 -12 -22 -2 -81 -6 -131 -9 -50 -2
-97 -6 -105 -9 -8 -2 -75 -9 -149 -16 -74 -6 -143 -14 -154 -17 -11 -3 -16 -1
-12 5 3 6 -4 5 -19 -1 -14 -7 -25 -15 -25 -18 0 -11 143 -201 245 -324 392
-478 861 -925 1389 -1322 185 -140 619 -433 641 -433 6 0 209 112 451 249 241
138 440 249 441 247 4 -3 -240 -634 -313 -812 -8 -18 401 -202 695 -313 l160
-61 705 0 704 0 77 198 c43 108 81 201 85 205 4 5 13 -6 18 -25 14 -43 65
-213 92 -305 l21 -73 1629 0 1630 0 0 150 0 150 39 0 c28 0 60 13 124 52 348
212 620 618 781 1163 l35 120 1 -60 0 -60 43 -19 c319 -139 709 -186 1020
-121 88 18 259 72 282 89 15 10 31 151 111 952 377 3790 485 4868 487 4871 6
6 488 76 492 71 3 -2 74 -535 159 -1184 85 -648 255 -1944 377 -2879 177
-1356 225 -1702 238 -1712 78 -61 317 -155 481 -190 130 -28 459 -25 593 5
109 24 338 98 360 115 12 10 -4 225 -119 1512 -154 1742 -209 2357 -232 2618
-10 103 -16 187 -15 187 1 0 31 -18 65 -41 195 -127 542 -264 793 -313 240
-46 271 -47 1693 -44 l1343 3 53 160 c122 368 274 672 476 955 496 694 1241
1150 2114 1295 83 14 182 26 219 27 l68 3 60 -140 c34 -77 133 -305 220 -506
87 -202 159 -371 159 -377 0 -52 254 -85 480 -63 133 13 176 25 191 52 6 11
15 17 22 12 8 -5 8 -2 -1 9 -10 12 -12 142 -12 595 0 319 -2 623 -6 675 l-7
96 -47 22 c-26 12 -60 33 -76 45 -43 35 -23 48 69 43 68 -3 74 -2 66 14 -5 9
-8 25 -7 35 0 10 0 44 0 76 -2 52 -5 58 -28 67 -27 11 -24 30 6 30 15 0 19 10
22 53 4 43 1 55 -16 70 -20 16 -20 18 -3 31 16 12 17 62 17 790 0 427 -2 776
-5 776 -4 0 -20 -7 -37 -16 -80 -42 -338 -57 -483 -29 -135 25 -119 3 -297
414 l-158 364 1 231 0 231 42 -105 42 -105 5 79 5 78 48 -73 c63 -97 258 -487
382 -766 l100 -223 34 0 c25 0 57 15 117 55 45 30 102 64 127 76 39 19 47 28
51 58 12 84 29 482 20 490 -5 4 -56 23 -114 41 -122 38 -276 98 -361 140 -56
29 -59 32 -59 68 0 35 21 189 36 260 l7 32 -3124 -2 c-1718 -1 -3144 -3 -3169
-5z m5669 -428 l1 -190 -20 25 c-18 23 -20 41 -19 230 l0 205 19 -40 c16 -34
19 -67 19 -230z"/>
<path d="M33680 14994 c0 -1 8 -8 17 -15 9 -8 14 -9 10 -2 -4 6 -1 13 5 16 7
3 3 4 -9 4 -13 -1 -23 -2 -23 -3z"/>
<path d="M33747 14979 c7 -7 15 -10 18 -7 3 3 -2 9 -12 12 -14 6 -15 5 -6 -5z"/>
<path d="M23555 14759 c-4 -6 -5 -12 -2 -15 2 -3 7 2 10 11 7 17 1 20 -8 4z"/>
<path d="M32439 14703 c-13 -16 -12 -17 4 -4 9 7 17 15 17 17 0 8 -8 3 -21
-13z"/>
<path d="M23639 14638 c-6 -22 -5 -39 3 -45 6 -3 8 -1 4 5 -3 5 0 13 6 15 10
4 10 6 0 6 -7 1 -10 6 -7 11 3 6 4 10 1 10 -3 0 -6 -1 -7 -2z"/>
<path d="M32069 14583 c-13 -16 -12 -17 4 -4 9 7 17 15 17 17 0 8 -8 3 -21
-13z"/>
<path d="M23606 14572 c-3 -5 1 -9 9 -9 8 0 12 4 9 9 -3 4 -7 8 -9 8 -2 0 -6
-4 -9 -8z"/>
<path d="M31643 14505 c0 -8 4 -12 9 -9 5 3 6 10 3 15 -9 13 -12 11 -12 -6z"/>
<path d="M23500 14501 c0 -6 4 -13 10 -16 6 -3 7 1 4 9 -7 18 -14 21 -14 7z"/>
<path d="M23730 14396 c0 -2 8 -10 18 -17 15 -13 16 -12 3 4 -13 16 -21 21
-21 13z"/>
<path d="M20425 14031 c-3 -6 3 -9 14 -8 11 0 17 5 15 9 -7 11 -22 10 -29 -1z"/>
<path d="M23871 13983 c7 -12 15 -20 18 -17 3 2 -3 12 -13 22 -17 16 -18 16
-5 -5z"/>
<path d="M19890 13866 c0 -2 8 -10 18 -17 15 -13 16 -12 3 4 -13 16 -21 21
-21 13z"/>
<path d="M19745 13821 c-3 -5 -2 -12 3 -15 5 -3 9 1 9 9 0 17 -3 19 -12 6z"/>
<path d="M23085 13730 c-3 -5 -1 -10 4 -10 6 0 11 5 11 10 0 6 -2 10 -4 10 -3
0 -8 -4 -11 -10z"/>
<path d="M23956 13712 c-3 -5 1 -9 9 -9 8 0 12 4 9 9 -3 4 -7 8 -9 8 -2 0 -6
-4 -9 -8z"/>
<path d="M18759 13533 c-12 -16 -12 -17 2 -6 9 7 20 9 24 5 5 -4 5 -1 1 6 -9
16 -11 15 -27 -5z"/>
<path d="M18886 13471 c-4 -5 -2 -12 3 -15 5 -4 12 -2 15 3 4 5 2 12 -3 15 -5
4 -12 2 -15 -3z"/>
<path d="M18933 13385 c0 -8 4 -12 9 -9 5 3 6 10 3 15 -9 13 -12 11 -12 -6z"/>
<path d="M23250 13281 c0 -6 4 -13 10 -16 6 -3 7 1 4 9 -7 18 -14 21 -14 7z"/>
<path d="M18993 13255 c0 -8 4 -12 9 -9 5 3 6 10 3 15 -9 13 -12 11 -12 -6z"/>
<path d="M19773 13235 c0 -8 4 -12 9 -9 5 3 6 10 3 15 -9 13 -12 11 -12 -6z"/>
<path d="M21847 13159 c7 -9 11 -18 8 -21 -3 -3 3 -11 12 -19 16 -12 17 -12 6
2 -8 10 -9 19 -3 27 6 7 7 10 4 7 -4 -3 -14 1 -23 8 -14 10 -14 10 -4 -4z"/>
<path d="M19063 13135 c0 -8 4 -12 9 -9 5 3 6 10 3 15 -9 13 -12 11 -12 -6z"/>
<path d="M19885 13070 c2 -27 10 -33 12 -10 1 11 -2 22 -6 24 -4 3 -7 -4 -6
-14z"/>
<path d="M21889 13027 c6 -8 7 -18 3 -22 -4 -5 -1 -5 6 -1 10 6 10 11 1 22 -6
8 -14 14 -16 14 -3 0 0 -6 6 -13z"/>
<path d="M19123 13007 c0 -8 6 -14 14 -14 9 0 10 4 2 14 -6 7 -12 13 -14 13
-1 0 -2 -6 -2 -13z"/>
<path d="M23786 12938 c3 -5 10 -6 15 -3 13 9 11 12 -6 12 -8 0 -12 -4 -9 -9z"/>
<path d="M31845 12939 c-3 -4 2 -6 10 -5 21 3 28 13 10 13 -9 0 -18 -4 -20 -8z"/>
<path d="M31923 12935 c0 -8 4 -12 9 -9 5 3 6 10 3 15 -9 13 -12 11 -12 -6z"/>
<path d="M32040 12926 c0 -2 8 -10 18 -17 15 -13 16 -12 3 4 -13 16 -21 21
-21 13z"/>
<path d="M32016 12912 c-3 -5 1 -9 9 -9 8 0 12 4 9 9 -3 4 -7 8 -9 8 -2 0 -6
-4 -9 -8z"/>
<path d="M18846 12887 c3 -10 9 -15 12 -12 3 3 0 11 -7 18 -10 9 -11 8 -5 -6z"/>
<path d="M32216 12868 c3 -5 10 -6 15 -3 13 9 11 12 -6 12 -8 0 -12 -4 -9 -9z"/>
<path d="M20166 12858 c3 -5 10 -6 15 -3 13 9 11 12 -6 12 -8 0 -12 -4 -9 -9z"/>
<path d="M31815 12791 c-3 -5 -2 -12 3 -15 5 -3 9 1 9 9 0 17 -3 19 -12 6z"/>
<path d="M12525 12779 c-4 -5 -4 -13 -1 -16 3 -4 6 0 6 8 0 11 2 11 10 -1 6
-9 10 -10 10 -3 0 17 -17 25 -25 12z"/>
<path d="M20305 12780 c3 -4 14 -10 25 -13 11 -3 18 -2 15 3 -3 4 -14 10 -25
13 -11 3 -18 2 -15 -3z"/>
<path d="M31965 12781 c-3 -5 -2 -12 3 -15 5 -3 9 1 9 9 0 17 -3 19 -12 6z"/>
<path d="M32050 12755 c13 -14 26 -25 28 -25 3 0 -5 11 -18 25 -13 14 -26 25
-28 25 -3 0 5 -11 18 -25z"/>
<path d="M10925 12760 c-4 -6 -12 -7 -18 -3 -8 5 -8 2 0 -9 7 -8 11 -17 8 -20
-3 -2 2 -5 10 -5 10 0 12 4 5 12 -6 7 -5 16 2 23 7 7 9 12 6 12 -4 0 -10 -5
-13 -10z"/>
<path d="M10864 12745 c-4 -8 -11 -12 -17 -8 -6 4 -7 1 -2 -7 6 -10 11 -10 20
3 7 9 16 13 20 9 5 -4 5 -1 1 6 -9 16 -15 15 -22 -3z"/>
<path d="M10773 12735 c0 -8 4 -12 9 -9 5 3 6 10 3 15 -9 13 -12 11 -12 -6z"/>
<path d="M11016 12728 c3 -5 10 -6 15 -3 13 9 11 12 -6 12 -8 0 -12 -4 -9 -9z"/>
<path d="M12986 12732 c-3 -5 1 -9 9 -9 8 0 12 4 9 9 -3 4 -7 8 -9 8 -2 0 -6
-4 -9 -8z"/>
<path d="M10329 12703 c-13 -16 -12 -17 4 -4 16 13 21 21 13 21 -2 0 -10 -8
-17 -17z"/>
<path d="M32606 12712 c-3 -5 1 -9 9 -9 8 0 12 4 9 9 -3 4 -7 8 -9 8 -2 0 -6
-4 -9 -8z"/>
<path d="M32773 12685 c0 -8 4 -12 9 -9 5 3 6 10 3 15 -9 13 -12 11 -12 -6z"/>
<path d="M10194 12652 c4 -3 14 -7 22 -8 9 -1 13 0 10 4 -4 3 -14 7 -22 8 -9
1 -13 0 -10 -4z"/>
<path d="M10385 12650 c-3 -5 -1 -10 4 -10 6 0 11 5 11 10 0 6 -2 10 -4 10 -3
0 -8 -4 -11 -10z"/>
<path d="M20535 12649 c-4 -6 -5 -12 -2 -15 2 -3 7 2 10 11 7 17 1 20 -8 4z"/>
<path d="M32080 12596 c0 -2 8 -10 18 -17 15 -13 16 -12 3 4 -13 16 -21 21
-21 13z"/>
<path d="M21951 12574 c0 -11 3 -14 6 -6 3 7 2 16 -1 19 -3 4 -6 -2 -5 -13z"/>
<path d="M13959 12523 c-7 -10 -9 -15 -5 -11 5 4 15 3 22 -3 8 -7 14 -7 19 1
4 6 1 9 -7 8 -7 -2 -12 3 -10 10 3 17 -3 15 -19 -5z"/>
<path d="M19440 12508 c0 -4 4 -8 9 -8 6 0 12 4 15 8 3 5 -1 9 -9 9 -8 0 -15
-4 -15 -9z"/>
<path d="M33200 12506 c0 -2 8 -10 18 -17 15 -13 16 -12 3 4 -13 16 -21 21
-21 13z"/>
<path d="M33613 12465 c0 -8 3 -13 5 -10 3 3 12 -1 21 -7 10 -8 9 -4 -3 10
-23 26 -23 26 -23 7z"/>
<path d="M20296 12428 c3 -5 10 -6 15 -3 13 9 11 12 -6 12 -8 0 -12 -4 -9 -9z"/>
<path d="M19564 12308 c-4 -7 -4 -10 1 -6 4 4 15 2 24 -5 14 -11 14 -10 2 6
-16 20 -18 21 -27 5z"/>
<path d="M31926 12301 c8 -8 43 -8 38 0 -2 4 -13 7 -24 6 -10 -1 -17 -3 -14
-6z"/>
<path d="M21340 12236 c0 -2 8 -10 18 -17 15 -13 16 -12 3 4 -13 16 -21 21
-21 13z"/>
<path d="M14806 12222 c-2 -4 -1 -14 4 -22 7 -11 9 -9 7 8 -1 24 -3 26 -11 14z"/>
<path d="M19612 12197 c10 -8 14 -18 10 -22 -4 -5 -1 -5 6 -1 17 10 15 14 -10
26 -21 10 -21 10 -6 -3z"/>
<path d="M20211 12196 c-8 -10 -9 -16 -1 -21 6 -4 9 -1 8 7 -2 7 3 12 10 10 8
-1 11 2 7 8 -8 13 -10 13 -24 -4z"/>
<path d="M31705 12191 c-9 -15 15 -25 28 -12 9 9 7 10 -7 5 -13 -5 -17 -4 -12
4 4 7 5 12 2 12 -3 0 -7 -4 -11 -9z"/>
<path d="M20433 12148 c-11 -19 -13 -39 -1 -32 5 3 7 9 4 12 -3 3 -1 11 5 19
6 7 9 13 6 13 -3 0 -9 -6 -14 -12z"/>
<path d="M14840 12136 c0 -2 8 -10 18 -17 15 -13 16 -12 3 4 -13 16 -21 21
-21 13z"/>
<path d="M32360 12126 c0 -2 8 -10 18 -17 15 -13 16 -12 3 4 -13 16 -21 21
-21 13z"/>
<path d="M14830 12116 c0 -2 8 -10 18 -17 15 -13 16 -12 3 4 -13 16 -21 21
-21 13z"/>
<path d="M10676 12068 c3 -5 10 -6 15 -3 13 9 11 12 -6 12 -8 0 -12 -4 -9 -9z"/>
<path d="M20926 12072 c-3 -5 1 -9 9 -9 8 0 12 4 9 9 -3 4 -7 8 -9 8 -2 0 -6
-4 -9 -8z"/>
<path d="M32510 12077 c0 -2 6 -10 14 -16 11 -9 16 -9 22 1 4 7 4 10 -1 6 -4
-4 -14 -3 -22 3 -7 6 -13 9 -13 6z"/>
<path d="M20835 12051 c-3 -5 -2 -12 3 -15 5 -3 9 1 9 9 0 17 -3 19 -12 6z"/>
<path d="M32666 12013 c-6 -14 -5 -15 5 -6 7 7 10 15 7 18 -3 3 -9 -2 -12 -12z"/>
<path d="M32750 11997 c0 -2 6 -10 14 -16 11 -9 16 -9 22 1 4 7 4 10 -1 6 -4
-4 -14 -3 -22 3 -7 6 -13 9 -13 6z"/>
<path d="M20495 11981 c-3 -5 -2 -12 3 -15 5 -3 9 1 9 9 0 17 -3 19 -12 6z"/>
<path d="M20003 11925 c0 -8 4 -12 9 -9 5 3 6 10 3 15 -9 13 -12 11 -12 -6z"/>
<path d="M20196 11913 l-17 -28 19 22 c11 12 23 19 27 15 5 -4 5 -1 1 6 -10
17 -11 16 -30 -15z"/>
<path d="M20160 11866 c0 -2 8 -10 18 -17 15 -13 16 -12 3 4 -13 16 -21 21
-21 13z"/>
<path d="M11265 11801 c-3 -5 -2 -12 3 -15 5 -3 9 1 9 9 0 17 -3 19 -12 6z"/>
<path d="M15823 11745 c0 -8 4 -12 9 -9 5 3 6 10 3 15 -9 13 -12 11 -12 -6z"/>
<path d="M19715 11720 c-4 -6 -11 -7 -17 -4 -7 4 -8 2 -4 -5 6 -9 11 -9 22 0
14 11 18 19 10 19 -3 0 -8 -5 -11 -10z"/>
<path d="M11575 11661 c-3 -5 -2 -12 3 -15 5 -3 9 1 9 9 0 17 -3 19 -12 6z"/>
<path d="M19383 11640 c-1 -11 2 -22 6 -24 4 -3 7 4 6 14 -2 27 -10 33 -12 10z"/>
<path d="M15782 11571 c-11 -7 -10 -9 3 -14 11 -5 14 -3 9 5 -5 8 -2 9 10 5
10 -4 15 -3 11 3 -7 12 -16 12 -33 1z"/>
<path d="M19167 11559 c7 -7 15 -10 18 -7 3 3 -2 9 -12 12 -14 6 -15 5 -6 -5z"/>
<path d="M16246 11533 c-6 -14 -5 -15 5 -6 7 7 10 15 7 18 -3 3 -9 -2 -12 -12z"/>
<path d="M32543 11313 c0 -9 4 -10 14 -2 7 6 13 12 13 14 0 1 -6 2 -13 2 -8 0
-14 -6 -14 -14z"/>
<path d="M16900 11084 c0 -8 5 -12 10 -9 6 4 8 11 5 16 -9 14 -15 11 -15 -7z"/>
<path d="M12765 11070 c-3 -6 1 -7 9 -4 18 7 21 14 7 14 -6 0 -13 -4 -16 -10z"/>
<path d="M15725 11030 c-3 -5 -1 -10 4 -10 6 0 11 5 11 10 0 6 -2 10 -4 10 -3
0 -8 -4 -11 -10z"/>
<path d="M12925 10990 c-3 -6 1 -7 9 -4 18 7 21 14 7 14 -6 0 -13 -4 -16 -10z"/>
<path d="M13085 10910 c-3 -6 1 -7 9 -4 18 7 21 14 7 14 -6 0 -13 -4 -16 -10z"/>
<path d="M13562 10695 c15 -16 20 -17 30 -6 11 11 10 13 0 7 -7 -4 -21 -2 -30
5 -15 12 -15 11 0 -6z"/>
<path d="M17373 10693 c4 -3 1 -13 -6 -22 -11 -14 -10 -14 5 -2 16 12 16 31 1
31 -4 0 -3 -3 0 -7z"/>
<path d="M13695 10601 c-3 -5 -2 -12 3 -15 5 -3 9 1 9 9 0 17 -3 19 -12 6z"/>
<path d="M17570 10556 c0 -2 8 -10 18 -17 15 -13 16 -12 3 4 -13 16 -21 21
-21 13z"/>
<path d="M17646 10492 c-3 -5 1 -9 9 -9 8 0 12 4 9 9 -3 4 -7 8 -9 8 -2 0 -6
-4 -9 -8z"/>
<path d="M15655 10461 c-3 -5 -2 -12 3 -15 5 -3 9 1 9 9 0 17 -3 19 -12 6z"/>
<path d="M15523 10445 c0 -8 4 -12 9 -9 5 3 6 10 3 15 -9 13 -12 11 -12 -6z"/>
<path d="M15655 10410 c-3 -6 1 -7 9 -4 18 7 21 14 7 14 -6 0 -13 -4 -16 -10z"/>
<path d="M17860 10297 c12 -16 12 -20 -1 -28 -9 -5 -10 -9 -2 -9 22 0 26 22 7
38 -17 16 -17 16 -4 -1z"/>
<path d="M14456 10220 c5 -8 9 -18 9 -22 0 -3 3 -9 7 -13 3 -4 5 0 4 9 -1 9
-8 22 -16 29 -10 10 -11 9 -4 -3z"/>
<path d="M17935 10180 c10 -11 20 -20 23 -20 3 0 -3 9 -13 20 -10 11 -20 20
-23 20 -3 0 3 -9 13 -20z"/>
<path d="M18029 10128 c-5 -16 -4 -46 2 -42 4 2 7 13 6 24 -1 17 -5 26 -8 18z"/>
<path d="M14610 10115 c0 -2 6 -8 13 -14 10 -8 14 -7 14 2 0 8 -6 14 -14 14
-7 0 -13 -1 -13 -2z"/>
<path d="M14725 10051 c-3 -5 -2 -12 3 -15 5 -3 9 1 9 9 0 17 -3 19 -12 6z"/>
<path d="M18095 10020 c10 -11 20 -20 23 -20 3 0 -3 9 -13 20 -10 11 -20 20
-23 20 -3 0 3 -9 13 -20z"/>
<path d="M14896 9972 c-2 -4 4 -8 14 -8 10 0 16 4 14 8 -3 4 -9 8 -14 8 -5 0
-11 -4 -14 -8z"/>
<path d="M15176 9832 c-3 -5 1 -9 9 -9 8 0 12 4 9 9 -3 4 -7 8 -9 8 -2 0 -6
-4 -9 -8z"/>
<path d="M18419 9683 c-13 -16 -12 -17 4 -4 9 7 17 15 17 17 0 8 -8 3 -21 -13z"/>
<path d="M15487 9659 c7 -7 15 -10 18 -7 3 3 -2 9 -12 12 -14 6 -15 5 -6 -5z"/>
<path d="M16065 9321 c-3 -5 -2 -12 3 -15 5 -3 9 1 9 9 0 17 -3 19 -12 6z"/>
<path d="M16289 9183 c-13 -16 -12 -17 4 -4 9 7 17 15 17 17 0 8 -8 3 -21 -13z"/>
<path d="M18666 9102 c-2 -4 -1 -14 3 -21 6 -9 11 -10 15 -2 4 6 2 11 -4 11
-6 0 -8 5 -5 10 3 6 4 10 1 10 -3 0 -7 -4 -10 -8z"/>
<path d="M16834 8872 c3 -5 0 -13 -6 -15 -9 -4 -10 -6 -1 -6 17 -1 25 16 12
25 -7 4 -9 3 -5 -4z"/>
<path d="M16939 8783 c-12 -16 -12 -17 2 -6 12 10 18 10 29 0 12 -10 12 -9 1
6 -7 9 -15 17 -16 17 -1 0 -9 -8 -16 -17z"/>
<path d="M17344 8518 c-4 -7 -3 -10 1 -5 5 4 20 -3 34 -15 l26 -23 -24 28
c-28 31 -28 31 -37 15z"/>
<path d="M17736 8312 c-3 -5 1 -9 9 -9 8 0 12 4 9 9 -3 4 -7 8 -9 8 -2 0 -6
-4 -9 -8z"/>
<path d="M17816 8228 c3 -5 10 -6 15 -3 13 9 11 12 -6 12 -8 0 -12 -4 -9 -9z"/>
<path d="M17893 8215 c0 -8 4 -12 9 -9 4 3 8 9 8 15 0 5 -4 9 -8 9 -5 0 -9 -7
-9 -15z"/>
<path d="M19230 8207 c0 -2 6 -10 14 -16 11 -9 16 -9 22 1 4 7 4 10 -1 6 -4
-4 -14 -3 -22 3 -7 6 -13 9 -13 6z"/>
<path d="M13084 8140 c0 -13 4 -16 10 -10 7 7 7 13 0 20 -6 6 -10 3 -10 -10z"/>
<path d="M17946 8152 c-2 -4 -1 -14 5 -22 6 -11 9 -12 9 -2 0 8 5 10 13 6 8
-5 8 -2 -2 9 -15 19 -18 20 -25 9z"/>
<path d="M15780 8116 c0 -2 8 -10 18 -17 15 -13 16 -12 3 4 -13 16 -21 21 -21
13z"/>
<path d="M18133 8055 c0 -8 4 -12 9 -9 4 3 8 9 8 15 0 5 -4 9 -8 9 -5 0 -9 -7
-9 -15z"/>
<path d="M13142 8047 c-8 -10 -6 -13 8 -14 11 -1 22 2 25 8 4 5 -2 6 -11 2
-12 -4 -15 -3 -10 5 10 16 1 15 -12 -1z"/>
<path d="M13176 8021 c-4 -5 -2 -12 3 -15 5 -4 12 -2 15 3 4 5 2 12 -3 15 -5
4 -12 2 -15 -3z"/>
<path d="M13220 7947 c0 -2 6 -10 14 -16 11 -9 16 -9 22 1 4 7 4 10 -1 6 -4
-4 -14 -3 -22 3 -7 6 -13 9 -13 6z"/>
<path d="M19363 7915 c0 -8 4 -12 9 -9 5 3 6 10 3 15 -9 13 -12 11 -12 -6z"/>
<path d="M18365 7850 c-3 -5 -5 -10 -3 -11 33 -8 38 -7 27 7 -14 17 -16 17
-24 4z"/>
<path d="M11481 7787 c-13 -21 -12 -21 5 -5 10 10 16 20 13 22 -3 3 -11 -5
-18 -17z"/>
<path d="M11325 7719 c-4 -6 -4 -13 -1 -16 3 -4 6 -1 6 6 0 7 5 9 12 5 7 -4 8
-3 4 4 -9 15 -13 15 -21 1z"/>
<path d="M17405 7720 c-4 -6 -12 -7 -18 -4 -7 4 -8 3 -4 -1 13 -15 34 -14 34
1 0 17 -4 18 -12 4z"/>
<path d="M19405 7700 c-3 -6 1 -7 9 -4 18 7 21 14 7 14 -6 0 -13 -4 -16 -10z"/>
<path d="M13465 7641 c-3 -5 -1 -12 5 -16 6 -4 7 -11 4 -17 -4 -7 -2 -8 5 -4
8 6 9 12 2 20 -6 7 -8 16 -4 19 3 4 4 7 0 7 -3 0 -8 -4 -12 -9z"/>
<path d="M18687 7636 c-3 -8 2 -20 11 -27 14 -11 15 -11 5 0 -6 7 -9 20 -6 27
3 8 3 14 0 14 -3 0 -7 -6 -10 -14z"/>
<path d="M17650 7625 c-7 -8 -17 -12 -23 -8 -6 4 -7 1 -3 -6 6 -9 13 -8 27 5
10 9 19 19 19 21 0 7 -8 2 -20 -12z"/>
<path d="M13505 7620 c-3 -5 -5 -10 -3 -11 33 -8 38 -7 27 7 -14 17 -16 17
-24 4z"/>
<path d="M10670 7486 c0 -2 8 -10 18 -17 15 -13 16 -12 3 4 -13 16 -21 21 -21
13z"/>
<path d="M10373 7325 c0 -8 4 -12 9 -9 5 3 6 10 3 15 -9 13 -12 11 -12 -6z"/>
<path d="M19263 7225 c0 -8 4 -12 9 -9 5 3 6 10 3 15 -9 13 -12 11 -12 -6z"/>
<path d="M18878 7153 c6 -2 9 -10 6 -15 -4 -7 -2 -8 5 -4 13 9 5 26 -12 25 -9
0 -8 -2 1 -6z"/>
<path d="M19440 7121 c0 -6 4 -13 10 -16 6 -3 7 1 4 9 -7 18 -14 21 -14 7z"/>
<path d="M18966 7092 c-2 -4 4 -8 14 -8 10 0 16 4 14 8 -3 4 -9 8 -14 8 -5 0
-11 -4 -14 -8z"/>
<path d="M19173 7005 c0 -8 4 -12 9 -9 5 3 6 10 3 15 -9 13 -12 11 -12 -6z"/>
<path d="M19202 6991 c-11 -7 -10 -9 3 -14 9 -4 14 -3 10 2 -3 5 1 12 7 14 7
3 9 6 3 6 -5 0 -16 -3 -23 -8z"/>
<path d="M14855 6951 c-3 -5 -2 -12 3 -15 5 -3 9 1 9 9 0 17 -3 19 -12 6z"/>
<path d="M14909 6943 c-13 -16 -12 -17 4 -4 9 7 17 15 17 17 0 8 -8 3 -21 -13z"/>
<path d="M19335 6930 c10 -11 20 -20 23 -20 3 0 -3 9 -13 20 -10 11 -20 20
-23 20 -3 0 3 -9 13 -20z"/>
<path d="M14976 6932 c-3 -5 1 -9 9 -9 8 0 12 4 9 9 -3 4 -7 8 -9 8 -2 0 -6
-4 -9 -8z"/>
<path d="M16690 6716 c0 -2 7 -7 16 -10 8 -3 12 -2 9 4 -6 10 -25 14 -25 6z"/>
<path d="M31200 5185 c-201 -24 -372 -44 -381 -44 -9 -1 -76 -95 -164 -233
-82 -128 -182 -283 -222 -345 -85 -129 -93 -167 -46 -215 43 -45 72 -39 317
71 122 55 397 179 611 275 395 178 435 200 435 249 0 12 -27 81 -59 152 -58
128 -59 130 -92 132 -19 1 -198 -18 -399 -42z"/>
<path d="M29630 5094 c-201 -23 -374 -43 -385 -44 -15 0 -54 -53 -150 -203
-71 -111 -166 -259 -212 -329 -68 -104 -83 -134 -83 -166 0 -53 38 -92 90 -92
32 0 294 111 645 274 39 18 195 88 348 157 229 102 281 129 293 151 8 15 14
34 14 42 0 8 -24 69 -52 135 l-53 121 -45 -1 c-25 -1 -209 -21 -410 -45z"/>
<path d="M20275 4609 c-240 -191 -924 -297 -1154 -180 -22 12 -56 36 -75 55
l-34 34 -118 -79 c-127 -84 -151 -114 -139 -170 4 -16 20 -40 37 -54 l30 -25
728 0 729 0 28 24 28 24 3 206 c2 113 0 206 -5 205 -4 0 -30 -18 -58 -40z"/>
<path d="M22992 4444 l3 -206 28 -24 28 -24 729 0 728 0 31 26 c37 30 49 80
29 118 -8 15 -66 62 -132 106 l-119 78 -31 -32 c-92 -97 -293 -129 -583 -91
-296 39 -517 112 -651 215 -29 22 -55 40 -58 40 -3 0 -4 -93 -2 -206z"/>
</g>
</svg>
