<?xml version="1.0" standalone="no"?>
<!DOCTYPE svg PUBLIC "-//W3C//DTD SVG 20010904//EN"
 "http://www.w3.org/TR/2001/REC-SVG-20010904/DTD/svg10.dtd">
<svg version="1.0" xmlns="http://www.w3.org/2000/svg"
 width="8000.000000pt" height="2886.000000pt" viewBox="0 0 8000.000000 2886.000000"
 preserveAspectRatio="xMidYMid meet">

<g transform="translate(0.000000,2886.000000) scale(0.100000,-0.100000)"
fill="#000000" stroke="none">
<path d="M17100 27074 c-638 -57 -1186 -282 -1649 -680 -920 -789 -1245 -2082
-804 -3204 425 -1080 1439 -1790 2593 -1815 717 -15 1384 227 1932 702 808
701 1153 1818 884 2864 -99 386 -278 745 -528 1062 -96 121 -328 355 -448 451
-223 178 -556 365 -820 459 -157 57 -374 110 -555 137 -135 20 -490 34 -605
24z m160 -774 l0 -370 35 0 35 0 0 370 0 370 43 0 c77 0 312 -29 418 -51 651
-134 1231 -540 1584 -1109 158 -255 280 -581 329 -880 20 -118 39 -337 31
-350 -4 -6 -141 -9 -355 -7 l-350 2 0 -37 0 -38 356 0 356 0 -6 -97 c-42 -615
-269 -1140 -678 -1568 -428 -448 -989 -705 -1635 -750 l-93 -6 0 355 0 356
-35 0 -35 0 0 -356 0 -356 -87 7 c-637 47 -1161 282 -1593 715 -202 201 -347
404 -470 655 -142 288 -221 596 -246 952 l-6 93 358 2 359 3 0 33 0 34 -355 1
-355 2 3 85 c16 459 196 951 493 1346 95 127 279 316 404 417 297 239 666 417
1020 490 136 29 314 52 428 55 l47 2 0 -370z"/>
<path d="M15942 25588 c-7 -7 -12 -17 -12 -23 0 -6 292 -306 649 -666 519
-524 650 -661 653 -685 2 -20 13 -35 35 -49 32 -19 40 -40 242 -650 133 -404
214 -633 225 -640 12 -7 19 -6 26 5 5 8 7 17 6 20 -2 3 -96 287 -210 631 -199
605 -205 628 -192 660 24 57 -8 109 -66 109 -17 0 -187 164 -673 650 -357 358
-655 650 -660 650 -6 0 -16 -5 -23 -12z"/>
<path d="M45556 20533 c-41 -126 -64 -209 -141 -508 -67 -259 -133 -463 -204
-632 -85 -202 -91 -235 -91 -532 0 -325 -10 -395 -95 -676 -36 -119 -42 -241
-21 -465 8 -96 17 -232 18 -302 l3 -128 37 0 c33 0 37 3 43 33 13 60 75 216
145 363 83 172 125 288 133 364 4 30 23 111 42 180 46 162 51 200 75 540 11
157 29 416 40 575 33 477 61 722 116 1025 25 141 6 261 -43 268 -19 3 -25 -9
-57 -105z m70 83 c15 -15 19 -30 7 -23 -5 2 -16 -4 -25 -15 -10 -10 -14 -18
-9 -18 6 0 13 5 16 11 10 15 28 6 31 -17 1 -10 5 -34 9 -51 5 -21 4 -33 -3
-33 -5 0 -10 6 -9 13 0 6 -1 23 -3 37 -2 21 -4 20 -9 -10 -8 -42 -3 -63 14
-56 10 3 10 -4 3 -32 -5 -20 -9 -50 -9 -65 1 -16 -2 -26 -6 -24 -5 3 -15 -2
-23 -11 -13 -14 -12 -15 3 -9 13 5 17 1 17 -14 0 -15 -4 -19 -16 -15 -11 4
-15 2 -11 -6 11 -32 18 -62 10 -51 -4 6 -9 -23 -10 -65 -1 -43 -7 -78 -13 -80
-5 -2 -7 -14 -4 -27 3 -13 1 -32 -6 -42 -10 -15 -10 -13 -6 15 3 17 1 32 -4
32 -5 0 -10 -17 -12 -37 -4 -48 -22 -50 -25 -3 l-1 35 8 -30 8 -30 1 27 c1 17
-6 31 -16 37 -16 8 -18 4 -14 -46 2 -37 6 -51 12 -42 7 11 9 11 9 -3 0 -10 -4
-18 -10 -18 -16 0 -12 -47 5 -54 8 -3 15 -1 15 4 0 6 5 10 10 10 6 0 10 -7 10
-15 0 -8 -4 -15 -10 -15 -5 0 -10 -10 -9 -22 0 -22 1 -22 9 -3 7 16 9 17 9 3
1 -9 -6 -24 -15 -33 -14 -13 -19 -14 -25 -3 -6 9 -9 4 -9 -14 0 -16 5 -28 10
-28 5 0 9 3 8 8 -2 4 1 7 7 7 15 0 14 -64 -2 -77 -11 -8 -12 -7 -7 5 3 9 1 24
-5 34 -9 14 -10 10 -7 -22 2 -21 9 -41 15 -43 6 -2 11 -8 11 -13 0 -4 -8 -6
-17 -2 -14 5 -15 3 -6 -7 7 -8 8 -22 2 -43 -11 -39 -12 -60 -1 -53 4 2 6 -19
4 -47 -1 -29 -5 -95 -7 -147 -10 -260 -22 -359 -44 -346 -5 4 -12 0 -14 -6 -3
-7 -6 -2 -6 11 -1 13 2 21 6 18 6 -7 32 21 33 36 0 13 -30 8 -31 -5 0 -10 -2
-10 -6 0 -11 28 -18 8 -17 -51 1 -89 2 -93 16 -79 8 8 8 15 -2 27 -7 8 -9 15
-5 15 13 0 45 -32 45 -44 0 -6 -5 -4 -11 4 -9 12 -10 11 -6 -7 4 -17 0 -23
-11 -23 -15 -1 -14 -3 2 -15 19 -14 19 -15 -6 -15 -27 0 -28 -2 -16 -85 1 -6
-2 -24 -5 -40 -7 -28 -6 -29 8 -11 15 19 15 19 15 -1 0 -11 -6 -23 -14 -26
-11 -4 -15 -22 -14 -59 0 -37 3 -47 9 -33 7 19 8 19 8 -2 1 -12 -4 -24 -9 -26
-6 -3 -5 -4 2 -3 7 1 16 16 19 32 l7 29 1 -32 c0 -17 -3 -34 -8 -37 -5 -3 -7
-16 -5 -29 4 -20 4 -20 -5 -2 -9 19 -9 19 -16 1 -6 -13 -3 -21 8 -28 19 -10
23 -53 6 -63 -6 -4 -8 -13 -5 -21 3 -7 1 -16 -4 -19 -7 -4 -6 -13 0 -26 8 -13
7 -25 0 -39 -6 -10 -9 -23 -8 -27 4 -16 -13 -83 -21 -79 -4 3 -8 -9 -8 -25 0
-17 -6 -34 -13 -39 -8 -5 -10 -15 -6 -26 6 -15 5 -17 -6 -6 -10 10 -9 18 7 45
16 27 16 30 2 18 -9 -7 -17 -11 -17 -7 0 10 24 50 34 57 5 4 -6 6 -23 5 -18 0
-31 -6 -31 -13 0 -7 5 -13 10 -13 6 0 10 5 10 12 0 6 3 8 6 5 4 -4 -1 -18 -10
-31 -18 -29 -21 -40 -6 -31 13 8 13 3 0 -30 -5 -14 -6 -24 -1 -21 13 9 23 -25
11 -39 -6 -7 -7 -21 -3 -30 4 -13 3 -16 -6 -11 -9 6 -11 -6 -7 -46 3 -36 -2
-67 -14 -98 -54 -136 -74 -181 -82 -186 -4 -3 -8 -14 -8 -25 0 -11 -4 -17 -10
-14 -5 3 -10 -3 -10 -15 0 -12 -4 -18 -10 -15 -5 3 -10 4 -10 1 0 -2 -3 -12
-7 -22 -4 -12 -3 -15 5 -10 13 8 13 8 -32 -89 -15 -33 -33 -63 -38 -66 -6 -4
-7 -13 -3 -20 6 -9 3 -11 -8 -6 -10 3 -17 2 -17 -3 0 -6 5 -10 11 -10 8 0 7
-5 -1 -15 -7 -9 -10 -18 -7 -21 3 -3 -2 -22 -10 -42 -8 -20 -17 -48 -20 -62
-5 -29 -14 -40 -20 -23 -2 7 -11 9 -20 6 -13 -5 -14 4 -11 55 1 33 0 58 -5 55
-4 -2 -7 42 -7 99 0 57 -2 118 -5 135 -16 111 -14 263 4 235 3 -6 6 14 6 43 0
29 -3 51 -7 48 -5 -2 -8 5 -8 17 0 14 -4 19 -12 14 -8 -5 -9 -2 -4 12 4 10 9
38 11 61 2 24 7 48 11 55 4 7 9 26 11 42 2 17 12 49 23 71 11 23 20 49 20 58
0 9 4 17 9 17 11 0 -7 -72 -21 -81 -14 -9 20 -32 37 -25 8 3 15 16 14 28 -1
21 -1 21 -7 3 -4 -11 -13 -21 -21 -23 -9 -2 -11 3 -7 14 3 9 9 27 12 41 4 15
9 20 14 14 4 -7 7 4 7 23 0 22 -5 32 -12 30 -6 -3 -12 2 -12 10 0 8 6 12 16 9
13 -5 14 -3 4 8 -7 7 -13 20 -13 28 0 14 2 14 11 1 8 -12 9 -8 5 15 -3 17 -1
57 4 90 5 33 12 81 15 108 4 31 11 47 21 47 8 0 14 8 14 18 0 15 -2 15 -10 2
-8 -11 -9 -7 -4 14 5 21 4 27 -5 22 -7 -5 -11 1 -11 15 0 18 2 19 15 9 12 -10
15 -9 15 8 0 11 -7 22 -15 26 -15 5 -14 51 3 126 l9 35 7 -42 c11 -59 21 -60
23 -5 2 36 0 42 -7 27 -12 -26 -10 140 2 175 7 18 5 27 -6 35 -13 10 -13 14 2
30 9 10 11 15 5 11 -7 -4 -13 -6 -13 -4 0 2 -4 18 -9 35 -7 22 -6 35 1 39 7 4
8 2 4 -4 -4 -7 -3 -12 3 -12 6 0 8 -6 5 -14 -3 -8 -1 -17 4 -20 13 -8 6 44 -7
57 -17 17 -13 27 7 20 15 -6 16 -5 2 12 -12 15 -12 17 -1 10 11 -6 13 -4 8 7
-3 9 2 26 11 39 9 13 16 26 14 29 -3 9 9 40 16 40 4 0 8 10 8 23 2 31 56 145
62 129 7 -23 27 -12 38 23 8 24 8 38 1 42 -6 3 -7 1 -3 -5 3 -6 0 -17 -8 -25
-8 -8 -12 -18 -8 -21 3 -4 -1 -4 -11 0 -19 7 -19 7 -11 29 6 13 9 14 16 3 6
-8 7 -1 3 22 -5 27 -4 32 5 20 9 -12 10 -10 6 12 -4 16 -1 30 6 34 8 5 9 2 4
-12 -6 -15 -5 -16 5 -7 8 9 9 16 2 25 -6 8 -7 21 -2 33 4 11 8 16 8 12 1 -5 6
-5 12 -1 8 5 8 9 -1 14 -8 5 -9 16 -5 30 5 17 9 19 16 9 6 -11 9 -10 15 5 4
10 2 21 -5 25 -6 4 -9 15 -5 24 3 9 10 14 15 11 5 -3 9 2 9 11 0 9 -4 14 -9
11 -4 -3 -6 6 -3 19 3 16 10 24 20 23 20 -4 29 32 10 43 -8 6 -9 12 -3 17 6 4
10 18 10 32 0 14 5 40 12 58 7 18 16 57 20 85 6 48 8 50 14 22 7 -28 8 -27 7
10 0 22 1 42 2 45 1 3 3 16 4 28 2 13 7 27 12 30 5 4 11 23 12 42 3 53 5 60
14 54 15 -9 64 -15 50 -6 -10 7 -10 15 -2 37 6 15 8 30 6 33 -5 4 -10 -6 -22
-45 -4 -14 -34 -6 -34 8 0 4 7 6 15 3 8 -4 15 -1 15 5 0 6 -4 11 -10 11 -5 0
-10 5 -10 11 0 6 7 9 15 6 8 -4 17 -2 20 4 4 5 -1 12 -9 15 -9 3 -13 10 -10
15 3 5 10 7 15 4 5 -4 9 -2 9 4 0 5 -6 12 -12 14 -8 4 -4 8 9 12 19 6 21 10
11 28 -8 16 -7 23 8 34 13 10 14 13 3 14 -10 0 -10 2 -1 6 6 2 10 9 6 14 -8
14 6 11 22 -5z m-60 -645 c-4 -5 -1 -11 6 -13 7 -3 8 -10 4 -17 -7 -11 -10
-11 -17 0 -7 11 -9 10 -9 -4 0 -10 -4 -16 -9 -13 -10 7 9 56 22 56 5 0 6 -4 3
-9z m-136 -27 c0 -8 -4 -12 -10 -9 -5 3 -10 10 -10 16 0 5 5 9 10 9 6 0 10 -7
10 -16z m-269 -782 c-6 -11 -7 -22 -4 -26 3 -3 1 -6 -5 -6 -7 0 -12 5 -12 11
0 15 21 52 27 46 2 -3 0 -14 -6 -25z m29 -42 c0 -5 -4 -10 -10 -10 -5 0 -11
-21 -11 -47 -1 -27 -4 -38 -6 -25 -2 12 -9 22 -14 22 -5 0 -8 -34 -5 -80 2
-44 0 -83 -5 -86 -5 -3 -9 43 -9 102 0 59 3 104 7 101 3 -4 12 2 20 13 15 21
33 27 33 10z m310 -104 c0 -3 -4 -8 -10 -11 -5 -3 -10 -1 -10 4 0 6 5 11 10
11 6 0 10 -2 10 -4z m-333 -48 c-3 -7 -5 -2 -5 12 0 14 2 19 5 13 2 -7 2 -19
0 -25z m313 -88 c0 -5 -5 -10 -11 -10 -5 0 -7 5 -4 10 3 6 8 10 11 10 2 0 4
-4 4 -10z m11 -56 c-2 -31 -6 -42 -12 -33 -4 8 -6 24 -2 36 3 15 1 23 -8 24
-8 0 -5 4 6 9 11 5 20 9 20 9 0 1 -2 -20 -4 -45z m-4 -76 c-3 -8 -6 -5 -6 6
-1 11 2 17 5 13 3 -3 4 -12 1 -19z m-17 -61 c0 -5 -4 -5 -10 -2 -5 3 -10 14
-10 23 0 15 2 15 10 2 5 -8 10 -19 10 -23z m-460 -787 c-7 -29 -8 -23 -8 35 0
58 1 64 8 35 5 -19 5 -51 0 -70z"/>
<path d="M45618 20556 c-10 -7 -15 -16 -11 -20 4 -4 3 -10 -3 -14 -20 -13 -25
-48 -9 -62 12 -10 13 -16 3 -27 -8 -10 -9 -16 -1 -21 6 -4 9 -21 7 -39 -3 -25
0 -31 11 -27 18 7 19 20 3 30 -8 5 -6 11 7 20 15 11 16 16 4 43 -8 17 -20 31
-28 31 -9 0 -10 4 -3 13 9 11 44 87 39 87 -1 0 -10 -7 -19 -14z m12 -136 c0
-5 -2 -10 -4 -10 -3 0 -8 5 -11 10 -3 6 -1 10 4 10 6 0 11 -4 11 -10z"/>
<path d="M45507 20283 c-3 -5 -5 -35 -5 -68 0 -91 0 -89 -17 -75 -16 13 -18 6
-6 -25 7 -19 9 -18 22 5 7 14 14 57 14 98 1 71 0 79 -8 65z"/>
<path d="M45410 19898 c0 -4 4 -8 8 -8 4 0 8 -9 8 -20 0 -19 -9 -25 -31 -20
-16 2 8 -18 24 -22 10 -2 15 9 17 38 2 30 -1 41 -11 41 -8 0 -15 -4 -15 -9z"/>
<path d="M45520 19871 c0 -5 5 -13 10 -16 6 -3 10 -2 10 4 0 5 -4 13 -10 16
-5 3 -10 2 -10 -4z"/>
<path d="M45412 19790 c0 -14 2 -19 5 -12 2 6 2 18 0 25 -3 6 -5 1 -5 -13z"/>
<path d="M45291 19526 c-7 -8 -8 -17 -3 -20 6 -3 12 3 15 14 6 24 4 25 -12 6z"/>
<path d="M45320 19510 c0 -5 5 -10 11 -10 5 0 7 5 4 10 -3 6 -8 10 -11 10 -2
0 -4 -4 -4 -10z"/>
<path d="M45259 19454 c-5 -15 -7 -29 -4 -32 3 -3 -1 -15 -9 -28 -14 -20 -13
-24 4 -39 11 -10 21 -16 21 -14 5 16 5 49 0 49 -4 0 -7 9 -7 20 0 11 3 20 6
20 3 0 5 11 5 25 0 32 -3 31 -16 -1z"/>
<path d="M45441 18924 c0 -11 3 -14 6 -6 3 7 2 16 -1 19 -3 4 -6 -2 -5 -13z"/>
<path d="M45161 18874 c0 -11 3 -14 6 -6 3 7 2 16 -1 19 -3 4 -6 -2 -5 -13z"/>
<path d="M45161 18804 c0 -11 3 -14 6 -6 3 7 2 16 -1 19 -3 4 -6 -2 -5 -13z"/>
<path d="M45180 18728 c0 -35 -1 -72 -2 -83 -3 -35 2 -108 7 -103 12 12 17
235 6 242 -8 5 -11 -12 -11 -56z"/>
<path d="M45147 18630 c-8 -29 -8 -102 0 -81 5 11 7 11 14 0 10 -17 10 30 0
76 l-7 30 -7 -25z"/>
<path d="M45442 18513 c-1 -22 0 -24 8 -13 12 18 13 40 2 40 -4 0 -9 -12 -10
-27z"/>
<path d="M45031 18074 c0 -11 3 -14 6 -6 3 7 2 16 -1 19 -3 4 -6 -2 -5 -13z"/>
<path d="M45315 17970 c-3 -5 1 -10 9 -10 9 0 16 5 16 10 0 6 -4 10 -9 10 -6
0 -13 -4 -16 -10z"/>
<path d="M45321 17934 c0 -11 3 -14 6 -6 3 7 2 16 -1 19 -3 4 -6 -2 -5 -13z"/>
<path d="M45284 17869 c-1 -21 3 -36 7 -34 4 3 5 14 2 25 -4 14 -1 20 8 18 8
-2 14 3 14 11 0 8 -7 15 -15 16 -12 2 -16 -7 -16 -36z"/>
<path d="M45026 17743 c-6 -14 -5 -15 5 -6 7 7 10 15 7 18 -3 3 -9 -2 -12 -12z"/>
<path d="M45226 17744 c-3 -9 -11 -12 -18 -8 -10 5 -10 4 -1 -6 9 -10 15 -10
27 3 9 9 12 18 7 21 -5 3 -12 -1 -15 -10z"/>
<path d="M45170 17630 c0 -5 5 -10 10 -10 6 0 10 5 10 10 0 6 -4 10 -10 10 -5
0 -10 -4 -10 -10z"/>
<path d="M45152 17584 c-7 -8 -17 -12 -22 -9 -6 3 -7 -1 -3 -10 5 -14 8 -14
15 -3 7 9 8 8 5 -7 -2 -11 -8 -19 -13 -18 -5 1 -10 -7 -10 -18 0 -18 1 -18 18
-2 9 10 20 33 23 51 6 36 5 37 -13 16z"/>
<path d="M45058 17333 c6 -2 18 -2 25 0 6 3 1 5 -13 5 -14 0 -19 -2 -12 -5z"/>
<path d="M43742 20060 c9 -190 65 -326 195 -471 106 -118 120 -156 133 -365
20 -315 87 -514 269 -799 104 -162 153 -252 186 -338 23 -62 32 -105 66 -316
11 -70 14 -77 69 -136 32 -34 69 -80 84 -101 27 -42 56 -146 56 -206 l0 -38
79 0 c78 0 78 0 74 25 -5 21 -9 23 -34 18 -25 -5 -29 -3 -23 13 5 15 4 16 -4
5 -15 -22 -50 -24 -55 -3 -4 14 -5 14 -6 -3 -3 -34 -31 56 -32 102 -1 24 -5
40 -10 37 -5 -3 -9 -1 -9 5 0 5 6 12 13 14 7 3 5 6 -5 6 -10 1 -18 6 -18 12 0
5 4 8 9 5 5 -3 11 1 14 9 4 9 1 12 -9 8 -9 -3 -14 1 -14 12 0 10 5 13 12 9 7
-4 8 -3 4 5 -9 14 -26 5 -26 -15 0 -8 -5 -12 -11 -9 -6 4 -8 14 -5 22 3 8 2
12 -3 9 -4 -3 -19 6 -31 19 -21 22 -20 29 0 27 3 0 6 7 7 17 1 14 -5 17 -30
16 -18 -2 -37 1 -42 6 -7 5 -10 48 -7 114 2 74 0 105 -7 100 -6 -3 -11 1 -11
10 0 9 4 14 9 11 5 -4 12 12 16 35 8 49 0 64 -10 18 -4 -19 -12 -41 -19 -51
-8 -13 -7 -21 2 -30 6 -6 12 -23 12 -37 0 -21 -2 -23 -11 -11 -8 11 -9 6 -4
-20 10 -48 14 -113 7 -106 -3 3 -7 18 -8 33 -2 16 -8 51 -14 78 -6 28 -8 61
-5 73 3 13 2 21 -3 18 -5 -3 -8 13 -7 35 1 23 9 45 16 50 9 6 10 9 2 9 -7 0
-17 -8 -23 -17 -10 -16 -11 -16 -6 -1 3 9 -2 31 -10 47 -9 17 -13 35 -9 41 3
5 1 10 -5 10 -7 0 -9 8 -5 21 5 14 4 19 -4 15 -7 -5 -9 -1 -5 8 3 9 9 14 13
12 3 -2 7 14 9 36 1 24 -1 37 -7 34 -5 -4 -14 2 -20 11 -10 17 -10 17 -11 -1
0 -10 8 -25 18 -32 16 -13 16 -13 0 -14 -10 0 -18 5 -18 11 0 5 -5 7 -11 3 -8
-4 -9 1 -4 17 5 19 4 21 -4 9 -9 -13 -11 -13 -11 3 0 9 -4 17 -9 17 -6 0 -8 9
-6 20 2 11 -1 23 -7 26 -7 5 -8 2 -3 -6 5 -8 4 -11 -3 -6 -6 4 -9 13 -6 21 4
8 9 13 13 11 4 -3 7 4 7 14 0 10 -4 16 -8 14 -4 -3 -8 0 -8 6 0 6 -5 8 -10 5
-8 -5 -8 -11 0 -20 8 -10 8 -15 -1 -21 -7 -4 -9 -3 -6 3 4 6 -1 14 -10 17 -15
6 -14 8 2 20 10 7 15 18 11 24 -3 6 -2 14 4 17 6 4 10 3 9 -2 -3 -18 1 -36 8
-29 17 16 9 42 -13 42 -13 0 -21 -2 -19 -5 3 -2 -3 -10 -13 -18 -9 -8 -11 -11
-3 -7 10 5 12 3 6 -6 -6 -10 -12 -7 -26 11 -21 27 -26 50 -7 31 7 -7 16 -12
22 -12 5 0 -5 11 -22 24 -28 20 -30 25 -17 36 13 11 14 10 9 -4 -3 -9 -2 -16
3 -16 5 0 9 9 10 21 1 14 -3 19 -13 15 -8 -3 -14 -1 -14 4 0 6 -5 10 -11 10
-5 0 -8 -4 -4 -9 3 -5 1 -12 -5 -16 -10 -6 -14 7 -11 31 1 7 -6 14 -14 18 -9
3 -13 11 -9 17 4 8 3 9 -4 5 -7 -4 -14 3 -18 18 -3 14 -12 30 -20 37 -19 16
-19 53 1 45 8 -3 15 -1 15 4 0 14 -37 13 -42 -1 -2 -6 -12 6 -21 27 -14 28
-15 34 -4 26 12 -10 14 -2 14 55 0 38 -3 59 -7 48 -4 -11 -6 -34 -5 -52 4 -51
-33 -21 -39 32 -1 6 -5 14 -11 18 -5 4 2 5 18 1 17 -4 27 -2 27 5 0 6 -3 10
-7 10 -34 -5 -51 3 -56 29 -3 15 -9 36 -13 46 -4 11 -3 17 2 14 5 -4 9 4 9 17
0 13 -3 21 -8 18 -8 -5 -41 66 -33 74 8 8 27 -7 25 -20 -3 -23 1 -38 9 -33 4
2 8 26 7 53 0 34 -4 48 -14 48 -8 0 -16 6 -19 14 -3 8 0 11 7 7 13 -8 13 1 1
29 -7 16 -9 17 -9 3 -1 -9 -6 -20 -12 -24 -8 -5 -10 1 -7 19 3 15 1 24 -4 21
-6 -4 -9 21 -8 57 1 35 -2 104 -8 154 -5 49 -7 96 -4 104 4 10 1 12 -9 7 -8
-4 -5 0 6 9 12 10 20 28 20 48 0 18 4 33 8 35 17 5 19 1 6 -15 -12 -15 -12
-16 5 -10 17 7 17 6 5 -10 -12 -15 -12 -16 4 -10 22 8 22 0 -1 -21 -10 -10
-12 -13 -5 -8 8 5 13 4 13 -3 0 -6 5 -11 11 -11 5 0 8 4 4 9 -3 5 0 13 6 17 8
4 9 3 5 -4 -4 -7 -3 -12 2 -12 6 0 9 -22 9 -49 -2 -49 16 -85 27 -55 3 8 2 13
-2 10 -4 -3 -8 11 -8 31 l0 36 15 -33 c14 -29 14 -35 -2 -63 -17 -32 -17 -32
2 -9 22 25 36 29 27 7 -3 -9 1 -18 9 -21 8 -4 13 -10 10 -14 -3 -5 -1 -11 5
-15 15 -9 12 -27 -2 -20 -7 4 -5 0 6 -9 20 -17 15 -53 -6 -40 -8 5 -8 1 1 -10
8 -10 14 -34 13 -55 -2 -26 3 -43 15 -52 15 -13 16 -12 9 6 -5 11 -9 27 -11
35 -1 8 0 9 2 2 3 -7 9 -10 14 -6 5 3 9 2 7 -3 -1 -4 4 -28 12 -53 7 -25 13
-53 12 -62 0 -10 4 -18 10 -18 6 0 8 -3 5 -7 -4 -3 -2 -12 5 -20 9 -11 7 -12
-8 -7 -16 5 -16 4 -4 -5 13 -10 13 -12 0 -21 -8 -5 -10 -10 -4 -10 5 0 15 5
22 12 16 16 15 -3 -2 -25 -10 -12 -15 -14 -18 -6 -2 7 -4 -12 -4 -42 0 -54 1
-55 27 -55 23 0 26 2 18 17 -5 11 -5 26 0 41 9 21 10 21 10 -10 1 -22 5 -31
13 -26 6 4 8 3 5 -3 -4 -6 0 -16 8 -23 8 -7 12 -17 8 -24 -13 -20 -10 -110 4
-124 11 -11 13 -11 13 0 0 8 3 9 8 3 9 -13 27 -13 39 -1 5 5 2 6 -6 1 -10 -5
-12 -4 -7 4 4 6 12 9 17 5 5 -3 7 -10 3 -15 -3 -5 5 -19 18 -30 23 -20 23 -20
1 -9 -21 10 -23 8 -23 -20 0 -16 5 -30 11 -30 6 0 8 9 4 23 -7 22 -7 22 10 2
9 -11 13 -14 9 -6 -4 9 -2 12 7 9 8 -3 13 -11 11 -17 -1 -7 2 -10 7 -7 5 3 16
-5 25 -18 8 -14 12 -26 8 -29 -4 -2 -1 -2 6 0 8 1 12 -3 9 -9 -2 -7 -9 -12
-15 -11 -5 1 -9 -5 -8 -15 2 -12 11 -17 32 -15 24 1 29 -3 30 -23 2 -28 -10
-31 -26 -6 -6 9 -10 11 -8 3 2 -8 14 -21 25 -28 20 -13 21 -13 19 11 -2 14 1
26 5 26 9 0 13 -15 10 -33 -1 -5 3 -6 9 -2 12 7 40 -12 40 -27 0 -6 -7 -5 -15
2 -12 10 -16 9 -21 -5 -6 -13 -9 -14 -16 -3 -8 10 -9 10 -5 -2 2 -8 10 -14 16
-12 18 4 32 -44 21 -74 -6 -14 -10 -45 -10 -68 0 -26 -6 -48 -14 -55 -23 -19
-14 -130 11 -150 15 -13 18 -25 15 -54 -3 -23 0 -37 7 -37 7 0 9 11 6 28 -4
21 -1 18 13 -12 10 -23 17 -57 16 -80 -2 -33 -1 -37 6 -18 5 12 11 22 14 22 7
0 -5 -72 -15 -91 -6 -11 -3 -16 8 -16 8 0 20 11 26 24 l11 24 14 -33 c8 -18
14 -40 13 -50 -1 -9 3 -19 10 -23 8 -5 9 -1 4 14 -10 32 2 25 13 -8 9 -26 8
-29 -7 -26 -20 4 -27 -37 -10 -63 8 -14 9 -11 4 11 -3 17 -2 26 4 23 5 -3 12
0 14 6 9 21 28 -13 21 -37 -4 -14 -3 -16 4 -7 11 17 34 -62 25 -86 -4 -10 -2
-13 5 -8 12 7 17 -21 14 -74 -1 -17 1 -21 7 -12 11 17 23 -40 14 -65 -5 -14
-3 -15 6 -7 10 9 10 25 1 70 -23 118 -43 173 -130 354 -49 102 -96 212 -105
245 -17 67 -19 179 -4 243 7 35 6 50 -6 74 -19 39 -19 44 0 28 8 -7 15 -20 16
-29 0 -10 3 -8 10 7 8 20 0 34 -64 105 -165 186 -242 337 -332 648 -25 90 -61
196 -79 235 -41 89 -135 236 -146 229 -5 -3 -12 0 -16 6 -4 8 -3 9 4 5 18 -11
15 -2 -18 54 -16 28 -68 129 -114 226 -79 163 -150 280 -191 314 -17 14 -17 8
-13 -100z m36 38 c-22 -13 -28 -9 -26 17 2 23 3 23 20 8 14 -13 16 -18 6 -25z
m26 -23 c11 -8 19 -28 20 -45 1 -27 4 -31 22 -29 11 1 45 -62 39 -72 -4 -5 -1
-9 4 -9 6 0 18 -16 26 -36 19 -46 19 -53 0 -28 -8 10 -14 15 -14 9 0 -5 6 -19
14 -29 8 -10 12 -23 8 -29 -3 -6 -1 -7 6 -3 6 4 8 12 5 18 -4 7 -2 8 4 4 6 -4
8 -14 5 -23 -4 -10 -2 -14 4 -10 6 4 16 -11 23 -34 8 -22 17 -42 21 -45 5 -3
16 -22 26 -42 9 -20 25 -49 34 -63 11 -15 16 -37 14 -52 -4 -22 -2 -24 17 -19
l22 5 -23 -32 c-13 -18 -20 -35 -17 -38 3 -4 6 -1 6 6 0 7 5 9 10 6 6 -3 10
-11 10 -17 0 -6 -3 -8 -7 -5 -3 4 -12 -1 -20 -11 -12 -16 -13 -16 -6 2 4 12 3
17 -4 13 -5 -4 -15 6 -22 21 -11 25 -10 26 4 8 12 -16 15 -17 15 -4 0 17 -24
41 -32 33 -2 -3 -15 7 -29 22 -13 14 -18 23 -11 19 12 -7 17 10 13 42 -2 11 2
11 19 2 12 -6 25 -8 28 -4 4 4 1 9 -5 11 -7 3 -13 14 -13 26 0 17 -2 19 -9 8
-5 -7 -13 -11 -19 -7 -6 3 -14 1 -18 -5 -5 -8 -3 -9 6 -4 10 6 11 4 6 -11 -5
-10 -9 -25 -9 -31 -1 -22 -11 -15 -56 36 -45 51 -114 160 -93 147 7 -4 12 -2
12 6 0 14 -20 48 -20 34 0 -5 -7 -3 -15 4 -9 7 -14 19 -11 26 3 7 -1 26 -9 41
-17 32 -20 57 -5 48 6 -3 7 1 4 9 -3 9 -10 13 -15 10 -13 -7 -11 23 2 48 9 17
9 20 -3 16 -17 -7 -23 39 -7 58 14 17 19 17 43 -1z m473 -907 c-3 -8 -6 -5 -6
6 -1 11 2 17 5 13 3 -3 4 -12 1 -19z m-136 -153 c3 2 5 -5 5 -15 0 -11 -4 -20
-8 -20 -4 0 -8 5 -8 11 0 5 -4 8 -9 5 -5 -3 -12 1 -15 10 -11 29 -6 37 12 21
10 -10 21 -15 23 -12z m229 -135 c0 -5 -5 -10 -11 -10 -5 0 -7 -4 -4 -10 3 -5
-1 -22 -9 -37 l-15 -28 3 30 c2 17 7 38 11 48 8 18 25 23 25 7z m56 -139 c-3
-5 1 -14 9 -21 8 -7 13 -16 10 -20 -3 -4 2 -13 10 -20 7 -6 11 -18 8 -26 -8
-21 -25 -17 -18 5 3 11 1 22 -4 26 -6 3 -8 0 -5 -8 3 -8 1 -18 -4 -21 -5 -3
-12 3 -15 13 -3 12 1 22 10 26 14 5 14 8 -1 23 -19 21 -20 32 -5 32 5 0 8 -4
5 -9z m184 -279 c0 -4 -9 -8 -19 -8 -15 0 -17 3 -9 13 10 12 28 9 28 -5z m-70
-323 c0 -15 -18 -19 -23 -6 -3 8 1 14 9 14 8 0 14 -4 14 -8z m117 -21 c-3 -8
-6 -5 -6 6 -1 11 2 17 5 13 3 -3 4 -12 1 -19z m19 -112 c-2 -6 -5 -3 -5 7 -1
9 -5 17 -9 17 -5 0 -6 15 -3 33 l5 32 8 -39 c5 -22 6 -44 4 -50z m94 -197 c0
-6 -4 -7 -10 -4 -5 3 -10 11 -10 16 0 6 5 7 10 4 6 -3 10 -11 10 -16z m-19
-46 c-12 -20 -14 -14 -5 12 4 9 9 14 11 11 3 -2 0 -13 -6 -23z m-56 -122 c3
-5 1 -12 -4 -15 -5 -3 -11 1 -15 9 -6 16 9 21 19 6z m228 -328 c-7 -2 -21 -2
-30 0 -10 3 -4 5 12 5 17 0 24 -2 18 -5z"/>
<path d="M43773 20065 c-3 -9 -3 -18 -1 -21 3 -3 8 4 11 16 6 23 -1 27 -10 5z"/>
<path d="M43802 20040 c0 -14 2 -19 5 -12 2 6 2 18 0 25 -3 6 -5 1 -5 -13z"/>
<path d="M43844 19956 c3 -14 2 -28 -4 -31 -5 -3 -10 -11 -10 -18 0 -6 7 -2
15 9 14 18 15 17 9 -11 -4 -16 -11 -34 -17 -40 -7 -7 -8 -4 -3 9 5 16 4 17 -8
7 -13 -11 -14 -8 -9 23 6 39 -11 51 -22 16 -7 -21 10 -60 25 -60 6 0 10 -5 10
-11 0 -6 -7 -9 -14 -6 -10 4 -13 1 -9 -9 8 -22 53 22 53 53 0 13 4 23 8 23 4
0 8 9 8 19 0 11 -5 19 -11 18 -5 -1 -9 6 -9 16 1 9 -3 17 -8 17 -6 0 -7 -11
-4 -24z m-37 -58 c-3 -8 -6 -5 -6 6 -1 11 2 17 5 13 3 -3 4 -12 1 -19z"/>
<path d="M43885 19899 c-4 -6 -5 -12 -2 -15 2 -3 7 2 10 11 7 17 1 20 -8 4z"/>
<path d="M43923 19768 c7 -19 -25 -44 -43 -33 -5 3 -11 1 -15 -5 -8 -12 25
-13 45 -1 8 6 19 7 25 3 18 -11 35 -11 35 1 0 14 -20 46 -20 33 0 -5 -8 -2
-17 5 -15 12 -16 12 -10 -3z m34 -24 c-3 -3 -12 -4 -19 -1 -8 3 -5 6 6 6 11 1
17 -2 13 -5z"/>
<path d="M43900 19711 c-8 -6 -18 -7 -23 -4 -5 3 -4 -4 2 -16 14 -26 23 -26
44 -3 24 26 8 42 -23 23z m12 -23 c-6 -6 -15 -8 -19 -4 -4 4 -1 11 7 16 19 12
27 3 12 -12z"/>
<path d="M43962 19698 c-15 -15 -16 -28 -1 -28 5 0 7 5 4 10 -3 6 -2 10 4 10
5 0 11 -6 14 -12 2 -7 8 -10 13 -5 4 4 1 14 -7 22 -12 12 -17 13 -27 3z"/>
<path d="M43930 19667 c0 -10 -4 -15 -10 -12 -16 10 -12 0 10 -25 11 -13 20
-19 20 -14 0 5 5 2 10 -6 6 -9 10 -10 10 -3 0 6 -5 15 -10 18 -8 5 -7 12 2 23
8 10 9 13 1 9 -7 -4 -16 0 -22 10 -10 17 -10 17 -11 0z"/>
<path d="M44014 19571 c5 -31 5 -32 -12 -20 -15 13 -16 12 -3 -3 7 -10 17 -15
22 -12 5 3 18 -5 28 -17 15 -19 19 -20 24 -6 4 11 2 14 -9 10 -8 -3 -15 1 -15
8 -1 8 -2 21 -3 29 0 8 4 19 9 23 6 5 3 7 -6 4 -9 -3 -22 0 -29 6 -10 10 -11
5 -6 -22z m26 -12 c0 -6 -4 -7 -10 -4 -5 3 -10 11 -10 16 0 6 5 7 10 4 6 -3
10 -11 10 -16z"/>
<path d="M10620 19954 c-93 -25 -170 -88 -218 -179 l-27 -50 -3 -1197 -2
-1197 -48 -6 c-309 -40 -533 -136 -694 -297 -71 -71 -148 -185 -180 -268 l-23
-60 -104 0 c-118 0 -195 -17 -285 -62 -87 -44 -131 -81 -186 -160 -98 -139
-146 -334 -137 -558 6 -154 27 -240 78 -309 41 -57 57 -106 74 -227 8 -56 23
-125 34 -153 54 -142 212 -268 431 -342 80 -27 114 -33 218 -37 135 -5 203 5
287 44 85 38 84 33 17 118 -34 42 -77 104 -96 139 -37 67 -91 216 -102 284
l-6 41 -32 -19 c-43 -26 -136 -26 -193 2 -23 11 -63 43 -87 70 -155 172 -91
440 104 439 54 0 130 -26 144 -49 15 -24 57 -11 100 32 42 42 60 74 146 262
43 95 68 128 112 151 46 24 145 42 313 59 188 18 255 30 312 57 92 43 174 141
209 247 l17 53 41 -6 c22 -4 72 -18 109 -31 273 -95 456 -354 492 -698 l7 -68
31 3 c31 3 32 5 35 53 11 163 -90 618 -175 793 -98 201 -296 355 -563 438
l-90 28 0 1089 c0 1096 1 1117 34 1139 6 4 3902 8 8657 8 8363 0 8646 -1 8662
-18 16 -17 17 -389 17 -5150 0 -4649 -1 -5132 -16 -5146 -8 -9 -25 -18 -37
-21 -12 -3 -3603 -4 -7981 -3 l-7959 3 -53 180 c-30 99 -98 314 -151 478 -78
237 -101 297 -113 293 -8 -3 -80 -28 -160 -55 -231 -79 -468 -125 -815 -158
-222 -20 -842 -23 -1110 -5 -250 18 -649 57 -687 68 -18 5 -47 -76 -108 -307
-309 -1171 -302 -2572 20 -4039 42 -190 126 -530 133 -537 7 -7 434 -26 449
-20 10 3 15 23 17 64 3 107 30 737 36 838 3 55 10 201 16 325 6 124 11 225 12
226 1 1 85 -307 186 -684 102 -378 191 -709 199 -736 l14 -49 252 7 c1077 29
1822 138 2351 346 137 54 322 146 368 183 l28 22 -50 225 c-219 985 -481 2055
-672 2747 -21 79 -39 145 -39 148 0 3 3588 6 7973 7 l7972 3 56 28 c67 32 142
109 172 175 l22 47 3 5403 c2 5305 2 5405 -17 5447 -13 29 -34 53 -62 72 l-43
28 -8790 2 c-7718 1 -8798 0 -8846 -13z"/>
<path d="M44111 19244 c0 -11 3 -14 6 -6 3 7 2 16 -1 19 -3 4 -6 -2 -5 -13z"/>
<path d="M44142 19165 c0 -16 2 -22 5 -12 2 9 2 23 0 30 -3 6 -5 -1 -5 -18z"/>
<path d="M44102 19160 c0 -14 2 -19 5 -12 2 6 2 18 0 25 -3 6 -5 1 -5 -13z"/>
<path d="M44121 19143 c-1 -24 4 -43 9 -43 6 0 10 -8 11 -17 0 -15 2 -15 9 2
5 11 9 27 9 35 0 9 -4 7 -8 -5 -7 -16 -10 -12 -19 25 l-10 45 -1 -42z"/>
<path d="M44242 19134 c-1 -13 0 -24 2 -24 7 0 14 40 7 44 -4 3 -8 -6 -9 -20z"/>
<path d="M44243 19067 c2 -20 5 -39 8 -42 4 -3 5 11 3 31 -1 20 -5 38 -8 41
-3 3 -4 -11 -3 -30z"/>
<path d="M36699 18766 c-2 -2 -3 -603 -1 -1335 l2 -1331 335 0 c322 0 336 -1
355 -20 18 -18 23 -18 22 0 0 3 164 5 364 5 200 0 359 -2 354 -3 -6 -2 -7 -8
-4 -13 4 -6 11 -6 19 1 15 13 1455 21 1455 8 0 -3 -8 -9 -17 -11 -14 -4 -13
-5 4 -6 12 0 23 4 25 10 6 18 898 19 898 1 0 -10 4 -9 16 2 14 14 150 16 1351
16 1267 0 1335 -1 1329 -17 -5 -15 -4 -15 9 1 13 17 15 18 15 3 0 -9 4 -17 10
-17 5 0 7 7 4 15 -8 20 6 19 22 -2 10 -13 12 -13 9 -3 -5 13 78 15 709 15 567
0 712 -3 709 -12 -6 -15 13 -17 22 -3 3 6 25 9 48 8 l42 -1 -45 -7 c-25 -4
154 -8 397 -8 329 0 440 3 437 12 -3 8 91 11 365 11 203 0 367 -2 364 -5 -2
-3 -149 -8 -326 -11 l-322 -6 325 1 325 1 0 -127 0 -128 -5413 0 -5413 0 2
138 1 137 211 -5 212 -5 -205 -5 -205 -5 -1 -125 0 -125 3 123 4 122 207 2
c114 0 214 1 222 0 8 0 18 6 23 13 6 11 63 14 302 15 278 0 294 0 289 -17 -5
-17 -5 -17 6 0 11 18 90 25 90 8 0 -4 -11 -6 -24 -4 -13 3 -32 0 -42 -5 -14
-8 -6 -10 31 -7 28 1 59 6 69 10 15 7 17 5 11 -6 -6 -11 -5 -12 6 -1 17 16
569 18 569 1 0 -5 5 -7 10 -4 14 9 12 21 -2 23 -7 0 -416 4 -908 8 l-895 7 0
-151 0 -152 5428 0 5427 0 0 150 0 150 -407 0 c-225 0 -2243 0 -4485 0 l-4078
0 0 1335 0 1335 -333 0 c-184 0 -336 -2 -338 -4z m521 -746 l0 -520 -190 0
-190 0 0 520 0 520 190 0 190 0 0 -520z m8340 -1934 c0 -3 -4 -8 -10 -11 -5
-3 -10 -1 -10 4 0 6 5 11 10 11 6 0 10 -2 10 -4z m-47 -13 c-13 -2 -35 -2 -50
0 -16 2 -5 4 22 4 28 0 40 -2 28 -4z"/>
<path d="M44191 18745 c0 -5 6 -19 14 -29 8 -11 15 -15 15 -10 0 6 -7 19 -15
30 -8 10 -14 15 -14 9z"/>
<path d="M44270 18586 c0 -4 5 -12 10 -19 6 -7 16 -20 23 -30 11 -15 12 -14
12 12 0 16 -4 33 -8 37 -4 5 -5 0 -1 -11 7 -20 7 -20 -14 -1 -12 11 -22 16
-22 12z"/>
<path d="M46065 18550 c-38 -15 -66 -58 -101 -151 -45 -120 -99 -228 -161
-321 -26 -40 -52 -82 -56 -93 -5 -11 -13 -92 -17 -180 l-8 -160 -61 -175 c-34
-96 -61 -176 -61 -177 0 -2 32 -3 71 -3 52 0 70 3 66 13 -2 6 -15 11 -28 10
-22 -2 -22 -2 -4 6 12 5 25 5 33 -1 9 -8 17 1 32 34 14 33 21 77 25 164 8 152
20 200 104 393 38 86 81 202 95 257 19 68 44 129 82 196 67 118 87 171 71 187
-13 13 -53 13 -82 1z m65 -25 c-6 -7 -7 -20 -4 -29 5 -12 0 -19 -14 -23 -11
-3 -23 -11 -26 -18 -3 -10 1 -12 12 -9 15 5 15 4 0 -6 -10 -6 -18 -19 -18 -30
0 -22 -30 -78 -45 -84 -6 -2 -12 5 -12 15 -1 11 2 17 6 14 5 -2 14 2 21 10 11
13 8 15 -13 13 -14 -1 -23 -6 -21 -10 3 -4 -2 -8 -10 -8 -9 0 -16 -4 -16 -10
0 -5 5 -10 10 -10 6 0 10 -5 10 -11 0 -5 -5 -7 -11 -3 -7 4 -10 1 -7 -7 3 -8
14 -13 24 -12 10 1 13 0 6 -3 -6 -3 -9 -11 -6 -16 4 -6 2 -8 -3 -5 -6 4 -14 0
-17 -9 -3 -8 -2 -12 4 -9 6 3 10 4 10 2 0 -12 -31 -76 -39 -81 -11 -7 -9 33 3
52 4 8 2 10 -7 6 -15 -5 -32 36 -19 46 4 3 7 15 6 28 -1 12 3 22 8 22 6 0 8
-7 4 -15 -3 -8 -1 -15 5 -15 6 0 8 -9 4 -21 -6 -19 -5 -20 8 -8 10 9 12 18 6
25 -5 7 -9 16 -8 20 3 21 -2 35 -11 29 -6 -3 -7 1 -3 10 5 14 8 14 15 3 7 -9
8 -7 5 9 -3 13 -1 26 4 29 6 3 9 13 8 22 -1 10 0 20 1 25 1 4 3 10 4 15 1 4 7
17 14 30 11 18 16 20 32 12 16 -9 18 -13 8 -24 -7 -7 -19 -11 -27 -8 -9 3 -12
1 -7 -6 9 -15 51 -9 52 6 3 22 4 23 24 12 12 -6 20 -7 20 -1 0 5 -6 12 -12 15
-9 3 -8 8 5 16 9 6 14 16 11 22 -4 7 -2 8 5 4 9 -6 9 -11 1 -21z m-45 5 c11
-17 -5 -32 -21 -19 -7 6 -11 15 -8 20 7 12 21 11 29 -1z m-157 -280 c-7 -10
-14 -18 -15 -16 -6 6 9 36 18 36 5 0 4 -9 -3 -20z m25 -25 c4 -8 2 -17 -4 -21
-5 -3 -7 -14 -4 -24 3 -10 1 -21 -5 -25 -6 -3 -7 -11 -4 -17 4 -6 1 -9 -7 -6
-7 2 -15 19 -16 37 -2 19 1 30 7 26 6 -3 10 -1 10 4 0 17 -21 13 -36 -6 -7
-10 -14 -14 -14 -10 0 10 50 57 60 57 4 0 10 -7 13 -15z m-51 -64 c-9 -5 -7
-13 9 -29 22 -24 37 -17 52 22 4 10 10 16 13 13 3 -3 1 -15 -6 -26 -6 -12 -8
-27 -4 -33 4 -6 3 -8 -4 -5 -26 17 -39 -4 -38 -61 1 -52 -1 -57 -22 -60 -13
-2 -26 -10 -29 -18 -4 -11 -8 -10 -22 4 -9 10 -12 12 -8 5 5 -6 5 -18 1 -24
-5 -8 -3 -9 6 -4 9 6 10 1 6 -16 -6 -21 -5 -22 6 -9 7 8 20 16 28 18 11 3 10
-1 -4 -17 -10 -11 -15 -25 -11 -30 3 -6 1 -11 -4 -11 -6 0 -11 6 -12 13 0 6
-4 3 -9 -8 -13 -31 -11 -39 7 -24 15 12 16 12 8 -1 -4 -8 -15 -23 -23 -32 -7
-9 -11 -22 -7 -28 8 -13 -17 -9 -27 5 -4 6 -15 10 -25 10 -14 0 -19 11 -24 45
l-6 45 -1 -42 c-1 -23 3 -45 9 -48 6 -4 8 -14 5 -22 -3 -8 -1 -11 4 -8 17 11
40 -58 30 -91 l-8 -29 -1 28 c-1 29 -21 34 -29 6 -3 -11 -2 -11 7 1 9 12 11
11 11 -7 0 -12 -3 -24 -7 -26 -19 -11 -28 25 -31 113 -4 133 14 212 66 283 23
31 47 67 53 80 6 12 20 24 32 24 14 2 17 -1 9 -6z m58 -75 c0 -3 -4 -8 -10
-11 -5 -3 -10 -1 -10 4 0 6 5 11 10 11 6 0 10 -2 10 -4z m-10 -30 c0 -3 -4 -8
-10 -11 -5 -3 -10 -1 -10 4 0 6 5 11 10 11 6 0 10 -2 10 -4z m-40 -94 c0 -5
-7 -9 -15 -9 -8 0 -15 4 -15 9 0 4 7 8 15 8 8 0 15 -4 15 -8z m-107 -173 c3
-12 10 -18 16 -14 14 8 14 -5 1 -25 -8 -13 -10 -13 -10 1 0 9 -7 22 -15 29
-17 14 -20 30 -6 30 5 0 11 -9 14 -21z m-43 -139 c9 -6 17 -5 23 3 5 7 7 -6 4
-31 -6 -51 -13 -61 -30 -43 -9 11 -9 14 1 18 6 3 12 9 12 15 0 6 -9 3 -20 -7
-20 -18 -28 -41 -11 -31 5 3 11 -1 15 -9 5 -13 -6 -21 -17 -12 -6 3 -37 -25
-37 -33 0 -13 33 -5 38 8 4 14 22 6 22 -9 0 -6 -4 -7 -10 -4 -19 12 -10 -11
10 -25 20 -14 29 -78 13 -94 -4 -3 -8 -14 -9 -22 -5 -35 -13 -40 -58 -41 -33
-1 -46 3 -46 13 0 8 5 14 11 14 12 0 1 42 -14 51 -6 4 -5 13 3 25 10 16 11 16
6 2 -3 -10 0 -18 6 -18 6 0 8 11 5 29 -4 20 1 44 18 77 13 26 22 51 19 56 -3
4 0 8 5 8 6 0 11 6 11 14 0 8 6 17 13 20 10 5 10 7 0 12 -14 6 -18 24 -5 24 4
0 14 -4 22 -10z m17 -132 c-3 -8 -6 -5 -6 6 -1 11 2 17 5 13 3 -3 4 -12 1 -19z
m-117 -138 c0 -5 -4 -10 -10 -10 -5 0 -10 5 -10 10 0 6 5 10 10 10 6 0 10 -4
10 -10z m-14 -47 c-10 -10 -19 5 -10 18 6 11 8 11 12 0 2 -7 1 -15 -2 -18z
m17 -20 c-7 -2 -19 -2 -25 0 -7 3 -2 5 12 5 14 0 19 -2 13 -5z"/>
<path d="M45870 18134 c0 -8 5 -12 10 -9 6 3 10 10 10 16 0 5 -4 9 -10 9 -5 0
-10 -7 -10 -16z"/>
<path d="M45821 18063 c-31 -37 -38 -51 -30 -65 5 -10 15 -18 22 -17 9 0 9 2
0 6 -20 7 -15 22 6 18 13 -2 18 3 18 18 1 40 3 44 24 43 12 -1 24 6 27 14 5
13 3 13 -13 0 -17 -14 -18 -13 -13 8 4 12 5 22 3 22 -2 0 -21 -21 -44 -47z m4
-33 c3 -5 -1 -10 -10 -10 -9 0 -13 5 -10 10 3 6 8 10 10 10 2 0 7 -4 10 -10z"/>
<path d="M45763 17750 c-2 -19 8 -26 20 -14 7 7 -2 34 -12 34 -4 0 -7 -9 -8
-20z"/>
<path d="M45761 17434 c0 -11 3 -14 6 -6 3 7 2 16 -1 19 -3 4 -6 -2 -5 -13z"/>
<path d="M44560 18423 c0 -5 10 -18 23 -29 l22 -19 -20 25 c-11 14 -21 27 -22
29 -2 2 -3 0 -3 -6z"/>
<path d="M44650 18315 c5 -7 7 -15 3 -18 -3 -4 -7 -36 -8 -72 -3 -77 2 -81 10
-9 3 27 8 63 9 80 3 21 0 31 -10 31 -9 0 -11 -4 -4 -12z"/>
<path d="M61420 17240 l0 -1000 300 0 300 0 -2 998 -3 997 -297 3 -298 2 0
-1000z"/>
<path d="M66700 18085 l0 -155 300 0 300 0 0 155 0 155 -300 0 -300 0 0 -155z"/>
<path d="M44620 17971 c0 -7 -4 -9 -10 -6 -12 8 -13 -5 -1 -24 7 -11 10 -9 16
8 4 13 4 25 1 28 -3 4 -6 1 -6 -6z"/>
<path d="M44662 17958 c-1 -14 -5 -35 -8 -45 -5 -14 -4 -15 5 -7 7 7 11 26 8
45 -3 28 -4 29 -5 7z"/>
<path d="M44830 17614 c0 -8 5 -12 10 -9 6 3 10 10 10 16 0 5 -4 9 -10 9 -5 0
-10 -7 -10 -16z"/>
<path d="M66700 16745 l0 -875 -2002 0 c-1102 0 -2155 0 -2342 -1 l-338 0 5
-21 c5 -16 3 -18 -6 -9 -8 8 -97 11 -304 11 -189 0 -293 4 -293 10 0 7 -185
10 -535 10 l-535 0 0 -135 0 -135 4819 0 4820 0 0 135 0 135 -1345 0 -1344 0
0 875 0 875 -300 0 -300 0 0 -875z m603 -887 c3 -10 -57 -13 -282 -13 l-286 1
278 -3 c184 -2 276 -7 272 -13 -10 -16 18 -7 31 9 9 11 12 12 19 1 6 -9 4 -11
-5 -5 -9 6 -11 4 -5 -5 6 -10 10 -10 19 2 7 10 24 14 44 13 17 -2 30 0 28 4
-5 7 520 -2 527 -9 3 -3 -107 -4 -244 -2 -162 2 -255 -1 -267 -8 -12 -7 70
-10 285 -9 168 1 300 6 297 11 -3 4 -11 5 -17 2 -8 -5 -8 -4 -2 2 12 10 1201
0 1256 -11 23 -4 39 -3 43 4 9 14 56 15 56 1 0 -6 101 -9 288 -8 l287 3 -285
5 -285 5 285 3 c157 2 295 5 308 8 22 4 22 3 22 -106 0 -71 -4 -110 -11 -110
-5 0 -7 5 -4 10 3 6 1 10 -4 10 -7 0 -11 35 -12 93 -2 108 -6 98 -12 -26 -2
-53 0 -82 6 -75 6 10 8 9 4 -2 -3 -13 -543 -15 -4770 -18 -3284 -1 -4767 1
-4767 8 0 7 -6 7 -20 0 -14 -7 -20 -7 -20 0 0 5 6 10 13 11 10 0 10 2 0 6 -9
3 -13 32 -13 94 0 57 4 88 10 84 5 -3 8 0 5 7 -4 10 37 13 209 13 118 0 210
-3 204 -6 -23 -15 38 -19 258 -19 184 0 234 3 234 13 0 7 12 14 28 15 22 1 24
0 12 -9 -12 -8 -9 -9 10 -4 14 4 40 8 58 9 27 3 32 0 27 -13 -5 -13 -4 -14 6
-3 10 9 82 12 299 10 164 0 266 -4 240 -8 -43 -8 -42 -8 15 -6 34 1 59 6 58
12 -1 5 9 10 22 10 13 0 23 -5 22 -10 -3 -15 41 -15 47 0 4 10 62 13 271 14
222 0 271 -2 299 -15 24 -12 55 -15 112 -12 l79 3 -87 2 c-49 1 -88 5 -88 10
0 4 54 6 120 4 67 -2 120 -7 120 -13 0 -6 449 -9 1208 -8 923 1 1201 4 1181
12 -21 9 59 12 359 12 303 0 376 -2 346 -11 -32 -9 15 -12 243 -13 230 -1 282
1 278 12 -4 8 4 13 25 15 22 2 30 -2 30 -13 0 -13 7 -15 32 -11 18 3 34 9 36
15 2 5 9 9 15 7 7 -1 9 -1 5 1 -33 19 25 23 291 23 230 0 300 -3 304 -12z
m-653 -18 c0 -5 -5 -10 -11 -10 -5 0 -7 5 -4 10 3 6 8 10 11 10 2 0 4 -4 4
-10z"/>
<path d="M60555 15830 l-170 -6 183 -1 c109 -1 180 2 177 8 -4 5 -9 8 -13 7
-4 -1 -83 -5 -177 -8z"/>
<path d="M61377 15829 c7 -7 15 -10 18 -7 3 3 -2 9 -12 12 -14 6 -15 5 -6 -5z"/>
<path d="M62155 15830 c-4 -7 80 -10 244 -10 161 0 251 4 251 10 0 6 -88 10
-244 10 -153 0 -247 -4 -251 -10z"/>
<path d="M66590 15829 c0 -5 5 -7 10 -4 6 3 10 8 10 11 0 2 -4 4 -10 4 -5 0
-10 -5 -10 -11z"/>
<path d="M67370 15832 c0 -4 10 -9 22 -9 18 -2 20 0 8 7 -18 12 -30 13 -30 2z"/>
<path d="M68037 15828 c-7 -4 254 -7 578 -6 325 2 498 4 385 5 -526 7 -953 7
-963 1z"/>
<path d="M65528 15823 c90 -2 234 -2 320 0 86 1 13 3 -163 3 -176 0 -247 -2
-157 -3z"/>
<path d="M66753 15823 c9 -2 25 -2 35 0 9 3 1 5 -18 5 -19 0 -27 -2 -17 -5z"/>
<path d="M69318 15823 c7 -3 16 -2 19 1 4 3 -2 6 -13 5 -11 0 -14 -3 -6 -6z"/>
<path d="M44895 17380 c-3 -5 1 -10 10 -10 9 0 13 5 10 10 -3 6 -8 10 -10 10
-2 0 -7 -4 -10 -10z"/>
<path d="M62920 17025 l0 -235 1210 0 1210 0 0 235 0 235 -1210 0 -1210 0 0
-235z"/>
<path d="M43060 17143 c0 -5 -484 -7 -1075 -5 l-1075 2 0 -265 0 -265 1358 2
1357 3 0 265 0 265 -282 3 c-156 1 -283 -1 -283 -5z"/>
<path d="M37330 16082 c0 -15 28 -23 36 -9 4 7 4 9 -1 5 -4 -4 -14 -3 -22 3
-8 7 -13 8 -13 1z"/>
<path d="M36000 16069 c0 -5 5 -7 10 -4 6 3 10 8 10 11 0 2 -4 4 -10 4 -5 0
-10 -5 -10 -11z"/>
<path d="M37454 16069 c-2 -4 146 -8 328 -8 183 -1 330 1 327 4 -8 7 -650 11
-655 4z"/>
<path d="M39530 16070 c0 -5 5 -10 11 -10 5 0 7 5 4 10 -3 6 -8 10 -11 10 -2
0 -4 -4 -4 -10z"/>
<path d="M39650 16069 c0 -5 5 -7 10 -4 6 3 10 8 10 11 0 2 -4 4 -10 4 -5 0
-10 -5 -10 -11z"/>
<path d="M40535 16070 c-3 -5 -2 -10 4 -10 5 0 13 5 16 10 3 6 2 10 -4 10 -5
0 -13 -4 -16 -10z"/>
<path d="M43336 16068 c21 -4 307 -6 634 -5 327 0 557 2 510 4 -195 6 -1180 7
-1144 1z"/>
<path d="M44645 16070 c3 -5 11 -10 16 -10 6 0 7 5 4 10 -3 6 -11 10 -16 10
-6 0 -7 -4 -4 -10z"/>
<path d="M61420 15975 l0 -105 300 0 300 0 0 105 0 105 -300 0 -300 0 0 -105z"/>
<path d="M38558 16063 c177 -2 467 -2 645 0 177 1 32 2 -323 2 -355 0 -500 -1
-322 -2z"/>
<path d="M39938 16063 c100 -2 264 -2 365 0 100 1 18 2 -183 2 -201 0 -283 -1
-182 -2z"/>
<path d="M10190 16051 c-44 -14 -94 -42 -137 -78 -57 -46 -55 -62 3 -22 103
71 244 91 356 51 29 -11 62 -23 73 -27 l20 -7 -20 17 c-45 39 -128 68 -199 71
-39 2 -82 0 -96 -5z"/>
<path d="M10985 16043 c-43 -16 -115 -58 -115 -67 0 -2 30 8 68 21 126 46 254
31 366 -45 58 -39 60 -25 4 21 -101 82 -219 107 -323 70z"/>
<path d="M10275 15875 c-18 -17 -25 -35 -25 -63 0 -96 133 -122 169 -33 37 88
-77 164 -144 96z"/>
<path d="M11005 15875 c-47 -46 -22 -134 41 -149 37 -10 82 11 99 45 21 40 19
63 -11 98 -34 41 -92 44 -129 6z"/>
<path d="M72830 14212 c-20 -21 -56 -77 -79 -123 -24 -46 -45 -85 -46 -87 -2
-2 -28 13 -60 33 -297 191 -891 234 -1183 86 -175 -89 -272 -236 -330 -501
-22 -104 -25 -142 -29 -410 l-4 -295 76 77 c86 89 194 248 266 391 l49 97 79
-88 c194 -216 355 -307 421 -237 38 40 27 92 -58 269 -3 5 37 -28 89 -75 338
-305 684 -515 862 -522 l51 -2 23 75 c51 164 76 316 77 470 1 94 -4 164 -13
200 -16 64 -60 155 -90 187 -12 12 -21 23 -21 25 0 2 33 2 74 0 97 -5 158 11
154 40 -7 47 -118 88 -240 88 -37 0 -68 2 -68 4 0 2 16 37 35 79 40 86 68 196
58 224 -16 45 -47 43 -93 -5z"/>
<path d="M40380 14073 c-231 -39 -419 -127 -526 -246 -220 -245 -354 -680
-300 -976 8 -45 16 -84 18 -85 2 -2 21 -1 44 2 l41 4 6 87 c16 228 137 466
308 611 l49 42 71 -76 c105 -113 259 -219 378 -261 40 -14 43 -14 36 3 -28 63
-46 130 -51 194 l-7 73 104 -100 c197 -191 474 -377 804 -543 l100 -50 35 19
c19 11 51 19 72 19 44 0 45 4 57 181 17 268 -23 498 -115 656 -113 191 -417
373 -727 434 -92 18 -321 25 -397 12z"/>
<path d="M56343 13800 c-173 -19 -335 -70 -508 -158 -308 -157 -524 -360 -647
-607 -99 -197 -181 -497 -224 -810 -22 -159 -25 -626 -6 -895 7 -96 17 -290
22 -430 7 -220 12 -268 33 -351 29 -111 64 -191 114 -255 19 -26 32 -51 30
-57 -6 -15 -608 -685 -846 -941 -279 -301 -359 -378 -379 -367 -28 15 -304
302 -472 491 -206 232 -483 548 -599 685 -52 61 -98 112 -103 113 -16 7 -343
-289 -423 -382 l-45 -53 118 -195 c370 -606 951 -1477 999 -1495 8 -3 99 7
201 22 247 36 189 26 532 92 290 55 260 50 353 69 42 8 89 18 104 20 15 3 59
12 98 20 84 18 116 25 131 28 7 1 34 20 60 41 78 63 467 397 491 422 13 12 25
18 27 15 8 -14 10 -237 2 -298 l-8 -60 139 33 c441 105 644 165 684 201 99 92
288 603 539 1459 132 451 136 462 186 541 109 169 264 260 399 232 242 -50
414 -403 440 -906 31 -592 -214 -1325 -676 -2021 l-88 -133 775 0 776 0 76 53
c95 65 246 212 299 292 132 197 187 390 186 650 -1 386 -109 717 -518 1580
-425 896 -555 1249 -656 1771 -66 343 -130 549 -244 779 -41 83 -105 193 -142
244 -170 237 -396 408 -657 497 -157 54 -413 83 -573 64z m162 -1015 c351
-266 693 -454 771 -425 37 15 111 12 143 -5 127 -65 133 -261 12 -388 -20 -21
-53 -47 -73 -58 -50 -26 -133 -25 -175 1 l-33 20 -6 -28 c-21 -98 -75 -225
-125 -299 -51 -74 -155 -178 -225 -224 l-64 -41 0 -115 0 -116 -36 -33 c-124
-118 -266 -159 -405 -118 -68 20 -137 55 -178 89 l-31 27 0 113 0 114 -62 31
c-151 77 -272 199 -347 352 -82 165 -113 320 -126 618 l-6 145 58 42 c164 118
414 352 523 490 l55 70 100 -82 c55 -45 159 -126 230 -180z m-1167 -2365 c-7
-11 -17 -20 -22 -20 -5 0 -1 9 9 20 10 11 20 20 22 20 2 0 -2 -9 -9 -20z"/>
<path d="M55829 12456 c-41 -14 -85 -46 -106 -76 -18 -25 -17 -25 53 7 48 21
73 26 139 26 49 0 97 -7 124 -17 24 -9 46 -15 48 -13 7 8 -68 58 -108 72 -51
18 -102 18 -150 1z"/>
<path d="M56485 12441 c-41 -10 -88 -36 -106 -57 -12 -16 -12 -17 3 -11 9 3
44 11 78 17 77 14 152 0 229 -41 30 -16 56 -27 59 -25 2 3 -16 25 -41 50 -62
62 -142 86 -222 67z"/>
<path d="M55861 12274 c-12 -15 -21 -35 -21 -46 0 -26 44 -68 73 -68 31 0 67
39 67 73 0 63 -80 90 -119 41z"/>
<path d="M56460 12270 c-44 -44 -14 -120 48 -120 36 0 75 45 68 78 -14 57 -78
80 -116 42z"/>
<path d="M71380 13059 c-43 -19 -120 -84 -120 -101 0 -5 19 1 42 13 125 64
243 68 383 14 17 -7 17 -5 -5 20 -64 71 -205 97 -300 54z"/>
<path d="M72137 13046 c-43 -16 -107 -57 -107 -70 0 -4 8 -5 17 -1 47 18 123
27 186 22 54 -3 86 -13 148 -44 43 -21 79 -35 79 -31 0 5 -22 31 -49 58 -73
73 -181 99 -274 66z"/>
<path d="M40679 12956 c-42 -15 -112 -56 -106 -62 2 -3 37 0 77 7 110 17 211
-6 306 -70 58 -40 58 -18 -1 47 -72 80 -183 111 -276 78z"/>
<path d="M39949 12937 c-56 -21 -99 -56 -130 -105 -16 -25 -27 -47 -25 -50 3
-2 20 8 38 22 19 14 61 38 93 53 55 26 70 28 178 28 64 0 117 1 117 2 0 1 -21
14 -46 29 -56 33 -166 43 -225 21z"/>
<path d="M71445 12865 c-52 -51 -17 -135 57 -135 34 0 78 39 78 70 0 29 -26
76 -45 84 -33 12 -66 5 -90 -19z"/>
<path d="M72150 12867 c-37 -19 -52 -57 -39 -96 29 -82 153 -63 153 23 0 61
-61 101 -114 73z"/>
<path d="M40686 12759 c-56 -44 -20 -139 54 -139 66 0 97 92 46 137 -34 28
-65 29 -100 2z"/>
<path d="M40004 12737 c-35 -31 -37 -77 -4 -112 48 -51 130 -16 130 55 0 70
-72 103 -126 57z"/>
<path d="M42828 11423 c12 -2 30 -2 40 0 9 3 -1 5 -23 4 -22 0 -30 -2 -17 -4z"/>
<path d="M58783 11423 c9 -2 23 -2 30 0 6 3 -1 5 -18 5 -16 0 -22 -2 -12 -5z"/>
<path d="M74493 11423 c9 -2 23 -2 30 0 6 3 -1 5 -18 5 -16 0 -22 -2 -12 -5z"/>
<path d="M43253 11413 c9 -2 23 -2 30 0 6 3 -1 5 -18 5 -16 0 -22 -2 -12 -5z"/>
<path d="M59213 11413 c9 -2 23 -2 30 0 6 3 -1 5 -18 5 -16 0 -22 -2 -12 -5z"/>
<path d="M74933 11413 c9 -2 23 -2 30 0 6 3 -1 5 -18 5 -16 0 -22 -2 -12 -5z"/>
<path d="M43888 11393 c6 -2 18 -2 25 0 6 3 1 5 -13 5 -14 0 -19 -2 -12 -5z"/>
<path d="M59833 11393 c9 -2 25 -2 35 0 9 3 1 5 -18 5 -19 0 -27 -2 -17 -5z"/>
<path d="M75568 11393 c7 -3 16 -2 19 1 4 3 -2 6 -13 5 -11 0 -14 -3 -6 -6z"/>
<path d="M44273 11383 c9 -2 23 -2 30 0 6 3 -1 5 -18 5 -16 0 -22 -2 -12 -5z"/>
<path d="M44305 11363 c-22 -15 -97 -84 -166 -154 -490 -494 -832 -1152 -1059
-2033 -79 -308 -184 -895 -215 -1201 -3 -33 -8 -70 -11 -82 l-4 -23 184 0 185
0 5 33 c3 17 15 106 26 197 153 1190 468 2049 978 2664 42 50 133 147 203 216
70 69 132 135 138 147 16 31 14 129 -4 162 -47 91 -177 128 -260 74z"/>
<path d="M60228 11383 c12 -2 32 -2 45 0 12 2 2 4 -23 4 -25 0 -35 -2 -22 -4z"/>
<path d="M75953 11383 c9 -2 25 -2 35 0 9 3 1 5 -18 5 -19 0 -27 -2 -17 -5z"/>
<path d="M60528 11361 c-39 -25 -161 -141 -257 -245 -562 -606 -927 -1469
-1122 -2650 -27 -167 -79 -547 -79 -581 0 -13 28 -15 183 -15 l184 0 22 183
c113 918 335 1671 654 2227 149 260 285 438 508 665 157 161 168 174 174 218
9 57 1 90 -30 138 -46 70 -172 102 -237 60z"/>
<path d="M76228 11350 c-58 -38 -278 -265 -380 -390 -535 -663 -886 -1630
-1038 -2860 -11 -91 -23 -180 -26 -197 l-5 -33 185 0 185 0 5 33 c3 17 12 88
21 157 173 1370 563 2324 1194 2922 60 57 117 117 125 133 18 35 21 111 5 152
-24 65 -100 112 -180 113 -34 0 -57 -7 -91 -30z"/>
<path d="M37084 10786 c-400 -198 -412 -204 -423 -239 -12 -34 -5 -52 255
-649 417 -960 423 -972 445 -990 35 -29 81 -21 267 47 97 36 183 68 191 70 8
3 -22 30 -75 67 -159 109 -433 347 -458 397 -7 14 -16 57 -19 95 -6 64 -4 73
29 145 20 42 39 78 44 81 4 3 13 22 19 42 17 51 30 56 58 22 61 -73 114 -121
188 -169 101 -66 196 -114 260 -131 65 -18 75 -17 75 3 0 9 12 65 26 125 l26
109 -192 532 c-106 293 -201 553 -212 578 -18 43 -49 70 -81 69 -7 -1 -197
-92 -423 -204z"/>
<path d="M70866 10975 c-9 -26 -7 -32 5 -12 6 10 9 21 6 23 -2 3 -7 -2 -11
-11z"/>
<path d="M70822 10861 c-6 -17 -9 -31 -6 -31 7 0 25 52 20 57 -2 2 -8 -10 -14
-26z"/>
<path d="M70776 10745 c-9 -26 -7 -32 5 -12 6 10 9 21 6 23 -2 3 -7 -2 -11
-11z"/>
<path d="M70741 10644 c0 -11 3 -14 6 -6 3 7 2 16 -1 19 -3 4 -6 -2 -5 -13z"/>
<path d="M70705 10539 c-4 -6 -5 -12 -2 -15 2 -3 7 2 10 11 7 17 1 20 -8 4z"/>
<path d="M47800 10515 c0 -3 1127 -2524 1170 -2617 l13 -28 2612 0 2613 0 16
35 c15 30 15 38 2 69 -8 19 -25 40 -38 48 -19 10 -189 13 -901 13 l-878 0
-507 1240 -507 1240 -1798 3 c-988 1 -1797 0 -1797 -3z m2010 -1205 c180 -92
123 -386 -71 -368 -96 10 -163 94 -163 203 1 142 118 224 234 165z"/>
<path d="M70651 10374 c0 -11 3 -14 6 -6 3 7 2 16 -1 19 -3 4 -6 -2 -5 -13z"/>
<path d="M70616 10264 c-4 -14 -5 -28 -3 -31 3 -2 8 8 11 23 4 14 5 28 3 31
-3 2 -8 -8 -11 -23z"/>
<path d="M70591 10174 c0 -11 3 -14 6 -6 3 7 2 16 -1 19 -3 4 -6 -2 -5 -13z"/>
<path d="M70576 10124 c-4 -14 -5 -28 -3 -31 3 -2 8 8 11 23 4 14 5 28 3 31
-3 2 -8 -8 -11 -23z"/>
<path d="M70546 10019 c-8 -42 0 -50 9 -9 4 17 5 34 2 36 -2 3 -7 -10 -11 -27z"/>
<path d="M70521 9914 c0 -11 3 -14 6 -6 3 7 2 16 -1 19 -3 4 -6 -2 -5 -13z"/>
<path d="M70496 9809 c-8 -42 0 -50 9 -9 4 17 5 34 2 36 -2 3 -7 -10 -11 -27z"/>
<path d="M70482 9740 c0 -14 2 -19 5 -12 2 6 2 18 0 25 -3 6 -5 1 -5 -13z"/>
<path d="M70471 9684 c0 -11 3 -14 6 -6 3 7 2 16 -1 19 -3 4 -6 -2 -5 -13z"/>
<path d="M70462 9635 c0 -16 2 -22 5 -12 2 9 2 23 0 30 -3 6 -5 -1 -5 -18z"/>
<path d="M70451 9584 c0 -11 3 -14 6 -6 3 7 2 16 -1 19 -3 4 -6 -2 -5 -13z"/>
<path d="M70442 9530 c0 -14 2 -19 5 -12 2 6 2 18 0 25 -3 6 -5 1 -5 -13z"/>
<path d="M70432 9475 c0 -16 2 -22 5 -12 2 9 2 23 0 30 -3 6 -5 -1 -5 -18z"/>
<path d="M70422 9415 c0 -16 2 -22 5 -12 2 9 2 23 0 30 -3 6 -5 -1 -5 -18z"/>
<path d="M70412 9340 c0 -19 2 -27 5 -17 2 9 2 25 0 35 -3 9 -5 1 -5 -18z"/>
<path d="M70402 9280 c0 -14 2 -19 5 -12 2 6 2 18 0 25 -3 6 -5 1 -5 -13z"/>
<path d="M70392 9190 c0 -14 2 -19 5 -12 2 6 2 18 0 25 -3 6 -5 1 -5 -13z"/>
<path d="M70382 9120 c0 -14 2 -19 5 -12 2 6 2 18 0 25 -3 6 -5 1 -5 -13z"/>
<path d="M63265 8457 c-3 -7 -4 -145 -3 -307 l3 -295 1430 0 1430 0 3 308 2
307 -1430 0 c-1142 0 -1432 -3 -1435 -13z"/>
<path d="M66330 8160 l0 -310 140 0 140 0 0 310 0 310 -140 0 -140 0 0 -310z"/>
<path d="M55350 8450 c-21 -7 -21 -8 -5 -9 11 0 27 4 35 9 18 11 5 11 -30 0z"/>
<path d="M55288 8433 c6 -2 18 -2 25 0 6 3 1 5 -13 5 -14 0 -19 -2 -12 -5z"/>
<path d="M55220 8420 c-20 -6 -21 -8 -5 -8 11 0 29 3 40 8 25 11 -1 11 -35 0z"/>
<path d="M55085 8390 c-38 -10 -63 -18 -55 -18 8 -1 49 7 90 17 41 11 66 19
55 19 -11 0 -51 -8 -90 -18z"/>
<path d="M54907 8353 c-32 -9 -56 -17 -54 -19 2 -2 40 4 83 15 43 11 68 19 54
19 -14 0 -51 -7 -83 -15z"/>
<path d="M53781 8114 c0 -11 3 -14 6 -6 3 7 2 16 -1 19 -3 4 -6 -2 -5 -13z"/>
<path d="M53791 8074 c0 -11 3 -14 6 -6 3 7 2 16 -1 19 -3 4 -6 -2 -5 -13z"/>
<path d="M56670 7880 c-8 -5 -10 -10 -5 -10 6 0 17 5 25 10 8 5 11 10 5 10 -5
0 -17 -5 -25 -10z"/>
<path d="M31602 3903 l3 -3508 128 -3 127 -3 0 3511 0 3510 -130 0 -130 0 2
-3507z"/>
<path d="M34050 3900 l0 -3510 130 0 130 0 0 3510 0 3510 -130 0 -130 0 0
-3510z"/>
<path d="M38705 7394 c-41 -9 -136 -13 -295 -14 -811 -2 -1564 -58 -2040 -151
-534 -105 -823 -247 -928 -455 -110 -219 -187 -679 -210 -1249 -14 -362 -6
-1350 13 -1605 3 -36 10 -153 15 -260 22 -415 67 -969 111 -1360 20 -184 55
-430 64 -461 7 -21 186 -89 322 -123 138 -34 240 -48 366 -48 100 0 116 -3
176 -30 113 -52 240 -79 392 -85 196 -8 344 16 528 87 l77 30 48 182 c415
1553 834 2872 1046 3288 73 142 122 192 234 239 41 17 79 31 84 31 6 0 1 -17
-9 -37 -51 -100 6 -224 117 -254 32 -9 34 -13 30 -42 -3 -18 -8 -70 -11 -117
-3 -47 -41 -600 -85 -1230 -44 -630 -114 -1627 -155 -2217 -41 -590 -75 -1084
-75 -1098 0 -25 0 -25 90 -25 85 0 90 1 94 23 3 12 53 450 111 972 324 2912
418 3741 424 3747 3 3 101 14 216 22 636 49 1264 106 1720 156 148 17 273 30
277 30 4 0 8 -1114 8 -2475 l0 -2476 128 3 127 3 3 2490 2 2490 193 28 c105
15 252 39 326 53 74 14 137 21 141 17 4 -4 46 -361 94 -793 110 -995 334
-2991 448 -4007 l32 -283 94 0 94 0 -7 73 c-3 39 -51 716 -105 1502 -55 787
-107 1526 -115 1643 -83 1173 -135 1923 -135 1955 0 28 6 35 46 56 126 67 200
229 243 529 26 174 44 376 76 827 13 198 27 377 30 398 l5 37 -184 0 -185 0
-5 -42 c-3 -24 -20 -232 -36 -463 -32 -438 -49 -615 -76 -775 -30 -177 -57
-208 -220 -249 -180 -45 -738 -140 -751 -128 -2 2 48 21 112 41 410 131 635
357 635 636 l0 77 -177 86 c-156 75 -357 162 -518 225 l-50 20 -3 286 -2 286
-130 0 -130 0 0 -235 c0 -129 -4 -235 -9 -235 -5 0 -39 11 -76 25 -297 112
-1009 310 -1467 409 l-168 36 -487 -1 c-371 -1 -502 -4 -548 -15z m-1834
-1785 c-57 -247 -145 -673 -196 -951 -20 -105 -38 -194 -42 -197 -10 -10 6
947 17 1054 13 117 28 153 84 201 38 33 177 117 183 110 2 -1 -19 -99 -46
-217z m4099 50 c-106 -14 -797 -76 -1195 -108 -203 -17 -400 -33 -437 -36 -38
-3 -68 -1 -68 4 0 30 903 114 1485 137 94 4 172 8 174 10 2 2 27 3 55 3 l51
-2 -65 -8z"/>
<path d="M43902 3903 l3 -3508 130 0 130 0 3 3508 2 3507 -135 0 -135 0 2
-3507z"/>
<path d="M47380 3900 l0 -3510 130 0 130 0 0 3510 0 3510 -130 0 -130 0 0
-3510z"/>
<path d="M49830 3900 l0 -3511 128 3 127 3 3 3508 2 3507 -130 0 -130 0 0
-3510z"/>
<path d="M55130 7381 c0 -31 18 -41 73 -41 15 0 27 -4 27 -8 0 -4 -82 -20
-182 -35 -233 -36 -512 -88 -698 -132 -136 -32 -163 -35 -415 -45 -973 -38
-1676 -132 -2063 -276 -301 -113 -376 -202 -478 -572 -194 -710 -281 -2012
-204 -3047 49 -647 177 -1274 329 -1610 l30 -65 239 0 c239 0 435 11 567 31
82 12 202 45 210 58 3 5 1 182 -5 393 -5 210 -15 795 -22 1298 -18 1402 -7
1548 137 1770 40 61 150 179 158 169 2 -2 18 -85 36 -184 18 -99 72 -369 121
-600 119 -562 153 -733 206 -1035 57 -329 209 -1043 379 -1782 30 -130 55
-240 55 -243 0 -11 713 2 825 15 140 16 316 47 325 57 4 4 -19 238 -50 518
-82 721 -161 1442 -220 1995 -27 261 -66 619 -85 796 -36 326 -46 498 -29 514
5 4 120 10 257 12 l248 3 -6 -27 c-18 -81 68 -198 145 -198 11 0 20 -6 20 -13
0 -7 -43 -622 -95 -1367 -52 -745 -109 -1551 -125 -1790 -17 -239 -39 -556
-50 -705 -11 -148 -25 -359 -32 -467 -7 -109 -15 -198 -18 -198 -3 0 -15 87
-28 193 -13 105 -28 208 -33 228 -18 70 -9 69 -362 69 -285 1 -319 -1 -343
-17 -25 -16 -25 -18 -9 -28 86 -50 157 -140 141 -181 -8 -19 -8 -19 -19 0 -63
103 -123 146 -204 146 -28 0 -55 -4 -58 -10 -3 -5 0 -10 8 -10 45 0 166 -155
141 -180 -9 -9 -18 -3 -34 22 -66 95 -123 131 -203 126 -40 -3 -47 -5 -32 -12
62 -27 145 -123 145 -168 0 -26 -25 -22 -37 5 -18 40 -64 87 -104 107 -61 32
-136 27 -224 -14 -129 -60 -204 -149 -205 -245 0 -36 6 -49 34 -77 l34 -34
224 0 c122 0 421 -3 663 -7 468 -6 477 -6 494 40 8 20 10 17 21 -21 12 -37 11
-47 -3 -77 l-17 -35 95 0 c75 0 95 3 95 14 0 8 7 72 15 143 19 160 193 1719
325 2898 168 1507 187 1676 193 1681 2 3 146 16 318 29 491 39 988 83 1337
118 l122 13 0 -2448 0 -2448 130 0 130 0 2 2462 3 2462 220 27 c282 35 541 72
728 106 81 14 149 24 152 22 2 -3 31 -248 64 -544 79 -708 186 -1661 315
-2815 58 -514 124 -1101 146 -1305 22 -203 43 -380 46 -392 4 -22 9 -23 94
-23 l90 0 0 26 c0 26 -123 1788 -335 4818 -14 192 -24 350 -22 351 1 1 23 13
48 28 171 98 236 315 288 967 24 298 61 795 61 816 0 12 -30 14 -184 14 l-183
0 -6 -82 c-4 -46 -18 -238 -32 -428 -44 -595 -74 -840 -115 -920 -12 -24 -36
-48 -62 -64 -92 -52 -514 -130 -1113 -206 -202 -25 -195 -25 -195 4 0 21 8 27
53 42 282 92 507 332 589 629 21 76 22 101 26 553 l3 472 -1520 0 -1521 0 0
-29z m2097 -1716 c-4 -10 -20 -15 -46 -15 -22 0 -93 -7 -157 -15 -64 -9 -118
-14 -120 -12 -4 4 319 64 325 61 2 -2 1 -10 -2 -19z"/>
<path d="M59680 3900 l0 -3510 130 0 130 0 0 3510 0 3510 -130 0 -130 0 0
-3510z"/>
<path d="M63160 3900 l0 -3510 130 0 130 0 0 3510 0 3510 -130 0 -130 0 0
-3510z"/>
<path d="M65610 3900 l0 -3510 130 0 130 0 0 3510 0 3510 -130 0 -130 0 0
-3510z"/>
<path d="M70265 7398 c-566 -110 -845 -175 -1183 -272 -910 -264 -1501 -601
-1691 -966 -53 -102 -70 -157 -87 -280 -18 -127 -25 -545 -14 -760 45 -832
222 -2067 501 -3495 33 -170 64 -314 69 -319 10 -10 174 7 345 35 166 28 308
65 383 100 72 35 66 7 53 260 -15 279 -20 392 -26 599 -3 107 -8 215 -10 240
-18 188 -27 1732 -12 2105 12 311 50 691 67 680 4 -2 10 -35 14 -72 9 -99 69
-386 132 -638 243 -957 665 -2075 1022 -2705 104 -185 210 -337 315 -455 l44
-49 64 12 c231 42 689 208 689 249 0 7 -25 123 -54 258 l-55 244 109 973 c60
535 135 1200 166 1478 31 278 57 506 59 508 1 1 143 14 316 27 466 37 867 72
1206 105 166 17 307 30 313 30 7 0 11 -755 12 -2447 l3 -2448 128 -3 127 -3 0
2465 0 2465 33 6 c17 3 106 14 197 25 238 30 421 56 619 90 95 17 177 30 182
30 12 0 13 -6 99 -781 44 -394 116 -1038 160 -1430 86 -762 320 -2860 320
-2865 0 -2 43 -4 95 -4 l95 0 -5 53 c-3 28 -35 471 -70 982 -36 512 -114 1640
-175 2507 -60 868 -110 1594 -110 1615 0 35 4 40 52 68 89 52 157 164 197 322
43 172 69 397 111 983 16 228 32 432 35 453 l5 37 -184 0 -184 0 -6 -37 c-3
-21 -15 -168 -26 -328 -40 -572 -64 -818 -96 -968 -29 -140 -59 -166 -250
-212 -136 -33 -504 -95 -769 -130 -110 -14 -226 -29 -257 -34 l-58 -8 0 148 0
147 105 56 c251 132 397 258 470 404 l27 53 -86 92 c-46 51 -182 193 -300 317
l-215 225 -1 138 0 137 -1482 -1 c-918 -1 -1502 -5 -1533 -11z m2745 -1633 c0
-93 -2 -105 -17 -105 -10 0 -133 -11 -273 -25 -421 -42 -674 -65 -677 -61 -2
2 45 15 104 30 236 59 767 225 823 257 36 21 40 12 40 -96z m-2396 -516 c13
-68 85 -139 141 -139 12 0 15 -12 14 -57 -1 -110 -136 -1968 -142 -1953 -9 25
-469 2112 -465 2114 5 5 382 63 414 65 28 1 32 -3 38 -30z"/>
<path d="M75460 3900 l0 -3510 130 0 130 0 0 3510 0 3510 -130 0 -130 0 0
-3510z"/>
<path d="M71060 1440 c6 -11 13 -20 16 -20 2 0 0 9 -6 20 -6 11 -13 20 -16 20
-2 0 0 -9 6 -20z"/>
<path d="M71090 1390 c6 -11 13 -20 16 -20 2 0 0 9 -6 20 -6 11 -13 20 -16 20
-2 0 0 -9 6 -20z"/>
<path d="M71181 1240 c14 -31 19 -36 19 -24 0 6 -7 19 -16 30 -14 18 -14 18
-3 -6z"/>
<path d="M35448 1172 c-16 -10 -28 -19 -28 -22 0 -3 20 -16 45 -29 96 -51 194
-211 129 -211 -7 0 -29 24 -47 53 -63 97 -116 127 -219 126 -53 0 -60 -2 -44
-12 74 -45 166 -159 166 -204 0 -42 -33 -25 -72 37 -51 82 -117 120 -208 120
l-65 0 34 -17 c74 -37 173 -167 158 -207 -10 -26 -34 -18 -47 15 -7 17 -34 53
-60 79 -56 58 -126 83 -205 75 -72 -7 -226 -85 -284 -143 -104 -104 -120 -229
-39 -297 l30 -25 351 0 c344 0 352 0 365 21 13 20 13 20 43 -5 30 -26 32 -26
187 -24 l157 2 -162 6 -163 5 -32 33 c-29 28 -33 39 -32 81 3 96 64 187 163
244 82 48 179 88 186 77 4 -6 10 -10 16 -10 5 0 0 9 -11 20 -22 22 -24 29 -11
48 9 14 104 19 142 7 18 -6 19 -4 11 12 -19 35 3 53 66 53 105 -1 175 -42 242
-143 42 -63 48 -99 17 -105 -11 -2 -23 8 -35 29 -43 80 -131 150 -184 148 -19
-1 -17 -2 7 -8 71 -18 129 -66 163 -138 9 -18 24 -35 34 -39 23 -7 48 12 48
36 0 27 -74 135 -114 165 -42 32 -45 42 -13 48 12 3 5 4 -17 4 -42 -2 -64 18
-53 47 5 12 20 16 69 16 72 0 126 -21 180 -69 45 -39 98 -120 98 -150 0 -29
-30 -40 -44 -17 -41 68 -70 106 -94 121 -21 13 -17 7 14 -26 23 -24 49 -59 58
-77 10 -18 24 -36 32 -39 20 -7 44 15 44 42 0 44 -106 173 -162 196 -34 14
-36 25 -6 35 21 6 21 7 3 20 -15 11 -91 14 -399 13 -336 -1 -384 -3 -408 -17z"/>
<path d="M36738 1163 c57 -2 147 -2 200 0 53 1 7 3 -103 3 -110 0 -154 -2 -97
-3z"/>
<path d="M37056 1135 c10 -16 24 -67 31 -114 l12 -86 -6 80 c-5 77 -20 126
-44 141 -6 3 -3 -6 7 -21z"/>
<path d="M71180 1135 c-8 -9 -8 -15 -2 -15 12 0 26 19 19 26 -2 2 -10 -2 -17
-11z"/>
<path d="M10419 1029 l-35 -110 25 -18 c14 -10 100 -65 191 -121 l165 -103
430 -144 c236 -78 443 -143 458 -143 18 0 39 11 58 29 45 46 40 76 -32 168
-89 113 -79 106 -125 87 -61 -26 -205 -15 -321 24 -165 56 -364 164 -621 338
-84 57 -153 104 -155 104 -1 0 -18 -50 -38 -111z"/>
<path d="M68750 1085 c0 -5 5 -17 10 -25 5 -8 10 -10 10 -5 0 6 -5 17 -10 25
-5 8 -10 11 -10 5z"/>
<path d="M36170 1068 c3 -3 21 -10 40 -17 19 -6 30 -7 25 -2 -6 5 -23 13 -40
17 -16 4 -28 5 -25 2z"/>
<path d="M71035 1060 c-3 -6 1 -7 9 -4 18 7 21 14 7 14 -6 0 -13 -4 -16 -10z"/>
<path d="M51737 1044 l-29 -15 44 -28 c88 -56 158 -171 104 -171 -8 0 -19 13
-26 30 -14 34 -80 97 -116 110 -30 12 -124 13 -124 3 0 -5 19 -19 41 -33 42
-26 109 -113 109 -142 0 -36 -20 -26 -57 29 -46 69 -103 103 -175 103 -26 0
-48 -4 -48 -10 0 -5 7 -10 15 -10 23 0 93 -68 122 -117 20 -35 23 -47 13 -56
-9 -9 -16 -6 -28 13 -36 54 -95 110 -129 121 -121 40 -331 -60 -389 -185 -13
-28 -24 -64 -24 -81 0 -34 30 -89 57 -103 11 -6 295 -11 692 -13 l674 -4 20
27 20 27 -28 223 c-15 123 -31 232 -36 244 -20 55 -15 54 -357 54 -265 -1
-322 -3 -345 -16z"/>
<path d="M35961 982 c60 -38 132 -131 142 -183 4 -23 4 -23 6 -2 3 50 -134
213 -178 213 -8 0 5 -13 30 -28z"/>
<path d="M70900 1000 c-9 -6 -10 -10 -3 -10 6 0 15 5 18 10 8 12 4 12 -15 0z"/>
<path d="M35848 945 c34 -8 75 -23 91 -35 33 -23 84 -85 95 -114 3 -10 9 -16
13 -13 8 9 -43 84 -80 118 -35 32 -106 59 -151 58 -21 0 -11 -5 32 -14z"/>
<path d="M68802 928 c-1 -20 -9 -44 -18 -52 -8 -9 -11 -16 -5 -16 17 0 32 39
28 73 -4 32 -4 31 -5 -5z"/>
<path d="M37100 923 c0 -6 -22 -13 -50 -15 -75 -7 -171 -59 -229 -124 -44 -50
-105 -159 -141 -251 l-12 -33 -336 0 c-184 0 -333 -2 -331 -5 3 -2 254 -5 559
-6 l554 -1 18 22 c11 13 18 39 18 62 0 45 -39 351 -46 357 -2 2 -4 0 -4 -6z"/>
<path d="M68708 843 c7 -3 16 -2 19 1 4 3 -2 6 -13 5 -11 0 -14 -3 -6 -6z"/>
<path d="M68668 833 c7 -3 16 -2 19 1 4 3 -2 6 -13 5 -11 0 -14 -3 -6 -6z"/>
<path d="M68448 773 c7 -3 16 -2 19 1 4 3 -2 6 -13 5 -11 0 -14 -3 -6 -6z"/>
<path d="M36068 763 c7 -3 16 -2 19 1 4 3 -2 6 -13 5 -11 0 -14 -3 -6 -6z"/>
<path d="M70568 717 c-48 -23 -91 -46 -97 -52 -5 -5 -12 -70 -16 -142 l-8
-133 91 0 91 0 6 33 c8 47 35 288 35 315 0 12 -3 22 -7 21 -5 0 -47 -19 -95
-42z"/>
<path d="M9572 582 c3 -131 5 -153 22 -171 19 -21 21 -21 692 -21 l673 0 20
26 c21 27 27 67 15 99 -4 9 -50 45 -102 80 l-95 64 -36 -29 c-116 -92 -341
-102 -701 -30 -123 24 -411 101 -473 125 -17 7 -18 0 -15 -143z"/>
<path d="M35853 493 c26 -2 68 -2 95 0 26 2 4 3 -48 3 -52 0 -74 -1 -47 -3z"/>
</g>
</svg>
