<svg id="Layer_1" enable-background="new 0 0 256 256" height="512" viewBox="0 0 256 256" width="512" xmlns="http://www.w3.org/2000/svg"><path d="m242.312 214.6h-228.624c-5.35 0-9.688-4.338-9.688-9.689v-171.429c0-5.351 4.338-9.688 9.688-9.688h228.624c5.351 0 9.688 4.338 9.688 9.688v171.429c0 5.351-4.338 9.689-9.688 9.689z" fill="#526faa"/><ellipse cx="71.42" cy="75.75" fill="#f4efed" rx="45.252" ry="20.303" transform="matrix(.707 -.707 .707 .707 -32.645 72.688)"/><ellipse cx="71.42" cy="75.75" fill="#f4efed" rx="20.303" ry="45.252" transform="matrix(.707 -.707 .707 .707 -32.645 72.688)"/><path d="m14 204.911v-171.429c0-5.351 4.338-9.688 9.688-9.688h-10c-5.35 0-9.688 4.337-9.688 9.688v171.429c0 5.351 4.338 9.688 9.688 9.688h10c-5.35.001-9.688-4.337-9.688-9.688z" fill="#708dc8"/><path d="m242 33.482v171.429c0 5.351-4.338 9.688-9.688 9.688h10c5.351 0 9.688-4.337 9.688-9.688v-171.429c0-5.351-4.338-9.688-9.688-9.688h-10c5.35 0 9.688 4.337 9.688 9.688z" fill="#34518c"/><g fill="#690589"><path d="m242.312 216.6h-228.624c-6.445 0-11.688-5.244-11.688-11.689v-171.429c0-6.445 5.243-11.688 11.688-11.688h228.623c6.445 0 11.688 5.243 11.688 11.688v171.429c.001 6.445-5.242 11.689-11.687 11.689zm-228.624-190.806c-4.239 0-7.688 3.449-7.688 7.688v171.429c0 4.239 3.449 7.688 7.688 7.688h228.623c4.239 0 7.688-3.449 7.688-7.688v-171.429c0-4.239-3.449-7.688-7.688-7.688z"/><path d="m14 67.717c-1.104 0-2-.896-2-2v-12c0-1.104.896-2 2-2s2 .896 2 2v12c0 1.104-.896 2-2 2z"/><path d="m48.081 112.812c-4.129 0-7.6-1.176-10.073-3.649-8.844-8.843-1.095-30.447 17.642-49.183 18.736-18.737 40.34-26.484 49.183-17.642 8.844 8.843 1.095 30.447-17.642 49.183-13.496 13.495-28.479 21.291-39.11 21.291zm46.651-70.131c-2.901 0-6.337.719-10.127 2.161-8.497 3.233-17.776 9.614-26.128 17.966s-14.732 17.63-17.965 26.128c-2.991 7.859-2.873 14.201.324 17.398 3.198 3.196 9.537 3.316 17.398.324 8.497-3.233 17.776-9.614 26.128-17.966s14.732-17.631 17.966-26.128c2.991-7.859 2.873-14.201-.324-17.398-1.656-1.655-4.155-2.485-7.272-2.485z"/><path d="m94.759 112.812c-10.631 0-25.613-7.795-39.109-21.291-18.736-18.735-26.485-40.34-17.642-49.183 8.842-8.845 30.447-1.094 49.183 17.642 18.736 18.735 26.485 40.34 17.642 49.183-2.474 2.473-5.947 3.649-10.074 3.649zm-46.652-70.131c-3.116 0-5.615.83-7.271 2.485-3.197 3.197-3.315 9.539-.324 17.398 3.233 8.497 9.614 17.776 17.966 26.128s17.631 14.732 26.128 17.966c7.858 2.992 14.2 2.872 17.398-.324 3.197-3.197 3.315-9.539.324-17.398-3.233-8.497-9.614-17.776-17.966-26.128s-17.631-14.733-26.128-17.966c-3.789-1.443-7.225-2.161-10.127-2.161z"/><path d="m112.483 147.101c-.811 0-1.574-.497-1.874-1.302l-9.658-25.902c-.386-1.035.141-2.188 1.175-2.573s2.188.14 2.573 1.175l9.658 25.902c.386 1.035-.141 2.188-1.175 2.573-.23.086-.466.127-.699.127z"/></g><path d="m133.776 184.716-14.415-40.31c-1.488-4.161-6.067-6.327-10.228-4.84-4.16 1.488-6.326 6.066-4.839 10.227l16.843 47.098c1.16 3.242 4.22 5.308 7.529 5.308.629 0 1.266-.074 1.901-.229l31.694-7.737v37.974h89.739v-40.207c0-8.026-6.506-14.533-14.532-14.533h-70.57z" fill="#f4efed"/><path d="m237.468 177.467h-8c8.026 0 14.532 6.506 14.532 14.533v40.206h8v-40.206c0-8.026-6.506-14.533-14.532-14.533z" fill="#d6d1cf"/><path d="m252 234.206h-89.738c-1.104 0-2-.896-2-2v-35.427l-29.219 7.133c-.778.189-1.578.286-2.376.286-4.21 0-7.992-2.666-9.412-6.634l-16.843-47.098c-1.856-5.192.856-10.927 6.048-12.783 5.19-1.857 10.928.856 12.784 6.049l13.823 38.653 31.402-6.872c.141-.03.284-.046.428-.046h70.57c9.116 0 16.532 7.416 16.532 16.532v40.206c.001 1.106-.895 2.001-1.999 2.001zm-87.738-4h85.738v-38.206c0-6.91-5.622-12.532-12.532-12.532h-70.354l-32.909 7.202c-.981.216-1.972-.333-2.311-1.28l-14.415-40.31c-1.114-3.115-4.55-4.741-7.672-3.631-3.114 1.114-4.742 4.556-3.629 7.671l16.843 47.097c.853 2.382 3.121 3.981 5.646 3.981.479 0 .959-.058 1.427-.173l31.693-7.736c.599-.145 1.227-.009 1.71.37.482.38.765.959.765 1.573z" fill="#690589"/><path d="m236.314 234.206c-1.104 0-2-.896-2-2v-28.606c0-1.104.896-2 2-2s2 .896 2 2v28.606c0 1.105-.895 2-2 2z" fill="#690589"/><path d="m188.585 159.229h22.56v21.688c0 6.23-5.05 11.28-11.28 11.28-6.23 0-11.28-5.05-11.28-11.28z" fill="#ff9f70"/><path d="m199.865 194.197c-7.323 0-13.28-5.957-13.28-13.28v-21.688c0-1.104.896-2 2-2h22.56c1.104 0 2 .896 2 2v21.688c0 7.323-5.957 13.28-13.28 13.28zm-9.28-32.968v19.688c0 5.117 4.163 9.28 9.28 9.28 5.116 0 9.279-4.163 9.279-9.28v-19.688z" fill="#690589"/><path d="m199.865 173.783c-12.569 0-22.758-10.321-22.758-23.053v-15.96c0-12.732 10.189-23.053 22.758-23.053 12.569 0 22.757 10.321 22.757 23.053v15.96c0 12.732-10.188 23.053-22.757 23.053z" fill="#ff9f70"/><path d="m199.865 175.783c-13.651 0-24.758-11.238-24.758-25.053v-15.96c0-13.814 11.106-25.053 24.758-25.053s24.757 11.238 24.757 25.053v15.96c0 13.815-11.105 25.053-24.757 25.053zm0-62.065c-11.446 0-20.758 9.444-20.758 21.053v15.96c0 11.608 9.312 21.053 20.758 21.053 11.445 0 20.757-9.444 20.757-21.053v-15.96c0-11.609-9.311-21.053-20.757-21.053z" fill="#690589"/><circle cx="71.42" cy="75.75" fill="#ff4397" r="9.741"/><path d="m71.42 87.491c-6.475 0-11.741-5.267-11.741-11.741s5.267-11.741 11.741-11.741 11.741 5.267 11.741 11.741-5.266 11.741-11.741 11.741zm0-19.482c-4.269 0-7.741 3.473-7.741 7.741s3.473 7.741 7.741 7.741 7.741-3.473 7.741-7.741-3.473-7.741-7.741-7.741z" fill="#690589"/></svg>